M48
;Layer_Color=9474304
;FILE_FORMAT=4:4
METRIC,LZ
;TYPE=PLATED
T1F00S00C0.3000
T2F00S00C0.5000
T3F00S00C0.9000
T4F00S00C1.0000
T5F00S00C1.0160
T6F00S00C1.1000
T7F00S00C1.5000
T8F00S00C1.6000
T9F00S00C3.1750
T10F00S00C3.5000
T11F00S00C4.2000
%
T01
X00488Y0152427
X00465Y0157627
X00408Y0160427
X0048Y0166127
X01358Y02777
X0141Y028
X01495Y02785
X01438Y02857
T02
X01618Y00106
Y00119
Y00178
Y00192
X0184Y0064
X0034763Y00665243
X00385Y01032
Y01048
X01015Y0121
X0103
X0135Y01081
Y00975
X02288Y0154
X02034
X01643Y01331
Y0128541
X01397Y013575
X01355Y0142
X0134
X0129085Y0145285
X0128Y01501
X0131Y015
X01255Y01427
X0128Y0136
Y0133
X0123Y0134
X01178
X01198Y01279
X0128Y0125
X01305Y0137
X01149Y01406
Y01449
X011Y01485
X0108Y01417
X011Y0137
X01055Y01417
X0103Y01265
X01015
X00790045Y01414955
X0079Y0145504
X006192Y014392
X0054Y0143
X0055Y01415
X0053Y01445
X0042Y0154
Y0156
X00365Y0154
X00228Y016
Y01775
X00243Y01919
X001485Y019195
X003Y01815
X00315
X0033
X00955Y01985
X0097
X00985
X0103Y01956243
X02005Y01985
X0202
X02035
X0207Y02015
X01931Y01771
X00865Y02105
X0085
X00835
X00247Y026395
X00293Y0264
X00475Y02685
X00495
X0207Y02781
X020008Y028938
X01395Y02845
X01375
X01391Y02942
Y02957
X00481Y02934
T03
X0035Y005
Y006
X0017Y0093
Y0095
Y0097
Y0106
Y0108
Y011
T04
X01617Y003419
Y003673
Y003927
Y004181
X0064Y0072
X0054
Y0082
X0064
X00167Y012346
X00317
X00497Y012419
X006173Y01203
X006427
X007173
X007427
X008173
X008427
X00497Y012673
Y012927
Y013181
X00317Y012854
Y0126
Y013546
Y0138
Y014054
X00167
Y0138
Y013546
Y012854
Y0126
X00840529Y01956243
X00847103Y01980778
X00853677Y02005312
X00922119Y02072122
X0094008Y02054161
X00904159Y02090082
X015892Y02725
X016146
X0164
X016654
X016908
X019473Y02977
X019727
X004527Y02977
X004273
T05
X016256Y011254
X01651
X016764
X017018
X017272
X017526
X01778
X018034
X018542
X016002Y011762
Y012016
Y01227
X015748
Y012016
Y011762
X018796Y011254
X01905
X019304
X019558
X019812
X020066
X02032
X020828
X021082
X021336
X02159
X021844
X022098
X022352
X022606
X0227584Y01608
X0230124
X0232664
X0235204
X0225044
X0222504
X0219964
X0217424
X0214884
X0212344
X020828
X020574
X02032
X020066
X019812
X019558
X019304
X01905
Y0142512
Y0139972
Y0137432
X018796
Y0139972
Y0142512
X018542Y01608
X018288
X018034
X01778
X017526
X017272
X017018
X016764
X016002
X015748
Y015826
X016002
Y015572
X015748
Y015318
X016002
Y015064
X015748
Y01481
X016002
Y014556
X015748
Y014302
X016002
Y014048
X015748
Y013794
X016002
Y01354
X015748
Y013286
X016002
Y013032
X015748
Y012778
X016002
Y012524
X015748
T06
X001573Y015492
Y015746
Y016
Y016254
X001827
Y016
Y015746
Y015492
Y016508
X001573
X00248Y027952
Y028206
Y02846
Y028714
T07
X007075Y004875
Y006125
X004325
Y004875
T08
X0033Y001846
Y002354
Y003446
Y003954
X016245Y005484
Y005992
Y0065
Y007008
Y007516
X013755Y008346
X0028Y006008
Y0055
Y004992
X013755Y008854
T09
X015748Y011254
X018796Y011762
X024003Y011254
X023876Y01608
X016383
T10
X0075Y00065
X0255
Y03135
X0075
T11
X0092Y00265
Y0044
X0136Y00225
X0274Y0023
X0092Y00615
X0011Y0075
X01815Y0093
X005Y0195
X02683553Y0241
X0233Y02056447
X01976447Y0241
X01246482Y02203518
X00626821Y02423304
X009Y0255
X0233Y02763553
M30
