G04*
G04 #@! TF.GenerationSoftware,Altium Limited,Altium Designer,22.4.2 (48)*
G04*
G04 Layer_Physical_Order=2*
G04 Layer_Color=16711680*
%FSLAX44Y44*%
%MOMM*%
G71*
G04*
G04 #@! TF.SameCoordinates,486C5EB1-174D-4488-8CC1-BEBE5ED833F6*
G04*
G04*
G04 #@! TF.FilePolarity,Positive*
G04*
G01*
G75*
%ADD13C,0.2540*%
%ADD39C,5.0800*%
%ADD56C,4.5000*%
G04:AMPARAMS|DCode=60|XSize=1.8mm|YSize=1.05mm|CornerRadius=0.063mm|HoleSize=0mm|Usage=FLASHONLY|Rotation=0.000|XOffset=0mm|YOffset=0mm|HoleType=Round|Shape=RoundedRectangle|*
%AMROUNDEDRECTD60*
21,1,1.8000,0.9240,0,0,0.0*
21,1,1.6740,1.0500,0,0,0.0*
1,1,0.1260,0.8370,-0.4620*
1,1,0.1260,-0.8370,-0.4620*
1,1,0.1260,-0.8370,0.4620*
1,1,0.1260,0.8370,0.4620*
%
%ADD60ROUNDEDRECTD60*%
%ADD80C,0.5000*%
%ADD81C,0.4000*%
%ADD82C,1.0000*%
%ADD84O,1.5240X2.5400*%
%ADD85C,1.5240*%
%ADD86C,1.5000*%
%ADD87R,1.5000X1.5000*%
G04:AMPARAMS|DCode=88|XSize=2.4mm|YSize=2.4mm|CornerRadius=0.6mm|HoleSize=0mm|Usage=FLASHONLY|Rotation=270.000|XOffset=0mm|YOffset=0mm|HoleType=Round|Shape=RoundedRectangle|*
%AMROUNDEDRECTD88*
21,1,2.4000,1.2000,0,0,270.0*
21,1,1.2000,2.4000,0,0,270.0*
1,1,1.2000,-0.6000,-0.6000*
1,1,1.2000,-0.6000,0.6000*
1,1,1.2000,0.6000,0.6000*
1,1,1.2000,0.6000,-0.6000*
%
%ADD88ROUNDEDRECTD88*%
%ADD89C,2.4000*%
%ADD90C,1.4000*%
%ADD91C,2.2500*%
%ADD92R,2.2500X2.2500*%
%ADD93C,1.7000*%
%ADD94C,1.6000*%
G04:AMPARAMS|DCode=95|XSize=1.6mm|YSize=1.6mm|CornerRadius=0.4mm|HoleSize=0mm|Usage=FLASHONLY|Rotation=90.000|XOffset=0mm|YOffset=0mm|HoleType=Round|Shape=RoundedRectangle|*
%AMROUNDEDRECTD95*
21,1,1.6000,0.8000,0,0,90.0*
21,1,0.8000,1.6000,0,0,90.0*
1,1,0.8000,0.4000,0.4000*
1,1,0.8000,0.4000,-0.4000*
1,1,0.8000,-0.4000,-0.4000*
1,1,0.8000,-0.4000,0.4000*
%
%ADD95ROUNDEDRECTD95*%
%ADD96R,1.5000X1.5000*%
%ADD97C,1.3500*%
%ADD98R,1.3500X1.3500*%
%ADD99P,2.1213X4X360.0*%
%ADD100P,2.1213X4X120.0*%
%ADD101C,1.0000*%
%ADD102C,0.6500*%
G36*
X2807892Y3194902D02*
X2809668Y3193130D01*
X2815535Y3185996D01*
X2820674Y3178322D01*
X2825036Y3170181D01*
X2828580Y3161652D01*
X2831270Y3152816D01*
X2833081Y3143760D01*
X2833996Y3134569D01*
X2834006Y3125334D01*
X2833110Y3116141D01*
X2831318Y3107081D01*
X2828646Y3098240D01*
X2825121Y3089703D01*
X2820775Y3081553D01*
X2815652Y3073868D01*
X2809800Y3066722D01*
X2806539Y3063454D01*
X2802938Y3059853D01*
X150000D01*
Y2820000D01*
X100000Y2770000D01*
Y1719594D01*
X95000D01*
X91177Y1719218D01*
X87502Y1718103D01*
X84114Y1716292D01*
X81145Y1713855D01*
X78708Y1710886D01*
X76897Y1707498D01*
X75782Y1703823D01*
X75406Y1700000D01*
Y1615000D01*
Y1245000D01*
X75782Y1241177D01*
X76897Y1237502D01*
X78708Y1234114D01*
X81145Y1231145D01*
X84114Y1228708D01*
X87502Y1226897D01*
X91177Y1225782D01*
X95000Y1225406D01*
X100000D01*
X100000Y1225406D01*
Y850000D01*
X692179D01*
X693756Y845000D01*
X589681Y756936D01*
X587498Y758103D01*
X583823Y759218D01*
X580000Y759594D01*
X510000D01*
X506177Y759218D01*
X502502Y758103D01*
X499114Y756292D01*
X496145Y753855D01*
X493708Y750886D01*
X491897Y747498D01*
X490782Y743823D01*
X490406Y740000D01*
Y648486D01*
X489751Y648072D01*
X485406Y646966D01*
X483855Y648855D01*
X480886Y651292D01*
X477498Y653103D01*
X473823Y654218D01*
X470000Y654594D01*
X455146D01*
X452455Y654329D01*
X451324Y654218D01*
X451324Y654218D01*
X451324Y654218D01*
X449837Y653767D01*
X447648Y653103D01*
X444261Y651292D01*
X444260Y651292D01*
X444260Y651292D01*
X441291Y648855D01*
X439782Y647017D01*
X438854Y645886D01*
X438854Y645886D01*
X438854Y645886D01*
X438153Y644573D01*
X437248Y642881D01*
X434920Y643250D01*
X430080D01*
X427752Y642881D01*
X426847Y644573D01*
X426146Y645886D01*
X426146Y645886D01*
X426146Y645886D01*
X425261Y646964D01*
X423709Y648855D01*
X420740Y651292D01*
X420740Y651292D01*
X420739Y651292D01*
X417352Y653103D01*
X415163Y653767D01*
X413676Y654218D01*
X413676Y654218D01*
X413676Y654218D01*
X412006Y654382D01*
X409854Y654594D01*
X374404D01*
X371487Y659594D01*
X372130Y662830D01*
Y667656D01*
X371189Y672389D01*
X369342Y676848D01*
X366660Y680861D01*
X363248Y684273D01*
X359235Y686954D01*
X354776Y688801D01*
X350043Y689743D01*
X345217D01*
X340484Y688801D01*
X336025Y686954D01*
X332012Y684273D01*
X328600Y680861D01*
X325919Y676848D01*
X324072Y672389D01*
X323130Y667656D01*
Y662830D01*
X323774Y659594D01*
X320856Y654594D01*
X260000D01*
X256177Y654218D01*
X252502Y653103D01*
X249114Y651292D01*
X246145Y648855D01*
X243708Y645886D01*
X241897Y642498D01*
X240782Y638823D01*
X240406Y635000D01*
Y575910D01*
X240558Y574358D01*
X240654Y572802D01*
X240746Y572450D01*
X240782Y572088D01*
X241235Y570596D01*
X241632Y569087D01*
X241791Y568760D01*
X241897Y568412D01*
X242632Y567037D01*
X243316Y565635D01*
X243382Y565548D01*
X243113Y565046D01*
X242445Y563976D01*
X242210Y563355D01*
X241897Y562770D01*
X241531Y561563D01*
X241084Y560384D01*
X240975Y559729D01*
X240782Y559095D01*
X240658Y557840D01*
X240450Y556595D01*
X240471Y555932D01*
X240406Y555272D01*
Y535000D01*
X240782Y531177D01*
X241897Y527501D01*
X243708Y524114D01*
X246145Y521145D01*
X246145Y521145D01*
X253191Y514098D01*
X253787Y513609D01*
X254321Y513054D01*
X255268Y512393D01*
X256161Y511661D01*
X256840Y511298D01*
X257473Y510857D01*
X258530Y510395D01*
X259548Y509851D01*
X260286Y509627D01*
X260992Y509318D01*
X262120Y509071D01*
X263224Y508736D01*
X263991Y508660D01*
X264744Y508495D01*
X265898Y508472D01*
X267047Y508359D01*
X267814Y508434D01*
X268584Y508419D01*
X269720Y508622D01*
X270869Y508736D01*
X271607Y508959D01*
X272366Y509095D01*
X273440Y509515D01*
X274545Y509851D01*
X275001Y510094D01*
X277212Y510812D01*
X279063Y511106D01*
X280937D01*
X282788Y510812D01*
X284570Y510233D01*
X286240Y509383D01*
X287756Y508281D01*
X289081Y506956D01*
X290182Y505440D01*
X291033Y503770D01*
X291612Y501988D01*
X291905Y500137D01*
Y498263D01*
X291612Y496412D01*
X290894Y494201D01*
X290650Y493745D01*
X290315Y492641D01*
X289895Y491566D01*
X289759Y490807D01*
X289535Y490070D01*
X289422Y488921D01*
X289219Y487784D01*
X289234Y487014D01*
X289159Y486247D01*
X289272Y485098D01*
X289295Y483944D01*
X289460Y483191D01*
X289535Y482424D01*
X289870Y481320D01*
X290118Y480192D01*
X290427Y479486D01*
X290650Y478748D01*
X291194Y477730D01*
X291657Y476673D01*
X292098Y476040D01*
X292461Y475361D01*
X293193Y474468D01*
X293853Y473521D01*
X294409Y472987D01*
X294898Y472392D01*
X326145Y441145D01*
X329114Y438708D01*
X332501Y436897D01*
X336177Y435782D01*
X340000Y435406D01*
X460000D01*
X463823Y435782D01*
X467499Y436897D01*
X470886Y438708D01*
X473855Y441145D01*
X478855Y446145D01*
X481292Y449114D01*
X483103Y452502D01*
X484218Y456177D01*
X484594Y460000D01*
Y500000D01*
X484218Y503823D01*
X483103Y507498D01*
X481292Y510886D01*
X478855Y513855D01*
X468855Y523855D01*
X465886Y526292D01*
X462498Y528103D01*
X458823Y529218D01*
X455000Y529594D01*
X409264D01*
X408597Y530330D01*
Y539570D01*
X408209Y543516D01*
X407058Y547311D01*
X405647Y549950D01*
X407058Y552589D01*
X408209Y556384D01*
X408597Y560330D01*
Y569570D01*
X413504Y570765D01*
X413676Y570782D01*
X413676Y570782D01*
X413676Y570782D01*
X415163Y571233D01*
X417352Y571897D01*
X420739Y573708D01*
X420740Y573708D01*
X420740Y573708D01*
X423709Y576145D01*
X425218Y577984D01*
X426146Y579114D01*
X426146Y579114D01*
X426146Y579114D01*
X426847Y580427D01*
X427752Y582119D01*
X430080Y581750D01*
X434920D01*
X439701Y582507D01*
X444304Y584003D01*
X448616Y586200D01*
X452532Y589045D01*
X455413Y591926D01*
X455463Y591900D01*
X456181Y591619D01*
X456860Y591256D01*
X457965Y590921D01*
X459040Y590500D01*
X459799Y590364D01*
X460536Y590141D01*
X461685Y590028D01*
X462822Y589825D01*
X463592Y589840D01*
X464359Y589764D01*
X465508Y589878D01*
X466662Y589900D01*
X467415Y590065D01*
X468181Y590141D01*
X469286Y590476D01*
X470414Y590723D01*
X471120Y591032D01*
X471857Y591256D01*
X472875Y591800D01*
X473933Y592263D01*
X474565Y592703D01*
X475245Y593067D01*
X476137Y593799D01*
X477084Y594459D01*
X477618Y595014D01*
X478214Y595503D01*
X483855Y601145D01*
X485406Y603034D01*
X489751Y601928D01*
X490406Y601514D01*
Y545000D01*
X490782Y541177D01*
X491897Y537502D01*
X493708Y534114D01*
X496145Y531145D01*
X575406Y451884D01*
Y384594D01*
X364873D01*
X361515Y388299D01*
X361623Y389400D01*
Y401400D01*
X361131Y406399D01*
X359673Y411206D01*
X357305Y415636D01*
X354118Y419519D01*
X350235Y422705D01*
X345806Y425073D01*
X340999Y426531D01*
X336000Y427023D01*
X324000D01*
X319001Y426531D01*
X314194Y425073D01*
X309764Y422705D01*
X305881Y419519D01*
X302695Y415636D01*
X300327Y411206D01*
X298869Y406399D01*
X298376Y401400D01*
Y389400D01*
X298485Y388299D01*
X295127Y384594D01*
X275000D01*
X271177Y384218D01*
X267502Y383103D01*
X264114Y381292D01*
X261145Y378855D01*
X258708Y375886D01*
X256897Y372498D01*
X255782Y368823D01*
X255406Y365000D01*
Y150000D01*
X255782Y146177D01*
X256139Y145000D01*
X252974Y140000D01*
X258234D01*
X258708Y139114D01*
X261145Y136145D01*
X264114Y133708D01*
X267502Y131897D01*
X271177Y130782D01*
X275000Y130406D01*
X770000D01*
X1195000Y130406D01*
X1198823Y130782D01*
X1202498Y131897D01*
X1205886Y133708D01*
X1208855Y136145D01*
X1212711Y140000D01*
X2881131D01*
X2881617Y138827D01*
X2747888Y5098D01*
X97057D01*
X91221Y5866D01*
X85536Y7390D01*
X80098Y9642D01*
X75000Y12585D01*
X70330Y16168D01*
X66168Y20330D01*
X62585Y25000D01*
X59642Y30098D01*
X57389Y35536D01*
X55866Y41221D01*
X55098Y47057D01*
Y50000D01*
X55098Y430000D01*
X55073Y430125D01*
X55092Y430250D01*
X54995Y432211D01*
X54903Y432577D01*
Y432955D01*
X54139Y436800D01*
X53946Y437264D01*
X53849Y437757D01*
X52348Y441379D01*
X52069Y441796D01*
X51877Y442260D01*
X49699Y445520D01*
X49344Y445875D01*
X49065Y446293D01*
X46293Y449065D01*
X45875Y449344D01*
X45520Y449699D01*
X42260Y451877D01*
X41796Y452069D01*
X41379Y452348D01*
X37757Y453848D01*
X37264Y453946D01*
X36800Y454139D01*
X32955Y454903D01*
X32577D01*
X32211Y454995D01*
X30250Y455092D01*
X30125Y455073D01*
X30000Y455098D01*
X5098D01*
Y2844902D01*
X30000D01*
X30124Y2844927D01*
X30250Y2844908D01*
X32210Y2845005D01*
X32577Y2845096D01*
X32955D01*
X36800Y2845861D01*
X37264Y2846053D01*
X37757Y2846151D01*
X41379Y2847652D01*
X41796Y2847931D01*
X42260Y2848123D01*
X45520Y2850301D01*
X45875Y2850656D01*
X46293Y2850935D01*
X49065Y2853707D01*
X49344Y2854125D01*
X49699Y2854480D01*
X51877Y2857740D01*
X52069Y2858204D01*
X52348Y2858621D01*
X53849Y2862243D01*
X53946Y2862736D01*
X54139Y2863200D01*
X54903Y2867045D01*
Y2867423D01*
X54995Y2867790D01*
X55092Y2869750D01*
X55073Y2869875D01*
X55098Y2870000D01*
Y3150000D01*
Y3152943D01*
X55866Y3158779D01*
X57389Y3164464D01*
X59642Y3169902D01*
X62585Y3175000D01*
X66168Y3179669D01*
X70330Y3183831D01*
X75000Y3187415D01*
X80098Y3190358D01*
X85536Y3192610D01*
X91221Y3194134D01*
X97057Y3194902D01*
X100000D01*
X2807892Y3194902D01*
D02*
G37*
G36*
X2782170Y3039085D02*
X2748700Y3005615D01*
X2748668Y3005568D01*
X2748622Y3005535D01*
X2745002Y3001753D01*
X2744911Y3001611D01*
X2744779Y3001505D01*
X2738050Y2993485D01*
X2737942Y2993288D01*
X2737779Y2993133D01*
X2731774Y2984557D01*
X2731684Y2984351D01*
X2731536Y2984182D01*
X2726301Y2975116D01*
X2726229Y2974903D01*
X2726096Y2974721D01*
X2721671Y2965234D01*
X2721618Y2965015D01*
X2721501Y2964823D01*
X2717921Y2954985D01*
X2717887Y2954763D01*
X2717787Y2954561D01*
X2715078Y2944449D01*
X2715063Y2944225D01*
X2714981Y2944015D01*
X2713163Y2933706D01*
X2713168Y2933481D01*
X2713105Y2933265D01*
X2712193Y2922836D01*
X2712217Y2922612D01*
X2712173Y2922392D01*
Y2911923D01*
X2712217Y2911702D01*
X2712193Y2911479D01*
X2713105Y2901050D01*
X2713168Y2900834D01*
X2713163Y2900609D01*
X2714981Y2890299D01*
X2715063Y2890089D01*
X2715078Y2889865D01*
X2717787Y2879753D01*
X2717887Y2879551D01*
X2717921Y2879329D01*
X2721501Y2869492D01*
X2721618Y2869299D01*
X2721671Y2869081D01*
X2726096Y2859593D01*
X2726229Y2859412D01*
X2726301Y2859199D01*
X2731535Y2850132D01*
X2731684Y2849963D01*
X2731774Y2849757D01*
X2737779Y2841182D01*
X2737942Y2841026D01*
X2738050Y2840829D01*
X2744779Y2832809D01*
X2744954Y2832669D01*
X2745079Y2832482D01*
X2752482Y2825079D01*
X2752669Y2824954D01*
X2752809Y2824779D01*
X2760829Y2818050D01*
X2761026Y2817942D01*
X2761182Y2817779D01*
X2769757Y2811774D01*
X2769963Y2811684D01*
X2770132Y2811535D01*
X2779199Y2806301D01*
X2779412Y2806229D01*
X2779593Y2806096D01*
X2789081Y2801671D01*
X2789299Y2801618D01*
X2789492Y2801501D01*
X2799329Y2797921D01*
X2799551Y2797887D01*
X2799753Y2797787D01*
X2809865Y2795078D01*
X2810090Y2795063D01*
X2810299Y2794981D01*
X2820609Y2793163D01*
X2820834Y2793168D01*
X2821050Y2793105D01*
X2831479Y2792193D01*
X2831702Y2792217D01*
X2831923Y2792173D01*
X2842392D01*
X2842612Y2792217D01*
X2842836Y2792193D01*
X2853265Y2793105D01*
X2853481Y2793168D01*
X2853706Y2793163D01*
X2864015Y2794981D01*
X2864225Y2795063D01*
X2864449Y2795078D01*
X2874561Y2797787D01*
X2874763Y2797887D01*
X2874985Y2797921D01*
X2884823Y2801501D01*
X2885015Y2801618D01*
X2885234Y2801671D01*
X2894721Y2806096D01*
X2894903Y2806229D01*
X2895116Y2806301D01*
X2904182Y2811535D01*
X2904351Y2811684D01*
X2904557Y2811774D01*
X2913133Y2817779D01*
X2913288Y2817942D01*
X2913485Y2818050D01*
X2921505Y2824779D01*
X2921611Y2824911D01*
X2921753Y2825002D01*
X2925535Y2828622D01*
X2925568Y2828669D01*
X2925615Y2828700D01*
X2983456Y2886541D01*
X2983458Y2886543D01*
X2983460Y2886545D01*
X2986722Y2889814D01*
X2993855Y2895681D01*
X3001530Y2900820D01*
X3009670Y2905182D01*
X3018199Y2908726D01*
X3027035Y2911416D01*
X3036091Y2913227D01*
X3045282Y2914142D01*
X3054518Y2914152D01*
X3063710Y2913256D01*
X3072771Y2911464D01*
X3081612Y2908792D01*
X3090149Y2905267D01*
X3098299Y2900921D01*
X3105983Y2895798D01*
X3113129Y2889947D01*
X3114902Y2888177D01*
X3114902Y2575098D01*
X3060000D01*
X3059875Y2575073D01*
X3059750Y2575092D01*
X3057790Y2574995D01*
X3057423Y2574904D01*
X3057045D01*
X3053200Y2574138D01*
X3052736Y2573947D01*
X3052244Y2573849D01*
X3048621Y2572348D01*
X3048204Y2572069D01*
X3047740Y2571877D01*
X3044480Y2569699D01*
X3044125Y2569344D01*
X3043707Y2569065D01*
X3040935Y2566293D01*
X3040656Y2565875D01*
X3040301Y2565520D01*
X3038123Y2562260D01*
X3037931Y2561796D01*
X3037652Y2561379D01*
X3036151Y2557757D01*
X3036053Y2557264D01*
X3035861Y2556800D01*
X3035096Y2552955D01*
Y2552577D01*
X3035005Y2552210D01*
X3034908Y2550250D01*
X3034927Y2550125D01*
X3034902Y2550000D01*
Y2170000D01*
X3034927Y2169875D01*
X3034908Y2169750D01*
X3035005Y2167790D01*
X3035096Y2167423D01*
Y2167045D01*
X3035861Y2163200D01*
X3036053Y2162736D01*
X3036151Y2162243D01*
X3037652Y2158621D01*
X3037931Y2158204D01*
X3038123Y2157740D01*
X3040301Y2154480D01*
X3040656Y2154125D01*
X3040935Y2153707D01*
X3043707Y2150935D01*
X3044125Y2150656D01*
X3044480Y2150301D01*
X3047740Y2148123D01*
X3048204Y2147931D01*
X3048621Y2147652D01*
X3052243Y2146151D01*
X3052736Y2146053D01*
X3053200Y2145861D01*
X3057045Y2145096D01*
X3057423D01*
X3057790Y2145005D01*
X3059750Y2144908D01*
X3059875Y2144927D01*
X3060000Y2144902D01*
X3114902D01*
Y372112D01*
X2896403Y153612D01*
X2895236Y153670D01*
X2894986Y153855D01*
X2892017Y156292D01*
X2892017Y156292D01*
X2892017Y156292D01*
X2888629Y158103D01*
X2886441Y158767D01*
X2884954Y159218D01*
X2884954Y159218D01*
X2884954Y159218D01*
X2883284Y159382D01*
X2881131Y159594D01*
X1233964D01*
X1233478Y160768D01*
X1563855Y491145D01*
X1566292Y494114D01*
X1568103Y497501D01*
X1569218Y501177D01*
X1569594Y505000D01*
Y636884D01*
X1588116Y655406D01*
X1592486D01*
X1593311Y654440D01*
X1593000Y652479D01*
Y647521D01*
X1593776Y642624D01*
X1595308Y637908D01*
X1597559Y633490D01*
X1600473Y629479D01*
X1603979Y625973D01*
X1607991Y623059D01*
X1612408Y620808D01*
X1617124Y619276D01*
X1622021Y618500D01*
X1626979D01*
X1631876Y619276D01*
X1636592Y620808D01*
X1641010Y623059D01*
X1645021Y625973D01*
X1648527Y629479D01*
X1651441Y633490D01*
X1653692Y637908D01*
X1655225Y642624D01*
X1656000Y647521D01*
Y652479D01*
X1655690Y654440D01*
X1656514Y655406D01*
X1700000D01*
X1703823Y655782D01*
X1707498Y656897D01*
X1710886Y658708D01*
X1713855Y661145D01*
X1716292Y664114D01*
X1718103Y667502D01*
X1719218Y671177D01*
X1719594Y675000D01*
Y730000D01*
X1719218Y733823D01*
X1718103Y737498D01*
X1716292Y740886D01*
X1713855Y743855D01*
X1710886Y746292D01*
X1707498Y748103D01*
X1703823Y749218D01*
X1700000Y749594D01*
X1656124D01*
Y757600D01*
X1655631Y762599D01*
X1654173Y767406D01*
X1651805Y771836D01*
X1648619Y775719D01*
X1644736Y778905D01*
X1640306Y781273D01*
X1635499Y782731D01*
X1630500Y783223D01*
X1618500D01*
X1613501Y782731D01*
X1608694Y781273D01*
X1604265Y778905D01*
X1600382Y775719D01*
X1597195Y771836D01*
X1594827Y767406D01*
X1593369Y762599D01*
X1592877Y757600D01*
Y749594D01*
X1569694Y749594D01*
X1459594D01*
Y850000D01*
X1459218Y853823D01*
X1458103Y857498D01*
X1456292Y860886D01*
X1453855Y863855D01*
X1450886Y866292D01*
X1447498Y868103D01*
X1443823Y869218D01*
X1440000Y869594D01*
X1404015D01*
X1403351Y870677D01*
X1404692Y873308D01*
X1406224Y878024D01*
X1407000Y882921D01*
Y887879D01*
X1406224Y892776D01*
X1404692Y897492D01*
X1402441Y901910D01*
X1399527Y905921D01*
X1396021Y909427D01*
X1392009Y912341D01*
X1387592Y914592D01*
X1382876Y916124D01*
X1377979Y916900D01*
X1373021D01*
X1368124Y916124D01*
X1363408Y914592D01*
X1358990Y912341D01*
X1354979Y909427D01*
X1351473Y905921D01*
X1348559Y901910D01*
X1346308Y897492D01*
X1344776Y892776D01*
X1344000Y887879D01*
Y882921D01*
X1344776Y878024D01*
X1346308Y873308D01*
X1347648Y870677D01*
X1346985Y869594D01*
X730000D01*
X728896Y869486D01*
X727786Y869469D01*
X726989Y869298D01*
X726177Y869218D01*
X725116Y868896D01*
X724031Y868663D01*
X723282Y868340D01*
X722502Y868103D01*
X721523Y867580D01*
X720505Y867140D01*
X719833Y866677D01*
X719114Y866292D01*
X718256Y865588D01*
X717343Y864958D01*
X710594Y859247D01*
X709167Y859704D01*
X708874Y860132D01*
X708471Y860886D01*
X707792Y861714D01*
X707188Y862597D01*
X706577Y863195D01*
X706034Y863855D01*
X705207Y864535D01*
X704442Y865283D01*
X703726Y865750D01*
X703065Y866292D01*
X702121Y866797D01*
X701224Y867382D01*
X700431Y867700D01*
X699678Y868103D01*
X698653Y868414D01*
X697660Y868812D01*
X696820Y868970D01*
X696002Y869218D01*
X694936Y869323D01*
X693884Y869520D01*
X693030Y869511D01*
X692179Y869594D01*
X119594D01*
Y1225406D01*
X119501Y1226349D01*
X119503Y1227297D01*
X119314Y1228256D01*
X119218Y1229228D01*
X118943Y1230135D01*
X118759Y1231066D01*
X118386Y1231969D01*
X118103Y1232904D01*
X117656Y1233740D01*
X117295Y1234616D01*
X116753Y1235430D01*
X116292Y1236292D01*
X115691Y1237024D01*
X115165Y1237813D01*
X114475Y1238505D01*
X113855Y1239261D01*
X113123Y1239862D01*
X112453Y1240534D01*
X111642Y1241078D01*
X110894Y1241691D01*
X110892Y1241719D01*
X111217Y1242961D01*
X160130D01*
X160656Y1241691D01*
X159398Y1240433D01*
X158147Y1238267D01*
X157500Y1235851D01*
Y1233349D01*
X158147Y1230933D01*
X159398Y1228767D01*
X161167Y1226998D01*
X163333Y1225747D01*
X165749Y1225100D01*
X168251D01*
X170667Y1225747D01*
X172833Y1226998D01*
X174602Y1228767D01*
X175853Y1230933D01*
X176500Y1233349D01*
Y1235851D01*
X175853Y1238267D01*
X174602Y1240433D01*
X173344Y1241691D01*
X173870Y1242961D01*
X310130D01*
X310656Y1241691D01*
X309398Y1240433D01*
X308147Y1238267D01*
X307500Y1235851D01*
Y1233349D01*
X308147Y1230933D01*
X309398Y1228767D01*
X311167Y1226998D01*
X313333Y1225747D01*
X315749Y1225100D01*
X318251D01*
X320667Y1225747D01*
X322833Y1226998D01*
X324602Y1228767D01*
X325853Y1230933D01*
X326500Y1233349D01*
Y1235851D01*
X325853Y1238267D01*
X324602Y1240433D01*
X323344Y1241691D01*
X323870Y1242961D01*
X350000D01*
X350780Y1243116D01*
X351442Y1243558D01*
X351884Y1244220D01*
X352039Y1245000D01*
Y1275000D01*
X351884Y1275780D01*
X351442Y1276442D01*
X351069Y1276691D01*
X351381Y1277961D01*
X380000D01*
X380780Y1278116D01*
X381442Y1278558D01*
X381884Y1279220D01*
X382039Y1280000D01*
Y1420000D01*
Y1585000D01*
Y1845000D01*
X381884Y1845780D01*
X381442Y1846442D01*
X380780Y1846884D01*
X380000Y1847039D01*
X240000D01*
X239220Y1846884D01*
X238558Y1846442D01*
X238116Y1845780D01*
X237961Y1845000D01*
Y1587039D01*
X188307D01*
X188175Y1587013D01*
X188041Y1587022D01*
X187788Y1586936D01*
X187526Y1586884D01*
X187414Y1586809D01*
X187287Y1586766D01*
X187087Y1586590D01*
X186865Y1586442D01*
X186790Y1586330D01*
X186689Y1586241D01*
X186571Y1586002D01*
X186423Y1585780D01*
X186397Y1585648D01*
X186337Y1585528D01*
X185997Y1584258D01*
X184759Y1584401D01*
X184016Y1584600D01*
X181383D01*
X180641Y1584401D01*
X179403Y1584258D01*
X179063Y1585528D01*
X179004Y1585648D01*
X178977Y1585780D01*
X178829Y1586002D01*
X178711Y1586241D01*
X178610Y1586330D01*
X178535Y1586442D01*
X178313Y1586590D01*
X178113Y1586766D01*
X177985Y1586809D01*
X177874Y1586884D01*
X177612Y1586936D01*
X177360Y1587022D01*
X177225Y1587013D01*
X177093Y1587039D01*
X161827D01*
X161695Y1587013D01*
X161560Y1587022D01*
X161308Y1586936D01*
X161046Y1586884D01*
X160935Y1586809D01*
X160807Y1586766D01*
X160606Y1586590D01*
X160385Y1586442D01*
X160310Y1586330D01*
X160209Y1586241D01*
X160091Y1586002D01*
X159943Y1585780D01*
X159916Y1585648D01*
X159857Y1585528D01*
X159542Y1584352D01*
X158617Y1584600D01*
X155983D01*
X155058Y1584352D01*
X154743Y1585528D01*
X154684Y1585648D01*
X154657Y1585780D01*
X154509Y1586002D01*
X154391Y1586241D01*
X154290Y1586330D01*
X154215Y1586442D01*
X153994Y1586590D01*
X153793Y1586766D01*
X153666Y1586809D01*
X153554Y1586884D01*
X153292Y1586936D01*
X153040Y1587022D01*
X152905Y1587013D01*
X152773Y1587039D01*
X145000D01*
X144220Y1586884D01*
X143558Y1586442D01*
X143309Y1586069D01*
X142039Y1586381D01*
Y1612961D01*
X152773D01*
X152905Y1612987D01*
X153040Y1612978D01*
X153292Y1613064D01*
X153554Y1613116D01*
X153666Y1613191D01*
X153793Y1613234D01*
X153994Y1613410D01*
X154215Y1613558D01*
X154290Y1613670D01*
X154391Y1613759D01*
X154509Y1613998D01*
X154657Y1614220D01*
X154684Y1614352D01*
X154743Y1614472D01*
X155058Y1615648D01*
X155983Y1615400D01*
X158617D01*
X159542Y1615648D01*
X159857Y1614472D01*
X159916Y1614352D01*
X159943Y1614220D01*
X160091Y1613998D01*
X160209Y1613759D01*
X160310Y1613670D01*
X160385Y1613558D01*
X160606Y1613410D01*
X160807Y1613234D01*
X160934Y1613191D01*
X161046Y1613116D01*
X161308Y1613064D01*
X161560Y1612978D01*
X161695Y1612987D01*
X161827Y1612961D01*
X177093D01*
X177225Y1612987D01*
X177360Y1612978D01*
X177612Y1613064D01*
X177874Y1613116D01*
X177985Y1613191D01*
X178113Y1613234D01*
X178313Y1613410D01*
X178535Y1613558D01*
X178610Y1613670D01*
X178711Y1613759D01*
X178829Y1613998D01*
X178977Y1614220D01*
X179004Y1614352D01*
X179063Y1614472D01*
X179403Y1615742D01*
X180641Y1615599D01*
X181383Y1615400D01*
X184016D01*
X184759Y1615599D01*
X185997Y1615742D01*
X186337Y1614472D01*
X186397Y1614352D01*
X186423Y1614220D01*
X186571Y1613998D01*
X186689Y1613759D01*
X186790Y1613670D01*
X186865Y1613558D01*
X187087Y1613410D01*
X187287Y1613234D01*
X187414Y1613191D01*
X187526Y1613116D01*
X187788Y1613064D01*
X188041Y1612978D01*
X188175Y1612987D01*
X188307Y1612961D01*
X215000D01*
X215780Y1613116D01*
X216442Y1613558D01*
X216884Y1614220D01*
X217039Y1615000D01*
Y1700000D01*
X216884Y1700780D01*
X216442Y1701442D01*
X215780Y1701884D01*
X215000Y1702039D01*
X111443D01*
X110884Y1703205D01*
X110894Y1703309D01*
X113855Y1705739D01*
X116292Y1708708D01*
X118103Y1712096D01*
X119218Y1715772D01*
X119594Y1719594D01*
Y2761884D01*
X163855Y2806145D01*
X166292Y2809114D01*
X168103Y2812502D01*
X169218Y2816177D01*
X169594Y2820000D01*
Y3040258D01*
X2781684D01*
X2782170Y3039085D01*
D02*
G37*
G36*
X215000Y1615000D02*
X188307D01*
X187966Y1616270D01*
X189172Y1616966D01*
X191134Y1618928D01*
X192522Y1621332D01*
X193240Y1624012D01*
Y1624130D01*
X182700D01*
X172160D01*
Y1624012D01*
X172878Y1621332D01*
X174266Y1618928D01*
X176228Y1616966D01*
X177434Y1616270D01*
X177093Y1615000D01*
X161827D01*
X161486Y1616270D01*
X163440Y1617398D01*
X165302Y1619260D01*
X166618Y1621540D01*
X167300Y1624084D01*
Y1626716D01*
X166618Y1629260D01*
X165302Y1631540D01*
X163440Y1633402D01*
X161160Y1634718D01*
X158617Y1635400D01*
X155983D01*
X153440Y1634718D01*
X151160Y1633402D01*
X149298Y1631540D01*
X147982Y1629260D01*
X147300Y1626716D01*
Y1624084D01*
X147982Y1621540D01*
X149298Y1619260D01*
X151160Y1617398D01*
X153114Y1616270D01*
X152773Y1615000D01*
X140000D01*
Y1395000D01*
X350000D01*
Y1365000D01*
X140000D01*
Y1275000D01*
X350000D01*
Y1245000D01*
X100000D01*
Y1245000D01*
X95000D01*
Y1615000D01*
Y1700000D01*
X215000D01*
Y1615000D01*
D02*
G37*
G36*
X380000Y1575000D02*
Y1420000D01*
Y1400000D01*
Y1280000D01*
X327040D01*
Y1284130D01*
X317000D01*
X306960D01*
Y1280000D01*
X177040D01*
Y1284130D01*
X167000D01*
X156960D01*
Y1280000D01*
X145000D01*
Y1300000D01*
X350000D01*
Y1362961D01*
X350780Y1363116D01*
X351442Y1363558D01*
X351884Y1364220D01*
X352039Y1365000D01*
Y1395000D01*
X351884Y1395780D01*
X351442Y1396442D01*
X350780Y1396884D01*
X350000Y1397039D01*
Y1400000D01*
X327040D01*
Y1404130D01*
X317000D01*
X306960D01*
Y1400000D01*
X177040D01*
Y1404130D01*
X167000D01*
X156960D01*
Y1400000D01*
X145000D01*
Y1420000D01*
Y1585000D01*
X152773D01*
X153114Y1583730D01*
X151160Y1582602D01*
X149298Y1580740D01*
X147982Y1578460D01*
X147300Y1575916D01*
Y1573284D01*
X147982Y1570740D01*
X149298Y1568460D01*
X151160Y1566598D01*
X153440Y1565282D01*
X155983Y1564600D01*
X158617D01*
X161160Y1565282D01*
X163440Y1566598D01*
X165302Y1568460D01*
X166618Y1570740D01*
X167300Y1573284D01*
Y1575916D01*
X166618Y1578460D01*
X165302Y1580740D01*
X163440Y1582602D01*
X161486Y1583730D01*
X161827Y1585000D01*
X177093D01*
X177434Y1583730D01*
X176228Y1583034D01*
X174266Y1581072D01*
X172878Y1578668D01*
X172160Y1575988D01*
Y1575870D01*
X182700D01*
X193240D01*
Y1575988D01*
X192522Y1578668D01*
X191134Y1581072D01*
X189172Y1583034D01*
X187966Y1583730D01*
X188307Y1585000D01*
X240000D01*
Y1845000D01*
X380000D01*
Y1575000D01*
D02*
G37*
G36*
X347961Y1302039D02*
X145000D01*
X144220Y1301884D01*
X143558Y1301442D01*
X143309Y1301069D01*
X142039Y1301381D01*
Y1362961D01*
X160130D01*
X160656Y1361691D01*
X159398Y1360433D01*
X158147Y1358267D01*
X157500Y1355851D01*
Y1353349D01*
X158147Y1350933D01*
X159398Y1348767D01*
X161167Y1346998D01*
X163333Y1345747D01*
X165749Y1345100D01*
X168251D01*
X170667Y1345747D01*
X172833Y1346998D01*
X174602Y1348767D01*
X175853Y1350933D01*
X176500Y1353349D01*
Y1355851D01*
X175853Y1358267D01*
X174602Y1360433D01*
X173344Y1361691D01*
X173870Y1362961D01*
X310130D01*
X310656Y1361691D01*
X309398Y1360433D01*
X308147Y1358267D01*
X307500Y1355851D01*
Y1353349D01*
X308147Y1350933D01*
X309398Y1348767D01*
X311167Y1346998D01*
X313333Y1345747D01*
X315749Y1345100D01*
X318251D01*
X320667Y1345747D01*
X322833Y1346998D01*
X324602Y1348767D01*
X325853Y1350933D01*
X326500Y1353349D01*
Y1355851D01*
X325853Y1358267D01*
X324602Y1360433D01*
X323344Y1361691D01*
X323870Y1362961D01*
X347961D01*
Y1302039D01*
D02*
G37*
G36*
X580000Y645000D02*
X580450Y644550D01*
X580782Y641177D01*
X581897Y637502D01*
X583708Y634114D01*
X586145Y631145D01*
X666145Y551145D01*
X669114Y548708D01*
X672502Y546897D01*
X676177Y545782D01*
X678734Y545530D01*
X679208Y544207D01*
X680000Y545000D01*
X1435000D01*
X1435406Y545406D01*
X1440000D01*
X1443823Y545782D01*
X1447498Y546897D01*
X1450886Y548708D01*
X1453855Y551145D01*
X1456292Y554114D01*
X1458103Y557502D01*
X1459218Y561177D01*
X1459594Y565000D01*
Y730000D01*
X1569694D01*
X1598315Y730000D01*
X1600382Y727482D01*
X1604265Y724295D01*
X1608694Y721927D01*
X1613501Y720469D01*
X1618500Y719977D01*
X1630500D01*
X1635499Y720469D01*
X1640306Y721927D01*
X1644736Y724295D01*
X1648619Y727482D01*
X1650685Y730000D01*
X1700000D01*
Y675000D01*
X1643682D01*
X1641010Y676941D01*
X1636592Y679192D01*
X1631876Y680724D01*
X1626979Y681500D01*
X1622021D01*
X1617124Y680724D01*
X1612408Y679192D01*
X1607991Y676941D01*
X1605319Y675000D01*
X1580000D01*
X1550000Y645000D01*
Y505000D01*
X1195000Y150000D01*
X770000Y150000D01*
X275000D01*
Y365000D01*
X316591D01*
X319001Y364269D01*
X324000Y363777D01*
X336000D01*
X340999Y364269D01*
X343409Y365000D01*
X595000D01*
Y460000D01*
X510000Y545000D01*
Y740000D01*
X580000D01*
Y645000D01*
D02*
G37*
G36*
X470000Y615000D02*
X464359Y609359D01*
X463227Y609935D01*
X463250Y610080D01*
Y614920D01*
X462493Y619701D01*
X460997Y624304D01*
X458800Y628616D01*
X455955Y632532D01*
X454660Y633827D01*
X455146Y635000D01*
X470000D01*
Y615000D01*
D02*
G37*
G36*
X410340Y633827D02*
X409045Y632532D01*
X406200Y628616D01*
X404003Y624304D01*
X402507Y619701D01*
X401750Y614920D01*
Y610080D01*
X402507Y605299D01*
X404003Y600696D01*
X406200Y596384D01*
X409045Y592468D01*
X410340Y591173D01*
X409854Y590000D01*
X365000D01*
X362533Y587533D01*
X360392Y586389D01*
X357327Y583873D01*
X354812Y580808D01*
X353668Y578667D01*
X350000Y575000D01*
X299181D01*
X296509Y576941D01*
X292092Y579192D01*
X287376Y580724D01*
X282479Y581500D01*
X277521D01*
X272624Y580724D01*
X267908Y579192D01*
X263490Y576941D01*
X261270Y575328D01*
X260000Y575910D01*
Y635000D01*
X409854D01*
X410340Y633827D01*
D02*
G37*
G36*
X1440000Y565000D02*
X680000D01*
X600000Y645000D01*
Y740000D01*
X730000Y850000D01*
X1440000D01*
Y565000D01*
D02*
G37*
G36*
X282788Y561613D02*
X284570Y561033D01*
X286240Y560183D01*
X287664Y559148D01*
X287997Y558953D01*
X288295Y558708D01*
X289651Y557983D01*
X290978Y557206D01*
X291343Y557079D01*
X291683Y556897D01*
X293155Y556451D01*
X294607Y555947D01*
X294989Y555894D01*
X295359Y555782D01*
X296889Y555631D01*
X298412Y555421D01*
X298797Y555443D01*
X299181Y555406D01*
X350000D01*
X352027Y555605D01*
X352942Y552589D01*
X354353Y549950D01*
X352942Y547311D01*
X351791Y543516D01*
X351403Y539570D01*
Y530330D01*
X351791Y526384D01*
X352942Y522589D01*
X354812Y519092D01*
X357327Y516027D01*
X360392Y513512D01*
X362747Y512253D01*
X365000Y510000D01*
X455000D01*
X465000Y500000D01*
Y460000D01*
X460000Y455000D01*
X340000D01*
X308753Y486247D01*
X309192Y487108D01*
X310724Y491824D01*
X311500Y496721D01*
Y501679D01*
X310724Y506576D01*
X309192Y511292D01*
X306941Y515710D01*
X304027Y519721D01*
X300521Y523227D01*
X296509Y526141D01*
X292092Y528392D01*
X287376Y529924D01*
X282479Y530700D01*
X277521D01*
X272624Y529924D01*
X267908Y528392D01*
X267047Y527953D01*
X260000Y535000D01*
Y555272D01*
X260544Y555747D01*
X261292Y555793D01*
X262039Y555749D01*
X263204Y555910D01*
X264379Y555982D01*
X265103Y556173D01*
X265844Y556275D01*
X266955Y556660D01*
X268093Y556960D01*
X268766Y557288D01*
X269473Y557534D01*
X270488Y558128D01*
X271545Y558644D01*
X272141Y559097D01*
X272787Y559476D01*
X273760Y560182D01*
X275430Y561033D01*
X277212Y561613D01*
X279063Y561906D01*
X280937D01*
X282788Y561613D01*
D02*
G37*
%LPC*%
G36*
X246730Y2805797D02*
X244000D01*
X242293Y2805572D01*
X240702Y2804913D01*
X239336Y2803864D01*
X238287Y2802498D01*
X237628Y2800907D01*
X237404Y2799200D01*
Y2796470D01*
X246730D01*
Y2805797D01*
D02*
G37*
G36*
X1439044Y2862250D02*
X1436956D01*
X1435026Y2861451D01*
X1433549Y2859974D01*
X1432750Y2858044D01*
Y2855956D01*
X1433549Y2854026D01*
X1434666Y2852910D01*
Y2829381D01*
X1410535Y2805250D01*
X1408956D01*
X1407026Y2804451D01*
X1405549Y2802974D01*
X1404750Y2801044D01*
Y2798956D01*
X1405549Y2797026D01*
X1407026Y2795549D01*
X1408956Y2794750D01*
X1411044D01*
X1412974Y2795549D01*
X1414451Y2797026D01*
X1415250Y2798956D01*
Y2800535D01*
X1440358Y2825642D01*
X1441080Y2826724D01*
X1441334Y2828000D01*
Y2852910D01*
X1442451Y2854026D01*
X1443250Y2855956D01*
Y2858044D01*
X1442451Y2859974D01*
X1440974Y2861451D01*
X1439044Y2862250D01*
D02*
G37*
G36*
X246730Y2793930D02*
X237404D01*
Y2791200D01*
X237628Y2789493D01*
X238287Y2787902D01*
X239336Y2786536D01*
X240702Y2785487D01*
X242293Y2784828D01*
X244000Y2784604D01*
X246730D01*
Y2793930D01*
D02*
G37*
G36*
X1496044Y2790250D02*
X1493956D01*
X1492026Y2789451D01*
X1490909Y2788334D01*
X1366000D01*
X1364724Y2788080D01*
X1363642Y2787357D01*
X1358535Y2782250D01*
X1356956D01*
X1355026Y2781451D01*
X1353549Y2779974D01*
X1352750Y2778044D01*
Y2775956D01*
X1353549Y2774026D01*
X1355026Y2772549D01*
X1356956Y2771750D01*
X1359044D01*
X1360974Y2772549D01*
X1362451Y2774026D01*
X1363250Y2775956D01*
Y2777535D01*
X1367381Y2781666D01*
X1490909D01*
X1492026Y2780549D01*
X1493956Y2779750D01*
X1496044D01*
X1497974Y2780549D01*
X1499451Y2782026D01*
X1500250Y2783956D01*
Y2786044D01*
X1499451Y2787974D01*
X1497974Y2789451D01*
X1496044Y2790250D01*
D02*
G37*
G36*
X1666722Y2735040D02*
X1666670D01*
Y2726270D01*
X1675440D01*
Y2726322D01*
X1674756Y2728875D01*
X1673434Y2731165D01*
X1671565Y2733034D01*
X1669275Y2734356D01*
X1666722Y2735040D01*
D02*
G37*
G36*
X1664130D02*
X1664078D01*
X1661525Y2734356D01*
X1659235Y2733034D01*
X1657366Y2731165D01*
X1656044Y2728875D01*
X1655360Y2726322D01*
Y2726270D01*
X1664130D01*
Y2735040D01*
D02*
G37*
G36*
X1692051Y2734500D02*
X1689549D01*
X1687133Y2733853D01*
X1684967Y2732602D01*
X1683198Y2730833D01*
X1681947Y2728667D01*
X1681300Y2726251D01*
Y2723749D01*
X1681947Y2721333D01*
X1683198Y2719167D01*
X1684967Y2717398D01*
X1687133Y2716147D01*
X1689549Y2715500D01*
X1692051D01*
X1694467Y2716147D01*
X1696633Y2717398D01*
X1698402Y2719167D01*
X1699653Y2721333D01*
X1700300Y2723749D01*
Y2726251D01*
X1699653Y2728667D01*
X1698402Y2730833D01*
X1696633Y2732602D01*
X1694467Y2733853D01*
X1692051Y2734500D01*
D02*
G37*
G36*
X1641251D02*
X1638749D01*
X1636333Y2733853D01*
X1634167Y2732602D01*
X1632398Y2730833D01*
X1631147Y2728667D01*
X1630500Y2726251D01*
Y2723749D01*
X1631147Y2721333D01*
X1632398Y2719167D01*
X1634167Y2717398D01*
X1636333Y2716147D01*
X1638749Y2715500D01*
X1641251D01*
X1643667Y2716147D01*
X1645833Y2717398D01*
X1647602Y2719167D01*
X1648853Y2721333D01*
X1649500Y2723749D01*
Y2726251D01*
X1648853Y2728667D01*
X1647602Y2730833D01*
X1645833Y2732602D01*
X1643667Y2733853D01*
X1641251Y2734500D01*
D02*
G37*
G36*
X1615851D02*
X1613349D01*
X1610933Y2733853D01*
X1608767Y2732602D01*
X1606998Y2730833D01*
X1605747Y2728667D01*
X1605100Y2726251D01*
Y2723749D01*
X1605747Y2721333D01*
X1606998Y2719167D01*
X1608767Y2717398D01*
X1610933Y2716147D01*
X1613349Y2715500D01*
X1615851D01*
X1618267Y2716147D01*
X1620433Y2717398D01*
X1622202Y2719167D01*
X1623453Y2721333D01*
X1624100Y2723749D01*
Y2726251D01*
X1623453Y2728667D01*
X1622202Y2730833D01*
X1620433Y2732602D01*
X1618267Y2733853D01*
X1615851Y2734500D01*
D02*
G37*
G36*
X1598700D02*
X1579700D01*
Y2715500D01*
X1598700D01*
Y2734500D01*
D02*
G37*
G36*
X1675440Y2723730D02*
X1666670D01*
Y2714960D01*
X1666722D01*
X1669275Y2715644D01*
X1671565Y2716966D01*
X1673434Y2718835D01*
X1674756Y2721125D01*
X1675440Y2723678D01*
Y2723730D01*
D02*
G37*
G36*
X1664130D02*
X1655360D01*
Y2723678D01*
X1656044Y2721125D01*
X1657366Y2718835D01*
X1659235Y2716966D01*
X1661525Y2715644D01*
X1664078Y2714960D01*
X1664130D01*
Y2723730D01*
D02*
G37*
G36*
X2070922Y2022000D02*
X2069078D01*
X2067298Y2021523D01*
X2065702Y2020601D01*
X2064399Y2019298D01*
X2064272Y2019078D01*
X1529000D01*
X1527439Y2018768D01*
X1526116Y2017884D01*
X1526116Y2017884D01*
X1323116Y1814884D01*
X1322232Y1813561D01*
X1321922Y1812000D01*
X1321922Y1812000D01*
Y1548689D01*
X1281167Y1507934D01*
X1280922Y1508000D01*
X1279078D01*
X1277298Y1507523D01*
X1275702Y1506601D01*
X1274399Y1505298D01*
X1273477Y1503702D01*
X1273000Y1501922D01*
Y1500078D01*
X1273477Y1498298D01*
X1274399Y1496702D01*
X1275702Y1495399D01*
X1277298Y1494477D01*
X1279078Y1494000D01*
X1280922D01*
X1282702Y1494477D01*
X1284298Y1495399D01*
X1285601Y1496702D01*
X1286523Y1498298D01*
X1287000Y1500078D01*
Y1501922D01*
X1286934Y1502167D01*
X1326788Y1542020D01*
X1327961Y1541534D01*
Y1405000D01*
X1328116Y1404220D01*
X1328558Y1403558D01*
X1329220Y1403116D01*
X1330000Y1402961D01*
X1365000D01*
X1365780Y1403116D01*
X1366442Y1403558D01*
X1366884Y1404220D01*
X1367039Y1405000D01*
Y1694155D01*
X1630845Y1957961D01*
X2050000D01*
X2050780Y1958116D01*
X2051442Y1958558D01*
X2051884Y1959220D01*
X2052039Y1960000D01*
Y2010000D01*
X2053151Y2010922D01*
X2064272D01*
X2064399Y2010702D01*
X2065702Y2009399D01*
X2067298Y2008477D01*
X2069078Y2008000D01*
X2070922D01*
X2072702Y2008477D01*
X2074298Y2009399D01*
X2075601Y2010702D01*
X2076523Y2012298D01*
X2077000Y2014078D01*
Y2015922D01*
X2076523Y2017702D01*
X2075601Y2019298D01*
X2074298Y2020601D01*
X2072702Y2021523D01*
X2070922Y2022000D01*
D02*
G37*
G36*
X995000Y2117039D02*
X825000D01*
X824220Y2116884D01*
X823558Y2116442D01*
X823116Y2115780D01*
X822961Y2115000D01*
Y1975000D01*
X823116Y1974220D01*
X823558Y1973558D01*
X824220Y1973116D01*
X825000Y1972961D01*
X838199D01*
X838460Y1973013D01*
X838727Y1973030D01*
X838848Y1973090D01*
X838979Y1973116D01*
X839201Y1973264D01*
X839440Y1973382D01*
X840035Y1973544D01*
X840693Y1973522D01*
X841017Y1973429D01*
X841270Y1973176D01*
X843436Y1971925D01*
X845852Y1971278D01*
X848354Y1971278D01*
X850770Y1971925D01*
X852936Y1973176D01*
X853189Y1973429D01*
X853513Y1973522D01*
X854170Y1973544D01*
X854765Y1973382D01*
X855004Y1973264D01*
X855226Y1973116D01*
X855358Y1973090D01*
X855479Y1973030D01*
X855745Y1973013D01*
X856006Y1972961D01*
X995000D01*
X995780Y1973116D01*
X996442Y1973558D01*
X996884Y1974220D01*
X997039Y1975000D01*
Y2115000D01*
X996884Y2115780D01*
X996442Y2116442D01*
X995780Y2116884D01*
X995000Y2117039D01*
D02*
G37*
G36*
X841779Y1965743D02*
X839278Y1965743D01*
X836862Y1965096D01*
X834696Y1963845D01*
X832927Y1962077D01*
X831676Y1959910D01*
X831029Y1957494D01*
X831029Y1954993D01*
X831676Y1952577D01*
X832927Y1950410D01*
X834696Y1948642D01*
X836862Y1947391D01*
X839278Y1946743D01*
X841779Y1946743D01*
X844196Y1947391D01*
X846362Y1948642D01*
X848131Y1950410D01*
X848849Y1951655D01*
X1024689D01*
X1025702Y1950642D01*
X1027298Y1949720D01*
X1029078Y1949243D01*
X1030922D01*
X1032702Y1949720D01*
X1034298Y1950642D01*
X1035601Y1951945D01*
X1036523Y1953542D01*
X1037000Y1955322D01*
Y1957165D01*
X1036523Y1958945D01*
X1035601Y1960542D01*
X1034298Y1961845D01*
X1032702Y1962766D01*
X1030922Y1963243D01*
X1029078D01*
X1027298Y1962766D01*
X1025702Y1961845D01*
X1024689Y1960832D01*
X848849D01*
X848131Y1962077D01*
X846362Y1963845D01*
X844196Y1965096D01*
X841779Y1965743D01*
D02*
G37*
G36*
X149422Y1926500D02*
X147578D01*
X145798Y1926023D01*
X144202Y1925101D01*
X142899Y1923798D01*
X141977Y1922202D01*
X141500Y1920422D01*
Y1918578D01*
X141977Y1916798D01*
X142899Y1915202D01*
X144202Y1913899D01*
X145798Y1912977D01*
X147578Y1912500D01*
X149422D01*
X151202Y1912977D01*
X152798Y1913899D01*
X153561Y1914662D01*
X237439D01*
X238702Y1913399D01*
X240298Y1912477D01*
X242078Y1912000D01*
X243922D01*
X245702Y1912477D01*
X247298Y1913399D01*
X248601Y1914702D01*
X249523Y1916298D01*
X250000Y1918078D01*
Y1919922D01*
X249523Y1921702D01*
X248601Y1923298D01*
X247298Y1924601D01*
X245702Y1925523D01*
X243922Y1926000D01*
X242078D01*
X240298Y1925523D01*
X238702Y1924601D01*
X237939Y1923838D01*
X154061D01*
X152798Y1925101D01*
X151202Y1926023D01*
X149422Y1926500D01*
D02*
G37*
G36*
X2386330Y1635940D02*
X2385401D01*
X2381057Y1635252D01*
X2376875Y1633893D01*
X2372956Y1631896D01*
X2369398Y1629311D01*
X2366289Y1626202D01*
X2363704Y1622644D01*
X2361707Y1618725D01*
X2361564Y1618284D01*
X2360212Y1618233D01*
X2358901Y1619941D01*
X2356891Y1621483D01*
X2354551Y1622452D01*
X2352040Y1622783D01*
X2349529Y1622452D01*
X2347189Y1621483D01*
X2345179Y1619941D01*
X2343637Y1617932D01*
X2342668Y1615591D01*
X2342337Y1613080D01*
Y1602920D01*
X2342668Y1600409D01*
X2343637Y1598069D01*
X2345179Y1596059D01*
X2347189Y1594517D01*
X2349529Y1593548D01*
X2352040Y1593217D01*
X2354551Y1593548D01*
X2356891Y1594517D01*
X2358901Y1596059D01*
X2360212Y1597767D01*
X2361564Y1597717D01*
X2361707Y1597275D01*
X2363704Y1593356D01*
X2366289Y1589798D01*
X2369398Y1586689D01*
X2372956Y1584104D01*
X2376875Y1582107D01*
X2381057Y1580748D01*
X2385401Y1580060D01*
X2386330D01*
Y1608000D01*
Y1635940D01*
D02*
G37*
G36*
X1637030D02*
X1636101D01*
X1631757Y1635252D01*
X1627575Y1633893D01*
X1623656Y1631896D01*
X1620098Y1629311D01*
X1616989Y1626202D01*
X1614404Y1622644D01*
X1612407Y1618725D01*
X1611048Y1614543D01*
X1610555Y1611430D01*
X1609258Y1611362D01*
X1609164Y1611713D01*
X1607898Y1613907D01*
X1606107Y1615698D01*
X1603913Y1616964D01*
X1601467Y1617620D01*
X1598934D01*
X1596487Y1616964D01*
X1594293Y1615698D01*
X1592502Y1613907D01*
X1591236Y1611713D01*
X1590580Y1609267D01*
Y1606734D01*
X1591236Y1604287D01*
X1592502Y1602093D01*
X1594293Y1600302D01*
X1596487Y1599036D01*
X1598934Y1598380D01*
X1601467D01*
X1603913Y1599036D01*
X1606107Y1600302D01*
X1607898Y1602093D01*
X1609164Y1604287D01*
X1609258Y1604638D01*
X1610555Y1604570D01*
X1611048Y1601457D01*
X1612407Y1597275D01*
X1614404Y1593356D01*
X1616989Y1589798D01*
X1620098Y1586689D01*
X1623656Y1584104D01*
X1627575Y1582107D01*
X1631757Y1580748D01*
X1636101Y1580060D01*
X1637030D01*
Y1608000D01*
Y1635940D01*
D02*
G37*
G36*
X2389799D02*
X2388870D01*
Y1609270D01*
X2415540D01*
Y1610199D01*
X2414852Y1614543D01*
X2413493Y1618725D01*
X2411496Y1622644D01*
X2408911Y1626202D01*
X2405802Y1629311D01*
X2402244Y1631896D01*
X2398325Y1633893D01*
X2394143Y1635252D01*
X2389799Y1635940D01*
D02*
G37*
G36*
X2277110Y1623161D02*
Y1609270D01*
X2286088D01*
Y1613080D01*
X2285739Y1615732D01*
X2284715Y1618204D01*
X2283086Y1620326D01*
X2280964Y1621955D01*
X2278492Y1622979D01*
X2277110Y1623161D01*
D02*
G37*
G36*
X2274570D02*
X2273188Y1622979D01*
X2270716Y1621955D01*
X2268594Y1620326D01*
X2266965Y1618204D01*
X2265941Y1615732D01*
X2265592Y1613080D01*
Y1609270D01*
X2274570D01*
Y1623161D01*
D02*
G37*
G36*
X1576066Y1617620D02*
X1573533D01*
X1571087Y1616964D01*
X1568893Y1615698D01*
X1567102Y1613907D01*
X1565836Y1611713D01*
X1565180Y1609267D01*
Y1606734D01*
X1565836Y1604287D01*
X1567102Y1602093D01*
X1568893Y1600302D01*
X1571087Y1599036D01*
X1573533Y1598380D01*
X1576066D01*
X1578513Y1599036D01*
X1580707Y1600302D01*
X1582498Y1602093D01*
X1583764Y1604287D01*
X1584420Y1606734D01*
Y1609267D01*
X1583764Y1611713D01*
X1582498Y1613907D01*
X1580707Y1615698D01*
X1578513Y1616964D01*
X1576066Y1617620D01*
D02*
G37*
G36*
X2326640Y1622783D02*
X2324129Y1622452D01*
X2321788Y1621483D01*
X2319779Y1619941D01*
X2318237Y1617932D01*
X2317268Y1615591D01*
X2316937Y1613080D01*
Y1602920D01*
X2317268Y1600409D01*
X2318237Y1598069D01*
X2319779Y1596059D01*
X2321788Y1594517D01*
X2324129Y1593548D01*
X2326640Y1593217D01*
X2329151Y1593548D01*
X2331492Y1594517D01*
X2333501Y1596059D01*
X2335043Y1598069D01*
X2336012Y1600409D01*
X2336343Y1602920D01*
Y1613080D01*
X2336012Y1615591D01*
X2335043Y1617932D01*
X2333501Y1619941D01*
X2331492Y1621483D01*
X2329151Y1622452D01*
X2326640Y1622783D01*
D02*
G37*
G36*
X2301240D02*
X2298729Y1622452D01*
X2296389Y1621483D01*
X2294379Y1619941D01*
X2292837Y1617932D01*
X2291868Y1615591D01*
X2291537Y1613080D01*
Y1602920D01*
X2291868Y1600409D01*
X2292837Y1598069D01*
X2294379Y1596059D01*
X2296389Y1594517D01*
X2298729Y1593548D01*
X2301240Y1593217D01*
X2303751Y1593548D01*
X2306091Y1594517D01*
X2308101Y1596059D01*
X2309643Y1598069D01*
X2310612Y1600409D01*
X2310943Y1602920D01*
Y1613080D01*
X2310612Y1615591D01*
X2309643Y1617932D01*
X2308101Y1619941D01*
X2306091Y1621483D01*
X2303751Y1622452D01*
X2301240Y1622783D01*
D02*
G37*
G36*
X2250440D02*
X2247929Y1622452D01*
X2245589Y1621483D01*
X2243579Y1619941D01*
X2242037Y1617932D01*
X2241068Y1615591D01*
X2240737Y1613080D01*
Y1602920D01*
X2241068Y1600409D01*
X2242037Y1598069D01*
X2243579Y1596059D01*
X2245589Y1594517D01*
X2247929Y1593548D01*
X2250440Y1593217D01*
X2252951Y1593548D01*
X2255291Y1594517D01*
X2257301Y1596059D01*
X2258843Y1598069D01*
X2259812Y1600409D01*
X2260143Y1602920D01*
Y1613080D01*
X2259812Y1615591D01*
X2258843Y1617932D01*
X2257301Y1619941D01*
X2255291Y1621483D01*
X2252951Y1622452D01*
X2250440Y1622783D01*
D02*
G37*
G36*
X2225040D02*
X2222529Y1622452D01*
X2220188Y1621483D01*
X2218179Y1619941D01*
X2216637Y1617932D01*
X2215668Y1615591D01*
X2215337Y1613080D01*
Y1602920D01*
X2215668Y1600409D01*
X2216637Y1598069D01*
X2218179Y1596059D01*
X2220188Y1594517D01*
X2222529Y1593548D01*
X2225040Y1593217D01*
X2227551Y1593548D01*
X2229892Y1594517D01*
X2231901Y1596059D01*
X2233443Y1598069D01*
X2234412Y1600409D01*
X2234743Y1602920D01*
Y1613080D01*
X2234412Y1615591D01*
X2233443Y1617932D01*
X2231901Y1619941D01*
X2229892Y1621483D01*
X2227551Y1622452D01*
X2225040Y1622783D01*
D02*
G37*
G36*
X2199640D02*
X2197129Y1622452D01*
X2194789Y1621483D01*
X2192779Y1619941D01*
X2191237Y1617932D01*
X2190268Y1615591D01*
X2189937Y1613080D01*
Y1602920D01*
X2190268Y1600409D01*
X2191237Y1598069D01*
X2192779Y1596059D01*
X2194789Y1594517D01*
X2197129Y1593548D01*
X2199640Y1593217D01*
X2202151Y1593548D01*
X2204491Y1594517D01*
X2206501Y1596059D01*
X2208043Y1598069D01*
X2209012Y1600409D01*
X2209343Y1602920D01*
Y1613080D01*
X2209012Y1615591D01*
X2208043Y1617932D01*
X2206501Y1619941D01*
X2204491Y1621483D01*
X2202151Y1622452D01*
X2199640Y1622783D01*
D02*
G37*
G36*
X2174240D02*
X2171729Y1622452D01*
X2169388Y1621483D01*
X2167379Y1619941D01*
X2165837Y1617932D01*
X2164868Y1615591D01*
X2164537Y1613080D01*
Y1602920D01*
X2164868Y1600409D01*
X2165837Y1598069D01*
X2167379Y1596059D01*
X2169388Y1594517D01*
X2171729Y1593548D01*
X2174240Y1593217D01*
X2176751Y1593548D01*
X2179091Y1594517D01*
X2181101Y1596059D01*
X2182643Y1598069D01*
X2183612Y1600409D01*
X2183943Y1602920D01*
Y1613080D01*
X2183612Y1615591D01*
X2182643Y1617932D01*
X2181101Y1619941D01*
X2179091Y1621483D01*
X2176751Y1622452D01*
X2174240Y1622783D01*
D02*
G37*
G36*
X2148840D02*
X2146329Y1622452D01*
X2143988Y1621483D01*
X2141979Y1619941D01*
X2140437Y1617932D01*
X2139468Y1615591D01*
X2139137Y1613080D01*
Y1602920D01*
X2139468Y1600409D01*
X2140437Y1598069D01*
X2141979Y1596059D01*
X2143988Y1594517D01*
X2146329Y1593548D01*
X2148840Y1593217D01*
X2151351Y1593548D01*
X2153692Y1594517D01*
X2155701Y1596059D01*
X2157243Y1598069D01*
X2158212Y1600409D01*
X2158543Y1602920D01*
Y1613080D01*
X2158212Y1615591D01*
X2157243Y1617932D01*
X2155701Y1619941D01*
X2153692Y1621483D01*
X2151351Y1622452D01*
X2148840Y1622783D01*
D02*
G37*
G36*
X2123440D02*
X2120929Y1622452D01*
X2118589Y1621483D01*
X2116579Y1619941D01*
X2115037Y1617932D01*
X2114068Y1615591D01*
X2113737Y1613080D01*
Y1602920D01*
X2114068Y1600409D01*
X2115037Y1598069D01*
X2116579Y1596059D01*
X2118589Y1594517D01*
X2120929Y1593548D01*
X2123440Y1593217D01*
X2125951Y1593548D01*
X2128291Y1594517D01*
X2130301Y1596059D01*
X2131843Y1598069D01*
X2132812Y1600409D01*
X2133143Y1602920D01*
Y1613080D01*
X2132812Y1615591D01*
X2131843Y1617932D01*
X2130301Y1619941D01*
X2128291Y1621483D01*
X2125951Y1622452D01*
X2123440Y1622783D01*
D02*
G37*
G36*
X2082800D02*
X2080289Y1622452D01*
X2077948Y1621483D01*
X2075939Y1619941D01*
X2074397Y1617932D01*
X2073428Y1615591D01*
X2073097Y1613080D01*
Y1602920D01*
X2073428Y1600409D01*
X2074397Y1598069D01*
X2075939Y1596059D01*
X2077948Y1594517D01*
X2080289Y1593548D01*
X2082800Y1593217D01*
X2085311Y1593548D01*
X2087652Y1594517D01*
X2089661Y1596059D01*
X2091203Y1598069D01*
X2092172Y1600409D01*
X2092503Y1602920D01*
Y1613080D01*
X2092172Y1615591D01*
X2091203Y1617932D01*
X2089661Y1619941D01*
X2087652Y1621483D01*
X2085311Y1622452D01*
X2082800Y1622783D01*
D02*
G37*
G36*
X2057400D02*
X2054889Y1622452D01*
X2052549Y1621483D01*
X2050539Y1619941D01*
X2048997Y1617932D01*
X2048028Y1615591D01*
X2047697Y1613080D01*
Y1602920D01*
X2048028Y1600409D01*
X2048997Y1598069D01*
X2050539Y1596059D01*
X2052549Y1594517D01*
X2054889Y1593548D01*
X2057400Y1593217D01*
X2059911Y1593548D01*
X2062251Y1594517D01*
X2064261Y1596059D01*
X2065803Y1598069D01*
X2066772Y1600409D01*
X2067103Y1602920D01*
Y1613080D01*
X2066772Y1615591D01*
X2065803Y1617932D01*
X2064261Y1619941D01*
X2062251Y1621483D01*
X2059911Y1622452D01*
X2057400Y1622783D01*
D02*
G37*
G36*
X2032000D02*
X2029489Y1622452D01*
X2027148Y1621483D01*
X2025139Y1619941D01*
X2023597Y1617932D01*
X2022628Y1615591D01*
X2022297Y1613080D01*
Y1602920D01*
X2022628Y1600409D01*
X2023597Y1598069D01*
X2025139Y1596059D01*
X2027148Y1594517D01*
X2029489Y1593548D01*
X2032000Y1593217D01*
X2034511Y1593548D01*
X2036852Y1594517D01*
X2038861Y1596059D01*
X2040403Y1598069D01*
X2041372Y1600409D01*
X2041703Y1602920D01*
Y1613080D01*
X2041372Y1615591D01*
X2040403Y1617932D01*
X2038861Y1619941D01*
X2036852Y1621483D01*
X2034511Y1622452D01*
X2032000Y1622783D01*
D02*
G37*
G36*
X2006600D02*
X2004089Y1622452D01*
X2001749Y1621483D01*
X1999739Y1619941D01*
X1998197Y1617932D01*
X1997228Y1615591D01*
X1996897Y1613080D01*
Y1602920D01*
X1997228Y1600409D01*
X1998197Y1598069D01*
X1999739Y1596059D01*
X2001749Y1594517D01*
X2004089Y1593548D01*
X2006600Y1593217D01*
X2009111Y1593548D01*
X2011452Y1594517D01*
X2013461Y1596059D01*
X2015003Y1598069D01*
X2015972Y1600409D01*
X2016303Y1602920D01*
Y1613080D01*
X2015972Y1615591D01*
X2015003Y1617932D01*
X2013461Y1619941D01*
X2011452Y1621483D01*
X2009111Y1622452D01*
X2006600Y1622783D01*
D02*
G37*
G36*
X1981200D02*
X1978689Y1622452D01*
X1976349Y1621483D01*
X1974339Y1619941D01*
X1972797Y1617932D01*
X1971828Y1615591D01*
X1971497Y1613080D01*
Y1602920D01*
X1971828Y1600409D01*
X1972797Y1598069D01*
X1974339Y1596059D01*
X1976349Y1594517D01*
X1978689Y1593548D01*
X1981200Y1593217D01*
X1983711Y1593548D01*
X1986051Y1594517D01*
X1988061Y1596059D01*
X1989603Y1598069D01*
X1990572Y1600409D01*
X1990903Y1602920D01*
Y1613080D01*
X1990572Y1615591D01*
X1989603Y1617932D01*
X1988061Y1619941D01*
X1986051Y1621483D01*
X1983711Y1622452D01*
X1981200Y1622783D01*
D02*
G37*
G36*
X1955800D02*
X1953289Y1622452D01*
X1950948Y1621483D01*
X1948939Y1619941D01*
X1947397Y1617932D01*
X1946428Y1615591D01*
X1946097Y1613080D01*
Y1602920D01*
X1946428Y1600409D01*
X1947397Y1598069D01*
X1948939Y1596059D01*
X1950948Y1594517D01*
X1953289Y1593548D01*
X1955800Y1593217D01*
X1958311Y1593548D01*
X1960652Y1594517D01*
X1962661Y1596059D01*
X1964203Y1598069D01*
X1965172Y1600409D01*
X1965503Y1602920D01*
Y1613080D01*
X1965172Y1615591D01*
X1964203Y1617932D01*
X1962661Y1619941D01*
X1960652Y1621483D01*
X1958311Y1622452D01*
X1955800Y1622783D01*
D02*
G37*
G36*
X1930400D02*
X1927889Y1622452D01*
X1925549Y1621483D01*
X1923539Y1619941D01*
X1921997Y1617932D01*
X1921028Y1615591D01*
X1920697Y1613080D01*
Y1602920D01*
X1921028Y1600409D01*
X1921997Y1598069D01*
X1923539Y1596059D01*
X1925549Y1594517D01*
X1927889Y1593548D01*
X1930400Y1593217D01*
X1932911Y1593548D01*
X1935251Y1594517D01*
X1937261Y1596059D01*
X1938803Y1598069D01*
X1939772Y1600409D01*
X1940103Y1602920D01*
Y1613080D01*
X1939772Y1615591D01*
X1938803Y1617932D01*
X1937261Y1619941D01*
X1935251Y1621483D01*
X1932911Y1622452D01*
X1930400Y1622783D01*
D02*
G37*
G36*
X1905000D02*
X1902489Y1622452D01*
X1900148Y1621483D01*
X1898139Y1619941D01*
X1896597Y1617932D01*
X1895628Y1615591D01*
X1895297Y1613080D01*
Y1602920D01*
X1895628Y1600409D01*
X1896597Y1598069D01*
X1898139Y1596059D01*
X1900148Y1594517D01*
X1902489Y1593548D01*
X1905000Y1593217D01*
X1907511Y1593548D01*
X1909852Y1594517D01*
X1911861Y1596059D01*
X1913403Y1598069D01*
X1914372Y1600409D01*
X1914703Y1602920D01*
Y1613080D01*
X1914372Y1615591D01*
X1913403Y1617932D01*
X1911861Y1619941D01*
X1909852Y1621483D01*
X1907511Y1622452D01*
X1905000Y1622783D01*
D02*
G37*
G36*
X1854200D02*
X1851689Y1622452D01*
X1849348Y1621483D01*
X1847339Y1619941D01*
X1845797Y1617932D01*
X1844828Y1615591D01*
X1844497Y1613080D01*
Y1602920D01*
X1844828Y1600409D01*
X1845797Y1598069D01*
X1847339Y1596059D01*
X1849348Y1594517D01*
X1851689Y1593548D01*
X1854200Y1593217D01*
X1856711Y1593548D01*
X1859052Y1594517D01*
X1861061Y1596059D01*
X1862603Y1598069D01*
X1863572Y1600409D01*
X1863903Y1602920D01*
Y1613080D01*
X1863572Y1615591D01*
X1862603Y1617932D01*
X1861061Y1619941D01*
X1859052Y1621483D01*
X1856711Y1622452D01*
X1854200Y1622783D01*
D02*
G37*
G36*
X1828800D02*
X1826289Y1622452D01*
X1823949Y1621483D01*
X1821939Y1619941D01*
X1820397Y1617932D01*
X1819428Y1615591D01*
X1819097Y1613080D01*
Y1602920D01*
X1819428Y1600409D01*
X1820397Y1598069D01*
X1821939Y1596059D01*
X1823949Y1594517D01*
X1826289Y1593548D01*
X1828800Y1593217D01*
X1831311Y1593548D01*
X1833651Y1594517D01*
X1835661Y1596059D01*
X1837203Y1598069D01*
X1838172Y1600409D01*
X1838503Y1602920D01*
Y1613080D01*
X1838172Y1615591D01*
X1837203Y1617932D01*
X1835661Y1619941D01*
X1833651Y1621483D01*
X1831311Y1622452D01*
X1828800Y1622783D01*
D02*
G37*
G36*
X1803400D02*
X1800889Y1622452D01*
X1798548Y1621483D01*
X1796539Y1619941D01*
X1794997Y1617932D01*
X1794028Y1615591D01*
X1793697Y1613080D01*
Y1602920D01*
X1794028Y1600409D01*
X1794997Y1598069D01*
X1796539Y1596059D01*
X1798548Y1594517D01*
X1800889Y1593548D01*
X1803400Y1593217D01*
X1805911Y1593548D01*
X1808251Y1594517D01*
X1810261Y1596059D01*
X1811803Y1598069D01*
X1812772Y1600409D01*
X1813103Y1602920D01*
Y1613080D01*
X1812772Y1615591D01*
X1811803Y1617932D01*
X1810261Y1619941D01*
X1808251Y1621483D01*
X1805911Y1622452D01*
X1803400Y1622783D01*
D02*
G37*
G36*
X1778000D02*
X1775489Y1622452D01*
X1773148Y1621483D01*
X1771139Y1619941D01*
X1769597Y1617932D01*
X1768628Y1615591D01*
X1768297Y1613080D01*
Y1602920D01*
X1768628Y1600409D01*
X1769597Y1598069D01*
X1771139Y1596059D01*
X1773148Y1594517D01*
X1775489Y1593548D01*
X1778000Y1593217D01*
X1780511Y1593548D01*
X1782852Y1594517D01*
X1784861Y1596059D01*
X1786403Y1598069D01*
X1787372Y1600409D01*
X1787703Y1602920D01*
Y1613080D01*
X1787372Y1615591D01*
X1786403Y1617932D01*
X1784861Y1619941D01*
X1782852Y1621483D01*
X1780511Y1622452D01*
X1778000Y1622783D01*
D02*
G37*
G36*
X1752600D02*
X1750089Y1622452D01*
X1747749Y1621483D01*
X1745739Y1619941D01*
X1744197Y1617932D01*
X1743228Y1615591D01*
X1742897Y1613080D01*
Y1602920D01*
X1743228Y1600409D01*
X1744197Y1598069D01*
X1745739Y1596059D01*
X1747749Y1594517D01*
X1750089Y1593548D01*
X1752600Y1593217D01*
X1755111Y1593548D01*
X1757451Y1594517D01*
X1759461Y1596059D01*
X1761003Y1598069D01*
X1761972Y1600409D01*
X1762303Y1602920D01*
Y1613080D01*
X1761972Y1615591D01*
X1761003Y1617932D01*
X1759461Y1619941D01*
X1757451Y1621483D01*
X1755111Y1622452D01*
X1752600Y1622783D01*
D02*
G37*
G36*
X1727200D02*
X1724689Y1622452D01*
X1722348Y1621483D01*
X1720339Y1619941D01*
X1718797Y1617932D01*
X1717828Y1615591D01*
X1717497Y1613080D01*
Y1602920D01*
X1717828Y1600409D01*
X1718797Y1598069D01*
X1720339Y1596059D01*
X1722348Y1594517D01*
X1724689Y1593548D01*
X1727200Y1593217D01*
X1729711Y1593548D01*
X1732052Y1594517D01*
X1734061Y1596059D01*
X1735603Y1598069D01*
X1736572Y1600409D01*
X1736903Y1602920D01*
Y1613080D01*
X1736572Y1615591D01*
X1735603Y1617932D01*
X1734061Y1619941D01*
X1732052Y1621483D01*
X1729711Y1622452D01*
X1727200Y1622783D01*
D02*
G37*
G36*
X1701800D02*
X1699289Y1622452D01*
X1696949Y1621483D01*
X1694939Y1619941D01*
X1693397Y1617932D01*
X1692428Y1615591D01*
X1692097Y1613080D01*
Y1602920D01*
X1692428Y1600409D01*
X1693397Y1598069D01*
X1694939Y1596059D01*
X1696949Y1594517D01*
X1699289Y1593548D01*
X1701800Y1593217D01*
X1704311Y1593548D01*
X1706651Y1594517D01*
X1708661Y1596059D01*
X1710203Y1598069D01*
X1711172Y1600409D01*
X1711503Y1602920D01*
Y1613080D01*
X1711172Y1615591D01*
X1710203Y1617932D01*
X1708661Y1619941D01*
X1706651Y1621483D01*
X1704311Y1622452D01*
X1701800Y1622783D01*
D02*
G37*
G36*
X1640499Y1635940D02*
X1639570D01*
Y1608000D01*
Y1580060D01*
X1640499D01*
X1644843Y1580748D01*
X1649025Y1582107D01*
X1652944Y1584104D01*
X1656502Y1586689D01*
X1659611Y1589798D01*
X1662196Y1593356D01*
X1664193Y1597275D01*
X1665552Y1601457D01*
X1665583Y1601652D01*
X1666866Y1601636D01*
X1667028Y1600409D01*
X1667997Y1598069D01*
X1669539Y1596059D01*
X1671548Y1594517D01*
X1673889Y1593548D01*
X1676400Y1593217D01*
X1678911Y1593548D01*
X1681252Y1594517D01*
X1683261Y1596059D01*
X1684803Y1598069D01*
X1685772Y1600409D01*
X1686103Y1602920D01*
Y1613080D01*
X1685772Y1615591D01*
X1684803Y1617932D01*
X1683261Y1619941D01*
X1681252Y1621483D01*
X1678911Y1622452D01*
X1676400Y1622783D01*
X1673889Y1622452D01*
X1671548Y1621483D01*
X1669539Y1619941D01*
X1667997Y1617932D01*
X1667028Y1615591D01*
X1666866Y1614364D01*
X1665583Y1614348D01*
X1665552Y1614543D01*
X1664193Y1618725D01*
X1662196Y1622644D01*
X1659611Y1626202D01*
X1656502Y1629311D01*
X1652944Y1631896D01*
X1649025Y1633893D01*
X1644843Y1635252D01*
X1640499Y1635940D01*
D02*
G37*
G36*
X228922Y1782000D02*
X227078D01*
X225298Y1781523D01*
X223702Y1780601D01*
X222399Y1779298D01*
X221477Y1777702D01*
X221000Y1775922D01*
Y1774078D01*
X221477Y1772298D01*
X222399Y1770702D01*
X223412Y1769689D01*
Y1605311D01*
X222399Y1604298D01*
X221477Y1602702D01*
X221000Y1600922D01*
Y1599078D01*
X221477Y1597298D01*
X222399Y1595702D01*
X223702Y1594399D01*
X225298Y1593477D01*
X227078Y1593000D01*
X228922D01*
X230702Y1593477D01*
X232298Y1594399D01*
X233601Y1595702D01*
X234523Y1597298D01*
X235000Y1599078D01*
Y1600922D01*
X234523Y1602702D01*
X233601Y1604298D01*
X232588Y1605311D01*
Y1769689D01*
X233601Y1770702D01*
X234523Y1772298D01*
X235000Y1774078D01*
Y1775922D01*
X234523Y1777702D01*
X233601Y1779298D01*
X232298Y1780601D01*
X230702Y1781523D01*
X228922Y1782000D01*
D02*
G37*
G36*
X2286088Y1606730D02*
X2277110D01*
Y1592840D01*
X2278492Y1593022D01*
X2280964Y1594045D01*
X2283086Y1595674D01*
X2284715Y1597796D01*
X2285739Y1600268D01*
X2286088Y1602920D01*
Y1606730D01*
D02*
G37*
G36*
X2274570D02*
X2265592D01*
Y1602920D01*
X2265941Y1600268D01*
X2266965Y1597796D01*
X2268594Y1595674D01*
X2270716Y1594045D01*
X2273188Y1593022D01*
X2274570Y1592840D01*
Y1606730D01*
D02*
G37*
G36*
X184016Y1610000D02*
X181383D01*
X178840Y1609319D01*
X176560Y1608002D01*
X174698Y1606140D01*
X173382Y1603860D01*
X172700Y1601317D01*
Y1598683D01*
X173382Y1596140D01*
X174698Y1593860D01*
X176560Y1591998D01*
X178840Y1590681D01*
X181383Y1590000D01*
X184016D01*
X186560Y1590681D01*
X188840Y1591998D01*
X190702Y1593860D01*
X192019Y1596140D01*
X192700Y1598683D01*
Y1601317D01*
X192019Y1603860D01*
X190702Y1606140D01*
X188840Y1608002D01*
X186560Y1609319D01*
X184016Y1610000D01*
D02*
G37*
G36*
X158617D02*
X155983D01*
X153440Y1609319D01*
X151160Y1608002D01*
X149298Y1606140D01*
X147982Y1603860D01*
X147300Y1601317D01*
Y1598683D01*
X147982Y1596140D01*
X149298Y1593860D01*
X151160Y1591998D01*
X153440Y1590681D01*
X155983Y1590000D01*
X158617D01*
X161160Y1590681D01*
X163440Y1591998D01*
X165302Y1593860D01*
X166618Y1596140D01*
X167300Y1598683D01*
Y1601317D01*
X166618Y1603860D01*
X165302Y1606140D01*
X163440Y1608002D01*
X161160Y1609319D01*
X158617Y1610000D01*
D02*
G37*
G36*
X2415540Y1606730D02*
X2388870D01*
Y1580060D01*
X2389799D01*
X2394143Y1580748D01*
X2398325Y1582107D01*
X2402244Y1584104D01*
X2405802Y1586689D01*
X2408911Y1589798D01*
X2411496Y1593356D01*
X2413493Y1597275D01*
X2414852Y1601457D01*
X2415540Y1605801D01*
Y1606730D01*
D02*
G37*
G36*
X1601467Y1592220D02*
X1598934D01*
X1596487Y1591564D01*
X1594293Y1590298D01*
X1592502Y1588507D01*
X1591236Y1586313D01*
X1590580Y1583866D01*
Y1581333D01*
X1591236Y1578887D01*
X1592502Y1576693D01*
X1594293Y1574902D01*
X1596487Y1573636D01*
X1598934Y1572980D01*
X1601467D01*
X1603913Y1573636D01*
X1606107Y1574902D01*
X1607898Y1576693D01*
X1609164Y1578887D01*
X1609820Y1581333D01*
Y1583866D01*
X1609164Y1586313D01*
X1607898Y1588507D01*
X1606107Y1590298D01*
X1603913Y1591564D01*
X1601467Y1592220D01*
D02*
G37*
G36*
X1576066D02*
X1573533D01*
X1571087Y1591564D01*
X1568893Y1590298D01*
X1567102Y1588507D01*
X1565836Y1586313D01*
X1565180Y1583866D01*
Y1581333D01*
X1565836Y1578887D01*
X1567102Y1576693D01*
X1568893Y1574902D01*
X1571087Y1573636D01*
X1573533Y1572980D01*
X1576066D01*
X1578513Y1573636D01*
X1580707Y1574902D01*
X1582498Y1576693D01*
X1583764Y1578887D01*
X1584420Y1581333D01*
Y1583866D01*
X1583764Y1586313D01*
X1582498Y1588507D01*
X1580707Y1590298D01*
X1578513Y1591564D01*
X1576066Y1592220D01*
D02*
G37*
G36*
X409044Y1609520D02*
X406955D01*
X405026Y1608721D01*
X403549Y1607244D01*
X402750Y1605314D01*
Y1603226D01*
X403549Y1601296D01*
X405026Y1599819D01*
X406955Y1599020D01*
X409044D01*
X410974Y1599819D01*
X412090Y1600936D01*
X435619D01*
X459750Y1576805D01*
Y1575226D01*
X460549Y1573296D01*
X462026Y1571819D01*
X463955Y1571020D01*
X466044D01*
X467974Y1571819D01*
X469450Y1573296D01*
X470250Y1575226D01*
Y1577314D01*
X469450Y1579244D01*
X467974Y1580721D01*
X466044Y1581520D01*
X464465D01*
X439357Y1606628D01*
X438276Y1607350D01*
X437000Y1607604D01*
X412090D01*
X410974Y1608721D01*
X409044Y1609520D01*
D02*
G37*
G36*
X1601467Y1566820D02*
X1598934D01*
X1596487Y1566164D01*
X1594293Y1564898D01*
X1592502Y1563107D01*
X1591236Y1560913D01*
X1590580Y1558466D01*
Y1555934D01*
X1591236Y1553487D01*
X1592502Y1551293D01*
X1594293Y1549502D01*
X1596487Y1548236D01*
X1598934Y1547580D01*
X1601467D01*
X1603913Y1548236D01*
X1606107Y1549502D01*
X1607898Y1551293D01*
X1609164Y1553487D01*
X1609820Y1555934D01*
Y1558466D01*
X1609164Y1560913D01*
X1607898Y1563107D01*
X1606107Y1564898D01*
X1603913Y1566164D01*
X1601467Y1566820D01*
D02*
G37*
G36*
X1576066D02*
X1573533D01*
X1571087Y1566164D01*
X1568893Y1564898D01*
X1567102Y1563107D01*
X1565836Y1560913D01*
X1565180Y1558466D01*
Y1555934D01*
X1565836Y1553487D01*
X1567102Y1551293D01*
X1568893Y1549502D01*
X1571087Y1548236D01*
X1573533Y1547580D01*
X1576066D01*
X1578513Y1548236D01*
X1580707Y1549502D01*
X1582498Y1551293D01*
X1583764Y1553487D01*
X1584420Y1555934D01*
Y1558466D01*
X1583764Y1560913D01*
X1582498Y1563107D01*
X1580707Y1564898D01*
X1578513Y1566164D01*
X1576066Y1566820D01*
D02*
G37*
G36*
X2288922Y1547000D02*
X2287078D01*
X2285298Y1546523D01*
X2283702Y1545601D01*
X2282689Y1544588D01*
X2039311D01*
X2038298Y1545601D01*
X2036702Y1546523D01*
X2034922Y1547000D01*
X2033078D01*
X2031298Y1546523D01*
X2029702Y1545601D01*
X2028399Y1544298D01*
X2027477Y1542702D01*
X2027000Y1540922D01*
Y1539078D01*
X2027477Y1537298D01*
X2028399Y1535702D01*
X2029702Y1534399D01*
X2031298Y1533477D01*
X2033078Y1533000D01*
X2034922D01*
X2036702Y1533477D01*
X2038298Y1534399D01*
X2039311Y1535412D01*
X2282689D01*
X2283702Y1534399D01*
X2285298Y1533477D01*
X2287078Y1533000D01*
X2288922D01*
X2290702Y1533477D01*
X2292298Y1534399D01*
X2293601Y1535702D01*
X2294523Y1537298D01*
X2295000Y1539078D01*
Y1540922D01*
X2294523Y1542702D01*
X2293601Y1544298D01*
X2292298Y1545601D01*
X2290702Y1546523D01*
X2288922Y1547000D01*
D02*
G37*
G36*
X1601467Y1541420D02*
X1598934D01*
X1596487Y1540764D01*
X1594293Y1539498D01*
X1592502Y1537707D01*
X1591236Y1535513D01*
X1590580Y1533067D01*
Y1530533D01*
X1591236Y1528087D01*
X1592502Y1525893D01*
X1594293Y1524102D01*
X1596487Y1522836D01*
X1598934Y1522180D01*
X1601467D01*
X1603913Y1522836D01*
X1606107Y1524102D01*
X1607898Y1525893D01*
X1609164Y1528087D01*
X1609820Y1530533D01*
Y1533067D01*
X1609164Y1535513D01*
X1607898Y1537707D01*
X1606107Y1539498D01*
X1603913Y1540764D01*
X1601467Y1541420D01*
D02*
G37*
G36*
X1576066D02*
X1573533D01*
X1571087Y1540764D01*
X1568893Y1539498D01*
X1567102Y1537707D01*
X1565836Y1535513D01*
X1565180Y1533067D01*
Y1530533D01*
X1565836Y1528087D01*
X1567102Y1525893D01*
X1568893Y1524102D01*
X1571087Y1522836D01*
X1573533Y1522180D01*
X1576066D01*
X1578513Y1522836D01*
X1580707Y1524102D01*
X1582498Y1525893D01*
X1583764Y1528087D01*
X1584420Y1530533D01*
Y1533067D01*
X1583764Y1535513D01*
X1582498Y1537707D01*
X1580707Y1539498D01*
X1578513Y1540764D01*
X1576066Y1541420D01*
D02*
G37*
G36*
X481044Y1666520D02*
X478955D01*
X477026Y1665721D01*
X475549Y1664244D01*
X474750Y1662314D01*
Y1660226D01*
X475549Y1658296D01*
X476666Y1657179D01*
Y1532270D01*
X476920Y1530994D01*
X477642Y1529913D01*
X482750Y1524805D01*
Y1523226D01*
X483549Y1521296D01*
X485026Y1519819D01*
X486955Y1519020D01*
X489044D01*
X490974Y1519819D01*
X492450Y1521296D01*
X493250Y1523226D01*
Y1525314D01*
X492450Y1527244D01*
X490974Y1528721D01*
X489044Y1529520D01*
X487465D01*
X483334Y1533651D01*
Y1657179D01*
X484450Y1658296D01*
X485250Y1660226D01*
Y1662314D01*
X484450Y1664244D01*
X482974Y1665721D01*
X481044Y1666520D01*
D02*
G37*
G36*
X1601467Y1516020D02*
X1598934D01*
X1596487Y1515364D01*
X1594293Y1514098D01*
X1592502Y1512307D01*
X1591236Y1510113D01*
X1590580Y1507666D01*
Y1505134D01*
X1591236Y1502687D01*
X1592502Y1500493D01*
X1594293Y1498702D01*
X1596487Y1497436D01*
X1598934Y1496780D01*
X1601467D01*
X1603913Y1497436D01*
X1606107Y1498702D01*
X1607898Y1500493D01*
X1609164Y1502687D01*
X1609820Y1505134D01*
Y1507666D01*
X1609164Y1510113D01*
X1607898Y1512307D01*
X1606107Y1514098D01*
X1603913Y1515364D01*
X1601467Y1516020D01*
D02*
G37*
G36*
X1576066D02*
X1573533D01*
X1571087Y1515364D01*
X1568893Y1514098D01*
X1567102Y1512307D01*
X1565836Y1510113D01*
X1565180Y1507666D01*
Y1505134D01*
X1565836Y1502687D01*
X1567102Y1500493D01*
X1568893Y1498702D01*
X1571087Y1497436D01*
X1573533Y1496780D01*
X1576066D01*
X1578513Y1497436D01*
X1580707Y1498702D01*
X1582498Y1500493D01*
X1583764Y1502687D01*
X1584420Y1505134D01*
Y1507666D01*
X1583764Y1510113D01*
X1582498Y1512307D01*
X1580707Y1514098D01*
X1578513Y1515364D01*
X1576066Y1516020D01*
D02*
G37*
G36*
X1601467Y1490620D02*
X1598934D01*
X1596487Y1489964D01*
X1594293Y1488698D01*
X1592502Y1486907D01*
X1591236Y1484713D01*
X1590580Y1482267D01*
Y1479733D01*
X1591236Y1477287D01*
X1592502Y1475093D01*
X1594293Y1473302D01*
X1596487Y1472036D01*
X1598934Y1471380D01*
X1601467D01*
X1603913Y1472036D01*
X1606107Y1473302D01*
X1607898Y1475093D01*
X1609164Y1477287D01*
X1609820Y1479733D01*
Y1482267D01*
X1609164Y1484713D01*
X1607898Y1486907D01*
X1606107Y1488698D01*
X1603913Y1489964D01*
X1601467Y1490620D01*
D02*
G37*
G36*
X1576066D02*
X1573533D01*
X1571087Y1489964D01*
X1568893Y1488698D01*
X1567102Y1486907D01*
X1565836Y1484713D01*
X1565180Y1482267D01*
Y1479733D01*
X1565836Y1477287D01*
X1567102Y1475093D01*
X1568893Y1473302D01*
X1571087Y1472036D01*
X1573533Y1471380D01*
X1576066D01*
X1578513Y1472036D01*
X1580707Y1473302D01*
X1582498Y1475093D01*
X1583764Y1477287D01*
X1584420Y1479733D01*
Y1482267D01*
X1583764Y1484713D01*
X1582498Y1486907D01*
X1580707Y1488698D01*
X1578513Y1489964D01*
X1576066Y1490620D01*
D02*
G37*
G36*
X1601467Y1465220D02*
X1598934D01*
X1596487Y1464564D01*
X1594293Y1463298D01*
X1592502Y1461507D01*
X1591236Y1459313D01*
X1590580Y1456866D01*
Y1454333D01*
X1591236Y1451887D01*
X1592502Y1449693D01*
X1594293Y1447902D01*
X1596487Y1446636D01*
X1598934Y1445980D01*
X1601467D01*
X1603913Y1446636D01*
X1606107Y1447902D01*
X1607898Y1449693D01*
X1609164Y1451887D01*
X1609820Y1454333D01*
Y1456866D01*
X1609164Y1459313D01*
X1607898Y1461507D01*
X1606107Y1463298D01*
X1603913Y1464564D01*
X1601467Y1465220D01*
D02*
G37*
G36*
X1576066D02*
X1573533D01*
X1571087Y1464564D01*
X1568893Y1463298D01*
X1567102Y1461507D01*
X1565836Y1459313D01*
X1565180Y1456866D01*
Y1454333D01*
X1565836Y1451887D01*
X1567102Y1449693D01*
X1568893Y1447902D01*
X1571087Y1446636D01*
X1573533Y1445980D01*
X1576066D01*
X1578513Y1446636D01*
X1580707Y1447902D01*
X1582498Y1449693D01*
X1583764Y1451887D01*
X1584420Y1454333D01*
Y1456866D01*
X1583764Y1459313D01*
X1582498Y1461507D01*
X1580707Y1463298D01*
X1578513Y1464564D01*
X1576066Y1465220D01*
D02*
G37*
G36*
X1601467Y1439820D02*
X1598934D01*
X1596487Y1439164D01*
X1594293Y1437898D01*
X1592502Y1436107D01*
X1591236Y1433913D01*
X1590580Y1431467D01*
Y1428934D01*
X1591236Y1426487D01*
X1592502Y1424293D01*
X1594293Y1422502D01*
X1596487Y1421236D01*
X1598934Y1420580D01*
X1601467D01*
X1603913Y1421236D01*
X1606107Y1422502D01*
X1607898Y1424293D01*
X1609164Y1426487D01*
X1609820Y1428934D01*
Y1431467D01*
X1609164Y1433913D01*
X1607898Y1436107D01*
X1606107Y1437898D01*
X1603913Y1439164D01*
X1601467Y1439820D01*
D02*
G37*
G36*
X1576066D02*
X1573533D01*
X1571087Y1439164D01*
X1568893Y1437898D01*
X1567102Y1436107D01*
X1565836Y1433913D01*
X1565180Y1431467D01*
Y1428934D01*
X1565836Y1426487D01*
X1567102Y1424293D01*
X1568893Y1422502D01*
X1571087Y1421236D01*
X1573533Y1420580D01*
X1576066D01*
X1578513Y1421236D01*
X1580707Y1422502D01*
X1582498Y1424293D01*
X1583764Y1426487D01*
X1584420Y1428934D01*
Y1431467D01*
X1583764Y1433913D01*
X1582498Y1436107D01*
X1580707Y1437898D01*
X1578513Y1439164D01*
X1576066Y1439820D01*
D02*
G37*
G36*
X1906266Y1434740D02*
X1903734D01*
X1901287Y1434084D01*
X1899093Y1432818D01*
X1897302Y1431027D01*
X1896036Y1428833D01*
X1895380Y1426387D01*
Y1423853D01*
X1896036Y1421407D01*
X1897302Y1419213D01*
X1899093Y1417422D01*
X1901287Y1416156D01*
X1903734Y1415500D01*
X1906266D01*
X1908713Y1416156D01*
X1910907Y1417422D01*
X1912698Y1419213D01*
X1913964Y1421407D01*
X1914620Y1423853D01*
Y1426387D01*
X1913964Y1428833D01*
X1912698Y1431027D01*
X1910907Y1432818D01*
X1908713Y1434084D01*
X1906266Y1434740D01*
D02*
G37*
G36*
X1880867D02*
X1878333D01*
X1875887Y1434084D01*
X1873693Y1432818D01*
X1871902Y1431027D01*
X1870636Y1428833D01*
X1869980Y1426387D01*
Y1423853D01*
X1870636Y1421407D01*
X1871902Y1419213D01*
X1873693Y1417422D01*
X1875887Y1416156D01*
X1878333Y1415500D01*
X1880867D01*
X1883313Y1416156D01*
X1885507Y1417422D01*
X1887298Y1419213D01*
X1888564Y1421407D01*
X1889220Y1423853D01*
Y1426387D01*
X1888564Y1428833D01*
X1887298Y1431027D01*
X1885507Y1432818D01*
X1883313Y1434084D01*
X1880867Y1434740D01*
D02*
G37*
G36*
X515000Y2697039D02*
X465000D01*
X464220Y2696884D01*
X463558Y2696442D01*
X463116Y2695780D01*
X462961Y2695000D01*
Y2690000D01*
Y2295000D01*
X463116Y2294220D01*
X463558Y2293558D01*
X672961Y2084155D01*
Y1635000D01*
X672961Y1635000D01*
X673116Y1634220D01*
X673558Y1633558D01*
X673558Y1633558D01*
X898558Y1408558D01*
X899220Y1408116D01*
X900000Y1407961D01*
X1090000D01*
X1090780Y1408116D01*
X1091442Y1408558D01*
X1091884Y1409220D01*
X1092039Y1410000D01*
Y1425000D01*
X1091884Y1425780D01*
X1091442Y1426442D01*
X1090780Y1426884D01*
X1090000Y1427039D01*
X1030845D01*
X757039Y1700845D01*
Y2130000D01*
X757039Y2130000D01*
X756884Y2130780D01*
X756442Y2131442D01*
X756442Y2131442D01*
X517039Y2370845D01*
Y2695000D01*
X516884Y2695780D01*
X516442Y2696442D01*
X515780Y2696884D01*
X515000Y2697039D01*
D02*
G37*
G36*
X790922Y1462040D02*
X789078D01*
X787298Y1461563D01*
X785702Y1460641D01*
X784399Y1459338D01*
X783477Y1457742D01*
X783000Y1455962D01*
Y1454118D01*
X783477Y1452338D01*
X784399Y1450742D01*
X785434Y1449706D01*
Y1420244D01*
X784444Y1419253D01*
X783522Y1417657D01*
X783045Y1415876D01*
Y1414033D01*
X783522Y1412253D01*
X784444Y1410657D01*
X785747Y1409354D01*
X787343Y1408432D01*
X789124Y1407955D01*
X790967D01*
X792747Y1408432D01*
X794343Y1409354D01*
X795647Y1410657D01*
X796568Y1412253D01*
X797045Y1414033D01*
Y1415876D01*
X796568Y1417657D01*
X795647Y1419253D01*
X794611Y1420289D01*
Y1449751D01*
X795601Y1450742D01*
X796523Y1452338D01*
X797000Y1454118D01*
Y1455962D01*
X796523Y1457742D01*
X795601Y1459338D01*
X794298Y1460641D01*
X792702Y1461563D01*
X790922Y1462040D01*
D02*
G37*
G36*
X1601467Y1414420D02*
X1598934D01*
X1596487Y1413764D01*
X1594293Y1412498D01*
X1592502Y1410707D01*
X1591236Y1408513D01*
X1590580Y1406066D01*
Y1403533D01*
X1591236Y1401087D01*
X1592502Y1398893D01*
X1594293Y1397102D01*
X1596487Y1395836D01*
X1598934Y1395180D01*
X1601467D01*
X1603913Y1395836D01*
X1606107Y1397102D01*
X1607898Y1398893D01*
X1609164Y1401087D01*
X1609820Y1403533D01*
Y1406066D01*
X1609164Y1408513D01*
X1607898Y1410707D01*
X1606107Y1412498D01*
X1603913Y1413764D01*
X1601467Y1414420D01*
D02*
G37*
G36*
X1576066D02*
X1573533D01*
X1571087Y1413764D01*
X1568893Y1412498D01*
X1567102Y1410707D01*
X1565836Y1408513D01*
X1565180Y1406066D01*
Y1403533D01*
X1565836Y1401087D01*
X1567102Y1398893D01*
X1568893Y1397102D01*
X1571087Y1395836D01*
X1573533Y1395180D01*
X1576066D01*
X1578513Y1395836D01*
X1580707Y1397102D01*
X1582498Y1398893D01*
X1583764Y1401087D01*
X1584420Y1403533D01*
Y1406066D01*
X1583764Y1408513D01*
X1582498Y1410707D01*
X1580707Y1412498D01*
X1578513Y1413764D01*
X1576066Y1414420D01*
D02*
G37*
G36*
X1906266Y1409340D02*
X1903734D01*
X1901287Y1408684D01*
X1899093Y1407418D01*
X1897302Y1405627D01*
X1896036Y1403433D01*
X1895380Y1400986D01*
Y1398454D01*
X1896036Y1396007D01*
X1897302Y1393813D01*
X1899093Y1392022D01*
X1901287Y1390756D01*
X1903734Y1390100D01*
X1906266D01*
X1908713Y1390756D01*
X1910907Y1392022D01*
X1912698Y1393813D01*
X1913964Y1396007D01*
X1914620Y1398454D01*
Y1400986D01*
X1913964Y1403433D01*
X1912698Y1405627D01*
X1910907Y1407418D01*
X1908713Y1408684D01*
X1906266Y1409340D01*
D02*
G37*
G36*
X1880867D02*
X1878333D01*
X1875887Y1408684D01*
X1873693Y1407418D01*
X1871902Y1405627D01*
X1870636Y1403433D01*
X1869980Y1400986D01*
Y1398454D01*
X1870636Y1396007D01*
X1871902Y1393813D01*
X1873693Y1392022D01*
X1875887Y1390756D01*
X1878333Y1390100D01*
X1880867D01*
X1883313Y1390756D01*
X1885507Y1392022D01*
X1887298Y1393813D01*
X1888564Y1396007D01*
X1889220Y1398454D01*
Y1400986D01*
X1888564Y1403433D01*
X1887298Y1405627D01*
X1885507Y1407418D01*
X1883313Y1408684D01*
X1880867Y1409340D01*
D02*
G37*
G36*
X1880938Y1384480D02*
X1880870D01*
Y1375590D01*
X1889760D01*
Y1375658D01*
X1889068Y1378242D01*
X1887730Y1380558D01*
X1885838Y1382450D01*
X1883522Y1383788D01*
X1880938Y1384480D01*
D02*
G37*
G36*
X1878330D02*
X1878262D01*
X1875678Y1383788D01*
X1873362Y1382450D01*
X1871470Y1380558D01*
X1870132Y1378242D01*
X1869440Y1375658D01*
Y1375590D01*
X1878330D01*
Y1384480D01*
D02*
G37*
G36*
X1601467Y1389020D02*
X1598934D01*
X1596487Y1388364D01*
X1594293Y1387098D01*
X1592502Y1385307D01*
X1591236Y1383113D01*
X1590580Y1380667D01*
Y1378134D01*
X1591236Y1375687D01*
X1592502Y1373493D01*
X1594293Y1371702D01*
X1596487Y1370436D01*
X1598934Y1369780D01*
X1601467D01*
X1603913Y1370436D01*
X1606107Y1371702D01*
X1607898Y1373493D01*
X1609164Y1375687D01*
X1609820Y1378134D01*
Y1380667D01*
X1609164Y1383113D01*
X1607898Y1385307D01*
X1606107Y1387098D01*
X1603913Y1388364D01*
X1601467Y1389020D01*
D02*
G37*
G36*
X1576066D02*
X1573533D01*
X1571087Y1388364D01*
X1568893Y1387098D01*
X1567102Y1385307D01*
X1565836Y1383113D01*
X1565180Y1380667D01*
Y1378134D01*
X1565836Y1375687D01*
X1567102Y1373493D01*
X1568893Y1371702D01*
X1571087Y1370436D01*
X1573533Y1369780D01*
X1576066D01*
X1578513Y1370436D01*
X1580707Y1371702D01*
X1582498Y1373493D01*
X1583764Y1375687D01*
X1584420Y1378134D01*
Y1380667D01*
X1583764Y1383113D01*
X1582498Y1385307D01*
X1580707Y1387098D01*
X1578513Y1388364D01*
X1576066Y1389020D01*
D02*
G37*
G36*
X1906266Y1383940D02*
X1903734D01*
X1901287Y1383284D01*
X1899093Y1382018D01*
X1897302Y1380227D01*
X1896036Y1378033D01*
X1895380Y1375587D01*
Y1373053D01*
X1896036Y1370607D01*
X1897302Y1368413D01*
X1899093Y1366622D01*
X1901287Y1365356D01*
X1903734Y1364700D01*
X1906266D01*
X1908713Y1365356D01*
X1910907Y1366622D01*
X1912698Y1368413D01*
X1913964Y1370607D01*
X1914620Y1373053D01*
Y1375587D01*
X1913964Y1378033D01*
X1912698Y1380227D01*
X1910907Y1382018D01*
X1908713Y1383284D01*
X1906266Y1383940D01*
D02*
G37*
G36*
X1889760Y1373050D02*
X1880870D01*
Y1364160D01*
X1880938D01*
X1883522Y1364852D01*
X1885838Y1366190D01*
X1887730Y1368082D01*
X1889068Y1370398D01*
X1889760Y1372982D01*
Y1373050D01*
D02*
G37*
G36*
X1878330D02*
X1869440D01*
Y1372982D01*
X1870132Y1370398D01*
X1871470Y1368082D01*
X1873362Y1366190D01*
X1875678Y1364852D01*
X1878262Y1364160D01*
X1878330D01*
Y1373050D01*
D02*
G37*
G36*
X1230922Y1347000D02*
X1229078D01*
X1227298Y1346523D01*
X1225702Y1345601D01*
X1224689Y1344588D01*
X1183311D01*
X1182298Y1345601D01*
X1180702Y1346523D01*
X1178922Y1347000D01*
X1177078D01*
X1175298Y1346523D01*
X1173702Y1345601D01*
X1172399Y1344298D01*
X1171477Y1342702D01*
X1171000Y1340922D01*
Y1339078D01*
X1171477Y1337298D01*
X1172399Y1335702D01*
X1173702Y1334399D01*
X1175298Y1333477D01*
X1177078Y1333000D01*
X1178922D01*
X1180702Y1333477D01*
X1182298Y1334399D01*
X1183311Y1335412D01*
X1224689D01*
X1225702Y1334399D01*
X1227298Y1333477D01*
X1229078Y1333000D01*
X1230922D01*
X1232702Y1333477D01*
X1234298Y1334399D01*
X1235601Y1335702D01*
X1236523Y1337298D01*
X1237000Y1339078D01*
Y1340922D01*
X1236523Y1342702D01*
X1235601Y1344298D01*
X1234298Y1345601D01*
X1232702Y1346523D01*
X1230922Y1347000D01*
D02*
G37*
G36*
X1601467Y1363620D02*
X1598934D01*
X1596487Y1362964D01*
X1594293Y1361698D01*
X1592502Y1359907D01*
X1591236Y1357713D01*
X1590580Y1355267D01*
Y1352733D01*
X1591236Y1350287D01*
X1592502Y1348093D01*
X1594293Y1346302D01*
X1596487Y1345036D01*
X1598934Y1344380D01*
X1601467D01*
X1603913Y1345036D01*
X1606107Y1346302D01*
X1607898Y1348093D01*
X1609164Y1350287D01*
X1609820Y1352733D01*
Y1355267D01*
X1609164Y1357713D01*
X1607898Y1359907D01*
X1606107Y1361698D01*
X1603913Y1362964D01*
X1601467Y1363620D01*
D02*
G37*
G36*
X1576066D02*
X1573533D01*
X1571087Y1362964D01*
X1568893Y1361698D01*
X1567102Y1359907D01*
X1565836Y1357713D01*
X1565180Y1355267D01*
Y1352733D01*
X1565836Y1350287D01*
X1567102Y1348093D01*
X1568893Y1346302D01*
X1571087Y1345036D01*
X1573533Y1344380D01*
X1576066D01*
X1578513Y1345036D01*
X1580707Y1346302D01*
X1582498Y1348093D01*
X1583764Y1350287D01*
X1584420Y1352733D01*
Y1355267D01*
X1583764Y1357713D01*
X1582498Y1359907D01*
X1580707Y1361698D01*
X1578513Y1362964D01*
X1576066Y1363620D01*
D02*
G37*
G36*
X1601467Y1338220D02*
X1598934D01*
X1596487Y1337564D01*
X1594293Y1336298D01*
X1592502Y1334507D01*
X1591236Y1332313D01*
X1590580Y1329866D01*
Y1327334D01*
X1591236Y1324887D01*
X1592502Y1322693D01*
X1594293Y1320902D01*
X1596487Y1319636D01*
X1598934Y1318980D01*
X1601467D01*
X1603913Y1319636D01*
X1606107Y1320902D01*
X1607898Y1322693D01*
X1609164Y1324887D01*
X1609820Y1327334D01*
Y1329866D01*
X1609164Y1332313D01*
X1607898Y1334507D01*
X1606107Y1336298D01*
X1603913Y1337564D01*
X1601467Y1338220D01*
D02*
G37*
G36*
X1576066D02*
X1573533D01*
X1571087Y1337564D01*
X1568893Y1336298D01*
X1567102Y1334507D01*
X1565836Y1332313D01*
X1565180Y1329866D01*
Y1327334D01*
X1565836Y1324887D01*
X1567102Y1322693D01*
X1568893Y1320902D01*
X1571087Y1319636D01*
X1573533Y1318980D01*
X1576066D01*
X1578513Y1319636D01*
X1580707Y1320902D01*
X1582498Y1322693D01*
X1583764Y1324887D01*
X1584420Y1327334D01*
Y1329866D01*
X1583764Y1332313D01*
X1582498Y1334507D01*
X1580707Y1336298D01*
X1578513Y1337564D01*
X1576066Y1338220D01*
D02*
G37*
G36*
X506500Y1327600D02*
X487500D01*
Y1308600D01*
X506500D01*
Y1327600D01*
D02*
G37*
G36*
X1601467Y1312820D02*
X1598934D01*
X1596487Y1312164D01*
X1594293Y1310898D01*
X1592502Y1309107D01*
X1591236Y1306913D01*
X1590580Y1304467D01*
Y1301933D01*
X1591236Y1299487D01*
X1592502Y1297293D01*
X1594293Y1295502D01*
X1596487Y1294236D01*
X1598934Y1293580D01*
X1601467D01*
X1603913Y1294236D01*
X1606107Y1295502D01*
X1607898Y1297293D01*
X1609164Y1299487D01*
X1609820Y1301933D01*
Y1304467D01*
X1609164Y1306913D01*
X1607898Y1309107D01*
X1606107Y1310898D01*
X1603913Y1312164D01*
X1601467Y1312820D01*
D02*
G37*
G36*
X1576066D02*
X1573533D01*
X1571087Y1312164D01*
X1568893Y1310898D01*
X1567102Y1309107D01*
X1565836Y1306913D01*
X1565180Y1304467D01*
Y1301933D01*
X1565836Y1299487D01*
X1567102Y1297293D01*
X1568893Y1295502D01*
X1571087Y1294236D01*
X1573533Y1293580D01*
X1576066D01*
X1578513Y1294236D01*
X1580707Y1295502D01*
X1582498Y1297293D01*
X1583764Y1299487D01*
X1584420Y1301933D01*
Y1304467D01*
X1583764Y1306913D01*
X1582498Y1309107D01*
X1580707Y1310898D01*
X1578513Y1312164D01*
X1576066Y1312820D01*
D02*
G37*
G36*
X498251Y1302200D02*
X495749D01*
X493333Y1301553D01*
X491167Y1300302D01*
X489398Y1298533D01*
X488147Y1296367D01*
X487500Y1293951D01*
Y1291449D01*
X488147Y1289033D01*
X489398Y1286867D01*
X491167Y1285098D01*
X493333Y1283847D01*
X495749Y1283200D01*
X498251D01*
X500667Y1283847D01*
X502833Y1285098D01*
X504602Y1286867D01*
X505853Y1289033D01*
X506500Y1291449D01*
Y1293951D01*
X505853Y1296367D01*
X504602Y1298533D01*
X502833Y1300302D01*
X500667Y1301553D01*
X498251Y1302200D01*
D02*
G37*
G36*
X1643922Y1338000D02*
X1642078D01*
X1640298Y1337523D01*
X1638702Y1336601D01*
X1637399Y1335298D01*
X1636477Y1333702D01*
X1636000Y1331922D01*
Y1330078D01*
X1636477Y1328298D01*
X1637399Y1326702D01*
X1638702Y1325399D01*
X1638922Y1325272D01*
Y1291138D01*
X1638702Y1291011D01*
X1637399Y1289708D01*
X1636477Y1288112D01*
X1636000Y1286331D01*
Y1284488D01*
X1636477Y1282708D01*
X1637399Y1281112D01*
X1638702Y1279809D01*
X1640298Y1278887D01*
X1642078Y1278410D01*
X1643922D01*
X1645702Y1278887D01*
X1647298Y1279809D01*
X1648601Y1281112D01*
X1649523Y1282708D01*
X1650000Y1284488D01*
Y1286331D01*
X1649523Y1288112D01*
X1648601Y1289708D01*
X1647298Y1291011D01*
X1647078Y1291138D01*
Y1325272D01*
X1647298Y1325399D01*
X1648601Y1326702D01*
X1649523Y1328298D01*
X1650000Y1330078D01*
Y1331922D01*
X1649523Y1333702D01*
X1648601Y1335298D01*
X1647298Y1336601D01*
X1645702Y1337523D01*
X1643922Y1338000D01*
D02*
G37*
G36*
X1601467Y1287420D02*
X1598934D01*
X1596487Y1286764D01*
X1594293Y1285498D01*
X1592502Y1283707D01*
X1591236Y1281513D01*
X1590580Y1279066D01*
Y1276534D01*
X1591236Y1274087D01*
X1592502Y1271893D01*
X1594293Y1270102D01*
X1596487Y1268836D01*
X1598934Y1268180D01*
X1601467D01*
X1603913Y1268836D01*
X1606107Y1270102D01*
X1607898Y1271893D01*
X1609164Y1274087D01*
X1609820Y1276534D01*
Y1279066D01*
X1609164Y1281513D01*
X1607898Y1283707D01*
X1606107Y1285498D01*
X1603913Y1286764D01*
X1601467Y1287420D01*
D02*
G37*
G36*
X1576066D02*
X1573533D01*
X1571087Y1286764D01*
X1568893Y1285498D01*
X1567102Y1283707D01*
X1565836Y1281513D01*
X1565180Y1279066D01*
Y1276534D01*
X1565836Y1274087D01*
X1567102Y1271893D01*
X1568893Y1270102D01*
X1571087Y1268836D01*
X1573533Y1268180D01*
X1576066D01*
X1578513Y1268836D01*
X1580707Y1270102D01*
X1582498Y1271893D01*
X1583764Y1274087D01*
X1584420Y1276534D01*
Y1279066D01*
X1583764Y1281513D01*
X1582498Y1283707D01*
X1580707Y1285498D01*
X1578513Y1286764D01*
X1576066Y1287420D01*
D02*
G37*
G36*
X1030922Y1272000D02*
X1029078D01*
X1027298Y1271523D01*
X1025702Y1270601D01*
X1024399Y1269298D01*
X1023477Y1267702D01*
X1023157Y1266509D01*
X1021843D01*
X1021523Y1267702D01*
X1020601Y1269298D01*
X1019298Y1270601D01*
X1017702Y1271523D01*
X1015922Y1272000D01*
X1014078D01*
X1012298Y1271523D01*
X1010702Y1270601D01*
X1009399Y1269298D01*
X1008477Y1267702D01*
X1008000Y1265922D01*
Y1264078D01*
X1008477Y1262298D01*
X1009399Y1260702D01*
X1010412Y1259689D01*
Y1215311D01*
X1009399Y1214298D01*
X1008477Y1212702D01*
X1008000Y1210922D01*
Y1209078D01*
X1008477Y1207298D01*
X1009399Y1205702D01*
X1010702Y1204399D01*
X1012298Y1203477D01*
X1014078Y1203000D01*
X1015922D01*
X1017702Y1203477D01*
X1019298Y1204399D01*
X1020601Y1205702D01*
X1021523Y1207298D01*
X1021843Y1208491D01*
X1023157D01*
X1023477Y1207298D01*
X1024399Y1205702D01*
X1025702Y1204399D01*
X1027298Y1203477D01*
X1029078Y1203000D01*
X1030922D01*
X1032702Y1203477D01*
X1034298Y1204399D01*
X1035601Y1205702D01*
X1036523Y1207298D01*
X1037000Y1209078D01*
Y1210922D01*
X1036523Y1212702D01*
X1035601Y1214298D01*
X1034588Y1215311D01*
Y1259689D01*
X1035601Y1260702D01*
X1036523Y1262298D01*
X1037000Y1264078D01*
Y1265922D01*
X1036523Y1267702D01*
X1035601Y1269298D01*
X1034298Y1270601D01*
X1032702Y1271523D01*
X1030922Y1272000D01*
D02*
G37*
G36*
X498251Y1276800D02*
X495749D01*
X493333Y1276153D01*
X491167Y1274902D01*
X489398Y1273133D01*
X488147Y1270967D01*
X487500Y1268551D01*
Y1266049D01*
X488147Y1263633D01*
X489398Y1261467D01*
X491167Y1259698D01*
X493333Y1258447D01*
X495749Y1257800D01*
X498251D01*
X500667Y1258447D01*
X502833Y1259698D01*
X504602Y1261467D01*
X505853Y1263633D01*
X506500Y1266049D01*
Y1268551D01*
X505853Y1270967D01*
X504602Y1273133D01*
X502833Y1274902D01*
X500667Y1276153D01*
X498251Y1276800D01*
D02*
G37*
G36*
X1280922Y1337000D02*
X1279078D01*
X1277298Y1336523D01*
X1275702Y1335601D01*
X1274399Y1334298D01*
X1273477Y1332702D01*
X1273000Y1330922D01*
Y1329078D01*
X1273477Y1327298D01*
X1274399Y1325702D01*
X1275412Y1324689D01*
Y1255311D01*
X1274399Y1254298D01*
X1273477Y1252702D01*
X1273000Y1250922D01*
Y1249078D01*
X1273477Y1247298D01*
X1274399Y1245702D01*
X1275702Y1244399D01*
X1277298Y1243477D01*
X1279078Y1243000D01*
X1280922D01*
X1282702Y1243477D01*
X1284298Y1244399D01*
X1285601Y1245702D01*
X1286523Y1247298D01*
X1287000Y1249078D01*
Y1250922D01*
X1286523Y1252702D01*
X1285601Y1254298D01*
X1284588Y1255311D01*
Y1324689D01*
X1285601Y1325702D01*
X1286523Y1327298D01*
X1287000Y1329078D01*
Y1330922D01*
X1286523Y1332702D01*
X1285601Y1334298D01*
X1284298Y1335601D01*
X1282702Y1336523D01*
X1280922Y1337000D01*
D02*
G37*
G36*
X1601467Y1262020D02*
X1598934D01*
X1596487Y1261364D01*
X1594293Y1260098D01*
X1592502Y1258307D01*
X1591236Y1256113D01*
X1590580Y1253667D01*
Y1251133D01*
X1591236Y1248687D01*
X1592502Y1246493D01*
X1594293Y1244702D01*
X1596487Y1243436D01*
X1598934Y1242780D01*
X1601467D01*
X1603913Y1243436D01*
X1606107Y1244702D01*
X1607898Y1246493D01*
X1609164Y1248687D01*
X1609820Y1251133D01*
Y1253667D01*
X1609164Y1256113D01*
X1607898Y1258307D01*
X1606107Y1260098D01*
X1603913Y1261364D01*
X1601467Y1262020D01*
D02*
G37*
G36*
X1576066D02*
X1573533D01*
X1571087Y1261364D01*
X1568893Y1260098D01*
X1567102Y1258307D01*
X1565836Y1256113D01*
X1565180Y1253667D01*
Y1251133D01*
X1565836Y1248687D01*
X1567102Y1246493D01*
X1568893Y1244702D01*
X1571087Y1243436D01*
X1573533Y1242780D01*
X1576066D01*
X1578513Y1243436D01*
X1580707Y1244702D01*
X1582498Y1246493D01*
X1583764Y1248687D01*
X1584420Y1251133D01*
Y1253667D01*
X1583764Y1256113D01*
X1582498Y1258307D01*
X1580707Y1260098D01*
X1578513Y1261364D01*
X1576066Y1262020D01*
D02*
G37*
G36*
X498251Y1251400D02*
X495749D01*
X493333Y1250753D01*
X491167Y1249502D01*
X489398Y1247733D01*
X488147Y1245567D01*
X487500Y1243151D01*
Y1240649D01*
X488147Y1238233D01*
X489398Y1236067D01*
X491167Y1234298D01*
X493333Y1233047D01*
X495749Y1232400D01*
X498251D01*
X500667Y1233047D01*
X502833Y1234298D01*
X504602Y1236067D01*
X505853Y1238233D01*
X506500Y1240649D01*
Y1243151D01*
X505853Y1245567D01*
X504602Y1247733D01*
X502833Y1249502D01*
X500667Y1250753D01*
X498251Y1251400D01*
D02*
G37*
G36*
X1601467Y1236620D02*
X1598934D01*
X1596487Y1235964D01*
X1594293Y1234698D01*
X1592502Y1232907D01*
X1591236Y1230713D01*
X1590580Y1228267D01*
Y1225733D01*
X1591236Y1223287D01*
X1592502Y1221093D01*
X1594293Y1219302D01*
X1596487Y1218036D01*
X1598934Y1217380D01*
X1601467D01*
X1603913Y1218036D01*
X1606107Y1219302D01*
X1607898Y1221093D01*
X1609164Y1223287D01*
X1609820Y1225733D01*
Y1228267D01*
X1609164Y1230713D01*
X1607898Y1232907D01*
X1606107Y1234698D01*
X1603913Y1235964D01*
X1601467Y1236620D01*
D02*
G37*
G36*
X1576066D02*
X1573533D01*
X1571087Y1235964D01*
X1568893Y1234698D01*
X1567102Y1232907D01*
X1565836Y1230713D01*
X1565180Y1228267D01*
Y1225733D01*
X1565836Y1223287D01*
X1567102Y1221093D01*
X1568893Y1219302D01*
X1571087Y1218036D01*
X1573533Y1217380D01*
X1576066D01*
X1578513Y1218036D01*
X1580707Y1219302D01*
X1582498Y1221093D01*
X1583764Y1223287D01*
X1584420Y1225733D01*
Y1228267D01*
X1583764Y1230713D01*
X1582498Y1232907D01*
X1580707Y1234698D01*
X1578513Y1235964D01*
X1576066Y1236620D01*
D02*
G37*
G36*
X852200Y1212500D02*
X833200D01*
Y1193500D01*
X852200D01*
Y1212500D01*
D02*
G37*
G36*
X818551D02*
X816049D01*
X813633Y1211853D01*
X811467Y1210602D01*
X809698Y1208833D01*
X808447Y1206667D01*
X807800Y1204251D01*
Y1201749D01*
X808447Y1199333D01*
X809698Y1197167D01*
X811467Y1195398D01*
X813633Y1194147D01*
X816049Y1193500D01*
X818551D01*
X820967Y1194147D01*
X823133Y1195398D01*
X824902Y1197167D01*
X826153Y1199333D01*
X826800Y1201749D01*
Y1204251D01*
X826153Y1206667D01*
X824902Y1208833D01*
X823133Y1210602D01*
X820967Y1211853D01*
X818551Y1212500D01*
D02*
G37*
G36*
X752200D02*
X733200D01*
Y1193500D01*
X752200D01*
Y1212500D01*
D02*
G37*
G36*
X718551D02*
X716049D01*
X713633Y1211853D01*
X711467Y1210602D01*
X709698Y1208833D01*
X708447Y1206667D01*
X707800Y1204251D01*
Y1201749D01*
X708447Y1199333D01*
X709698Y1197167D01*
X711467Y1195398D01*
X713633Y1194147D01*
X716049Y1193500D01*
X718551D01*
X720967Y1194147D01*
X723133Y1195398D01*
X724902Y1197167D01*
X726152Y1199333D01*
X726800Y1201749D01*
Y1204251D01*
X726152Y1206667D01*
X724902Y1208833D01*
X723133Y1210602D01*
X720967Y1211853D01*
X718551Y1212500D01*
D02*
G37*
G36*
X652200D02*
X633200D01*
Y1193500D01*
X652200D01*
Y1212500D01*
D02*
G37*
G36*
X618551D02*
X616049D01*
X613633Y1211853D01*
X611467Y1210602D01*
X609698Y1208833D01*
X608447Y1206667D01*
X607800Y1204251D01*
Y1201749D01*
X608447Y1199333D01*
X609698Y1197167D01*
X611467Y1195398D01*
X613633Y1194147D01*
X616049Y1193500D01*
X618551D01*
X620967Y1194147D01*
X623133Y1195398D01*
X624902Y1197167D01*
X626153Y1199333D01*
X626800Y1201749D01*
Y1204251D01*
X626153Y1206667D01*
X624902Y1208833D01*
X623133Y1210602D01*
X620967Y1211853D01*
X618551Y1212500D01*
D02*
G37*
G36*
X1601467Y1211220D02*
X1598934D01*
X1596487Y1210564D01*
X1594293Y1209298D01*
X1592502Y1207507D01*
X1591236Y1205313D01*
X1590580Y1202867D01*
Y1200333D01*
X1591236Y1197887D01*
X1592502Y1195693D01*
X1594293Y1193902D01*
X1596487Y1192636D01*
X1598934Y1191980D01*
X1601467D01*
X1603913Y1192636D01*
X1606107Y1193902D01*
X1607898Y1195693D01*
X1609164Y1197887D01*
X1609820Y1200333D01*
Y1202867D01*
X1609164Y1205313D01*
X1607898Y1207507D01*
X1606107Y1209298D01*
X1603913Y1210564D01*
X1601467Y1211220D01*
D02*
G37*
G36*
X1576066D02*
X1573533D01*
X1571087Y1210564D01*
X1568893Y1209298D01*
X1567102Y1207507D01*
X1565836Y1205313D01*
X1565180Y1202867D01*
Y1200333D01*
X1565836Y1197887D01*
X1567102Y1195693D01*
X1568893Y1193902D01*
X1571087Y1192636D01*
X1573533Y1191980D01*
X1576066D01*
X1578513Y1192636D01*
X1580707Y1193902D01*
X1582498Y1195693D01*
X1583764Y1197887D01*
X1584420Y1200333D01*
Y1202867D01*
X1583764Y1205313D01*
X1582498Y1207507D01*
X1580707Y1209298D01*
X1578513Y1210564D01*
X1576066Y1211220D01*
D02*
G37*
G36*
X1576138Y1186360D02*
X1576070D01*
Y1177470D01*
X1584960D01*
Y1177538D01*
X1584268Y1180122D01*
X1582930Y1182438D01*
X1581038Y1184330D01*
X1578722Y1185668D01*
X1576138Y1186360D01*
D02*
G37*
G36*
X1601538D02*
X1601470D01*
Y1177470D01*
X1610360D01*
Y1177538D01*
X1609668Y1180122D01*
X1608330Y1182438D01*
X1606438Y1184330D01*
X1604122Y1185668D01*
X1601538Y1186360D01*
D02*
G37*
G36*
X1881799Y1204140D02*
X1880870D01*
Y1177470D01*
X1907540D01*
Y1178399D01*
X1906852Y1182743D01*
X1905493Y1186925D01*
X1903496Y1190844D01*
X1900911Y1194402D01*
X1897802Y1197511D01*
X1894244Y1200096D01*
X1890325Y1202093D01*
X1886143Y1203452D01*
X1881799Y1204140D01*
D02*
G37*
G36*
X1573530Y1186360D02*
X1573462D01*
X1570878Y1185668D01*
X1568562Y1184330D01*
X1566670Y1182438D01*
X1565332Y1180122D01*
X1564640Y1177538D01*
Y1177470D01*
X1573530D01*
Y1186360D01*
D02*
G37*
G36*
X1598930D02*
X1598862D01*
X1596278Y1185668D01*
X1593962Y1184330D01*
X1592070Y1182438D01*
X1590732Y1180122D01*
X1590040Y1177538D01*
Y1177470D01*
X1598930D01*
Y1186360D01*
D02*
G37*
G36*
X1878330Y1204140D02*
X1877401D01*
X1873057Y1203452D01*
X1868875Y1202093D01*
X1864956Y1200096D01*
X1861398Y1197511D01*
X1858289Y1194402D01*
X1855704Y1190844D01*
X1853707Y1186925D01*
X1852348Y1182743D01*
X1851660Y1178399D01*
Y1177470D01*
X1878330D01*
Y1204140D01*
D02*
G37*
G36*
X1610360Y1174930D02*
X1601470D01*
Y1166040D01*
X1601538D01*
X1604122Y1166732D01*
X1606438Y1168070D01*
X1608330Y1169962D01*
X1609668Y1172278D01*
X1610360Y1174862D01*
Y1174930D01*
D02*
G37*
G36*
X1598930D02*
X1590040D01*
Y1174862D01*
X1590732Y1172278D01*
X1592070Y1169962D01*
X1593962Y1168070D01*
X1596278Y1166732D01*
X1598862Y1166040D01*
X1598930D01*
Y1174930D01*
D02*
G37*
G36*
X1584960D02*
X1576070D01*
Y1166040D01*
X1576138D01*
X1578722Y1166732D01*
X1581038Y1168070D01*
X1582930Y1169962D01*
X1584268Y1172278D01*
X1584960Y1174862D01*
Y1174930D01*
D02*
G37*
G36*
X1573530D02*
X1564640D01*
Y1174862D01*
X1565332Y1172278D01*
X1566670Y1169962D01*
X1568562Y1168070D01*
X1570878Y1166732D01*
X1573462Y1166040D01*
X1573530D01*
Y1174930D01*
D02*
G37*
G36*
X1907540D02*
X1880870D01*
Y1148260D01*
X1881799D01*
X1886143Y1148948D01*
X1890325Y1150307D01*
X1894244Y1152304D01*
X1897802Y1154889D01*
X1900911Y1157998D01*
X1903496Y1161556D01*
X1905493Y1165475D01*
X1906852Y1169657D01*
X1907540Y1174001D01*
Y1174930D01*
D02*
G37*
G36*
X1878330D02*
X1851660D01*
Y1174001D01*
X1852348Y1169657D01*
X1853707Y1165475D01*
X1855704Y1161556D01*
X1858289Y1157998D01*
X1861398Y1154889D01*
X1864956Y1152304D01*
X1868875Y1150307D01*
X1873057Y1148948D01*
X1877401Y1148260D01*
X1878330D01*
Y1174930D01*
D02*
G37*
G36*
X1576999Y1153340D02*
X1576070D01*
Y1126670D01*
X1602740D01*
Y1127599D01*
X1602052Y1131943D01*
X1600693Y1136125D01*
X1598696Y1140044D01*
X1596111Y1143602D01*
X1593002Y1146711D01*
X1589444Y1149296D01*
X1585525Y1151293D01*
X1581343Y1152652D01*
X1576999Y1153340D01*
D02*
G37*
G36*
X1573530D02*
X1572601D01*
X1568257Y1152652D01*
X1564075Y1151293D01*
X1560156Y1149296D01*
X1556598Y1146711D01*
X1553489Y1143602D01*
X1550904Y1140044D01*
X1548907Y1136125D01*
X1547548Y1131943D01*
X1546860Y1127599D01*
Y1126670D01*
X1573530D01*
Y1153340D01*
D02*
G37*
G36*
X2402499D02*
X2401570D01*
Y1126670D01*
X2428240D01*
Y1127599D01*
X2427552Y1131943D01*
X2426193Y1136125D01*
X2424196Y1140044D01*
X2421611Y1143602D01*
X2418502Y1146711D01*
X2414944Y1149296D01*
X2411025Y1151293D01*
X2406843Y1152652D01*
X2402499Y1153340D01*
D02*
G37*
G36*
X2109470Y1140561D02*
Y1126670D01*
X2118448D01*
Y1130480D01*
X2118098Y1133132D01*
X2117075Y1135604D01*
X2115446Y1137726D01*
X2113324Y1139355D01*
X2110852Y1140378D01*
X2109470Y1140561D01*
D02*
G37*
G36*
X2134870D02*
Y1126670D01*
X2143848D01*
Y1130480D01*
X2143499Y1133132D01*
X2142475Y1135604D01*
X2140846Y1137726D01*
X2138724Y1139355D01*
X2136252Y1140378D01*
X2134870Y1140561D01*
D02*
G37*
G36*
X2106930D02*
X2105548Y1140378D01*
X2103076Y1139355D01*
X2100954Y1137726D01*
X2099325Y1135604D01*
X2098302Y1133132D01*
X2097952Y1130480D01*
Y1126670D01*
X2106930D01*
Y1140561D01*
D02*
G37*
G36*
X2132330D02*
X2130948Y1140378D01*
X2128476Y1139355D01*
X2126354Y1137726D01*
X2124725Y1135604D01*
X2123701Y1133132D01*
X2123352Y1130480D01*
Y1126670D01*
X2132330D01*
Y1140561D01*
D02*
G37*
G36*
X2399030Y1153340D02*
X2398101D01*
X2393757Y1152652D01*
X2389575Y1151293D01*
X2385656Y1149296D01*
X2382098Y1146711D01*
X2378989Y1143602D01*
X2376404Y1140044D01*
X2374407Y1136125D01*
X2373048Y1131943D01*
X2372360Y1127599D01*
Y1126670D01*
X2399030D01*
Y1153340D01*
D02*
G37*
G36*
X2260600Y1140183D02*
X2258089Y1139852D01*
X2255748Y1138883D01*
X2253739Y1137341D01*
X2252197Y1135331D01*
X2251228Y1132991D01*
X2250897Y1130480D01*
Y1120320D01*
X2251228Y1117809D01*
X2252197Y1115469D01*
X2253739Y1113459D01*
X2255748Y1111917D01*
X2258089Y1110948D01*
X2260600Y1110617D01*
X2263111Y1110948D01*
X2265452Y1111917D01*
X2267461Y1113459D01*
X2269003Y1115469D01*
X2269972Y1117809D01*
X2270303Y1120320D01*
Y1130480D01*
X2269972Y1132991D01*
X2269003Y1135331D01*
X2267461Y1137341D01*
X2265452Y1138883D01*
X2263111Y1139852D01*
X2260600Y1140183D01*
D02*
G37*
G36*
X2235200D02*
X2232689Y1139852D01*
X2230349Y1138883D01*
X2228339Y1137341D01*
X2226797Y1135331D01*
X2225828Y1132991D01*
X2225497Y1130480D01*
Y1120320D01*
X2225828Y1117809D01*
X2226797Y1115469D01*
X2228339Y1113459D01*
X2230349Y1111917D01*
X2232689Y1110948D01*
X2235200Y1110617D01*
X2237711Y1110948D01*
X2240052Y1111917D01*
X2242061Y1113459D01*
X2243603Y1115469D01*
X2244572Y1117809D01*
X2244903Y1120320D01*
Y1130480D01*
X2244572Y1132991D01*
X2243603Y1135331D01*
X2242061Y1137341D01*
X2240052Y1138883D01*
X2237711Y1139852D01*
X2235200Y1140183D01*
D02*
G37*
G36*
X2209800D02*
X2207289Y1139852D01*
X2204948Y1138883D01*
X2202939Y1137341D01*
X2201397Y1135331D01*
X2200428Y1132991D01*
X2200097Y1130480D01*
Y1120320D01*
X2200428Y1117809D01*
X2201397Y1115469D01*
X2202939Y1113459D01*
X2204948Y1111917D01*
X2207289Y1110948D01*
X2209800Y1110617D01*
X2212311Y1110948D01*
X2214651Y1111917D01*
X2216661Y1113459D01*
X2218203Y1115469D01*
X2219172Y1117809D01*
X2219503Y1120320D01*
Y1130480D01*
X2219172Y1132991D01*
X2218203Y1135331D01*
X2216661Y1137341D01*
X2214651Y1138883D01*
X2212311Y1139852D01*
X2209800Y1140183D01*
D02*
G37*
G36*
X2184400D02*
X2181889Y1139852D01*
X2179548Y1138883D01*
X2177539Y1137341D01*
X2175997Y1135331D01*
X2175028Y1132991D01*
X2174697Y1130480D01*
Y1120320D01*
X2175028Y1117809D01*
X2175997Y1115469D01*
X2177539Y1113459D01*
X2179548Y1111917D01*
X2181889Y1110948D01*
X2184400Y1110617D01*
X2186911Y1110948D01*
X2189252Y1111917D01*
X2191261Y1113459D01*
X2192803Y1115469D01*
X2193772Y1117809D01*
X2194103Y1120320D01*
Y1130480D01*
X2193772Y1132991D01*
X2192803Y1135331D01*
X2191261Y1137341D01*
X2189252Y1138883D01*
X2186911Y1139852D01*
X2184400Y1140183D01*
D02*
G37*
G36*
X2032000D02*
X2029489Y1139852D01*
X2027148Y1138883D01*
X2025139Y1137341D01*
X2023597Y1135331D01*
X2022628Y1132991D01*
X2022297Y1130480D01*
Y1120320D01*
X2022628Y1117809D01*
X2023597Y1115469D01*
X2025139Y1113459D01*
X2027148Y1111917D01*
X2029489Y1110948D01*
X2032000Y1110617D01*
X2034511Y1110948D01*
X2036852Y1111917D01*
X2038861Y1113459D01*
X2040403Y1115469D01*
X2041372Y1117809D01*
X2041703Y1120320D01*
Y1130480D01*
X2041372Y1132991D01*
X2040403Y1135331D01*
X2038861Y1137341D01*
X2036852Y1138883D01*
X2034511Y1139852D01*
X2032000Y1140183D01*
D02*
G37*
G36*
X2006600D02*
X2004089Y1139852D01*
X2001749Y1138883D01*
X1999739Y1137341D01*
X1998197Y1135331D01*
X1997228Y1132991D01*
X1996897Y1130480D01*
Y1120320D01*
X1997228Y1117809D01*
X1998197Y1115469D01*
X1999739Y1113459D01*
X2001749Y1111917D01*
X2004089Y1110948D01*
X2006600Y1110617D01*
X2009111Y1110948D01*
X2011452Y1111917D01*
X2013461Y1113459D01*
X2015003Y1115469D01*
X2015972Y1117809D01*
X2016303Y1120320D01*
Y1130480D01*
X2015972Y1132991D01*
X2015003Y1135331D01*
X2013461Y1137341D01*
X2011452Y1138883D01*
X2009111Y1139852D01*
X2006600Y1140183D01*
D02*
G37*
G36*
X1981200D02*
X1978689Y1139852D01*
X1976349Y1138883D01*
X1974339Y1137341D01*
X1972797Y1135331D01*
X1971828Y1132991D01*
X1971497Y1130480D01*
Y1120320D01*
X1971828Y1117809D01*
X1972797Y1115469D01*
X1974339Y1113459D01*
X1976349Y1111917D01*
X1978689Y1110948D01*
X1981200Y1110617D01*
X1983711Y1110948D01*
X1986051Y1111917D01*
X1988061Y1113459D01*
X1989603Y1115469D01*
X1990572Y1117809D01*
X1990903Y1120320D01*
Y1130480D01*
X1990572Y1132991D01*
X1989603Y1135331D01*
X1988061Y1137341D01*
X1986051Y1138883D01*
X1983711Y1139852D01*
X1981200Y1140183D01*
D02*
G37*
G36*
X1955800D02*
X1953289Y1139852D01*
X1950948Y1138883D01*
X1948939Y1137341D01*
X1947397Y1135331D01*
X1946428Y1132991D01*
X1946097Y1130480D01*
Y1120320D01*
X1946428Y1117809D01*
X1947397Y1115469D01*
X1948939Y1113459D01*
X1950948Y1111917D01*
X1953289Y1110948D01*
X1955800Y1110617D01*
X1958311Y1110948D01*
X1960652Y1111917D01*
X1962661Y1113459D01*
X1964203Y1115469D01*
X1965172Y1117809D01*
X1965503Y1120320D01*
Y1130480D01*
X1965172Y1132991D01*
X1964203Y1135331D01*
X1962661Y1137341D01*
X1960652Y1138883D01*
X1958311Y1139852D01*
X1955800Y1140183D01*
D02*
G37*
G36*
X1930400D02*
X1927889Y1139852D01*
X1925549Y1138883D01*
X1923539Y1137341D01*
X1921997Y1135331D01*
X1921028Y1132991D01*
X1920697Y1130480D01*
Y1120320D01*
X1921028Y1117809D01*
X1921997Y1115469D01*
X1923539Y1113459D01*
X1925549Y1111917D01*
X1927889Y1110948D01*
X1930400Y1110617D01*
X1932911Y1110948D01*
X1935251Y1111917D01*
X1937261Y1113459D01*
X1938803Y1115469D01*
X1939772Y1117809D01*
X1940103Y1120320D01*
Y1130480D01*
X1939772Y1132991D01*
X1938803Y1135331D01*
X1937261Y1137341D01*
X1935251Y1138883D01*
X1932911Y1139852D01*
X1930400Y1140183D01*
D02*
G37*
G36*
X1905000D02*
X1902489Y1139852D01*
X1900148Y1138883D01*
X1898139Y1137341D01*
X1896597Y1135331D01*
X1895628Y1132991D01*
X1895297Y1130480D01*
Y1120320D01*
X1895628Y1117809D01*
X1896597Y1115469D01*
X1898139Y1113459D01*
X1900148Y1111917D01*
X1902489Y1110948D01*
X1905000Y1110617D01*
X1907511Y1110948D01*
X1909852Y1111917D01*
X1911861Y1113459D01*
X1913403Y1115469D01*
X1914372Y1117809D01*
X1914703Y1120320D01*
Y1130480D01*
X1914372Y1132991D01*
X1913403Y1135331D01*
X1911861Y1137341D01*
X1909852Y1138883D01*
X1907511Y1139852D01*
X1905000Y1140183D01*
D02*
G37*
G36*
X1879600D02*
X1877089Y1139852D01*
X1874749Y1138883D01*
X1872739Y1137341D01*
X1871197Y1135331D01*
X1870228Y1132991D01*
X1869897Y1130480D01*
Y1120320D01*
X1870228Y1117809D01*
X1871197Y1115469D01*
X1872739Y1113459D01*
X1874749Y1111917D01*
X1877089Y1110948D01*
X1879600Y1110617D01*
X1882111Y1110948D01*
X1884451Y1111917D01*
X1886461Y1113459D01*
X1888003Y1115469D01*
X1888972Y1117809D01*
X1889303Y1120320D01*
Y1130480D01*
X1888972Y1132991D01*
X1888003Y1135331D01*
X1886461Y1137341D01*
X1884451Y1138883D01*
X1882111Y1139852D01*
X1879600Y1140183D01*
D02*
G37*
G36*
X1854200D02*
X1851689Y1139852D01*
X1849348Y1138883D01*
X1847339Y1137341D01*
X1845797Y1135331D01*
X1844828Y1132991D01*
X1844497Y1130480D01*
Y1120320D01*
X1844828Y1117809D01*
X1845797Y1115469D01*
X1847339Y1113459D01*
X1849348Y1111917D01*
X1851689Y1110948D01*
X1854200Y1110617D01*
X1856711Y1110948D01*
X1859052Y1111917D01*
X1861061Y1113459D01*
X1862603Y1115469D01*
X1863572Y1117809D01*
X1863903Y1120320D01*
Y1130480D01*
X1863572Y1132991D01*
X1862603Y1135331D01*
X1861061Y1137341D01*
X1859052Y1138883D01*
X1856711Y1139852D01*
X1854200Y1140183D01*
D02*
G37*
G36*
X1803400D02*
X1800889Y1139852D01*
X1798548Y1138883D01*
X1796539Y1137341D01*
X1794997Y1135331D01*
X1794028Y1132991D01*
X1793697Y1130480D01*
Y1120320D01*
X1794028Y1117809D01*
X1794997Y1115469D01*
X1796539Y1113459D01*
X1798548Y1111917D01*
X1800889Y1110948D01*
X1803400Y1110617D01*
X1805911Y1110948D01*
X1808251Y1111917D01*
X1810261Y1113459D01*
X1811803Y1115469D01*
X1812772Y1117809D01*
X1813103Y1120320D01*
Y1130480D01*
X1812772Y1132991D01*
X1811803Y1135331D01*
X1810261Y1137341D01*
X1808251Y1138883D01*
X1805911Y1139852D01*
X1803400Y1140183D01*
D02*
G37*
G36*
X1778000D02*
X1775489Y1139852D01*
X1773148Y1138883D01*
X1771139Y1137341D01*
X1769597Y1135331D01*
X1768628Y1132991D01*
X1768297Y1130480D01*
Y1120320D01*
X1768628Y1117809D01*
X1769597Y1115469D01*
X1771139Y1113459D01*
X1773148Y1111917D01*
X1775489Y1110948D01*
X1778000Y1110617D01*
X1780511Y1110948D01*
X1782852Y1111917D01*
X1784861Y1113459D01*
X1786403Y1115469D01*
X1787372Y1117809D01*
X1787703Y1120320D01*
Y1130480D01*
X1787372Y1132991D01*
X1786403Y1135331D01*
X1784861Y1137341D01*
X1782852Y1138883D01*
X1780511Y1139852D01*
X1778000Y1140183D01*
D02*
G37*
G36*
X1752600D02*
X1750089Y1139852D01*
X1747749Y1138883D01*
X1745739Y1137341D01*
X1744197Y1135331D01*
X1743228Y1132991D01*
X1742897Y1130480D01*
Y1120320D01*
X1743228Y1117809D01*
X1744197Y1115469D01*
X1745739Y1113459D01*
X1747749Y1111917D01*
X1750089Y1110948D01*
X1752600Y1110617D01*
X1755111Y1110948D01*
X1757451Y1111917D01*
X1759461Y1113459D01*
X1761003Y1115469D01*
X1761972Y1117809D01*
X1762303Y1120320D01*
Y1130480D01*
X1761972Y1132991D01*
X1761003Y1135331D01*
X1759461Y1137341D01*
X1757451Y1138883D01*
X1755111Y1139852D01*
X1752600Y1140183D01*
D02*
G37*
G36*
X1727200D02*
X1724689Y1139852D01*
X1722348Y1138883D01*
X1720339Y1137341D01*
X1718797Y1135331D01*
X1717828Y1132991D01*
X1717497Y1130480D01*
Y1120320D01*
X1717828Y1117809D01*
X1718797Y1115469D01*
X1720339Y1113459D01*
X1722348Y1111917D01*
X1724689Y1110948D01*
X1727200Y1110617D01*
X1729711Y1110948D01*
X1732052Y1111917D01*
X1734061Y1113459D01*
X1735603Y1115469D01*
X1736572Y1117809D01*
X1736903Y1120320D01*
Y1130480D01*
X1736572Y1132991D01*
X1735603Y1135331D01*
X1734061Y1137341D01*
X1732052Y1138883D01*
X1729711Y1139852D01*
X1727200Y1140183D01*
D02*
G37*
G36*
X1701800D02*
X1699289Y1139852D01*
X1696949Y1138883D01*
X1694939Y1137341D01*
X1693397Y1135331D01*
X1692428Y1132991D01*
X1692097Y1130480D01*
Y1120320D01*
X1692428Y1117809D01*
X1693397Y1115469D01*
X1694939Y1113459D01*
X1696949Y1111917D01*
X1699289Y1110948D01*
X1701800Y1110617D01*
X1704311Y1110948D01*
X1706651Y1111917D01*
X1708661Y1113459D01*
X1710203Y1115469D01*
X1711172Y1117809D01*
X1711503Y1120320D01*
Y1130480D01*
X1711172Y1132991D01*
X1710203Y1135331D01*
X1708661Y1137341D01*
X1706651Y1138883D01*
X1704311Y1139852D01*
X1701800Y1140183D01*
D02*
G37*
G36*
X1676400D02*
X1673889Y1139852D01*
X1671548Y1138883D01*
X1669539Y1137341D01*
X1667997Y1135331D01*
X1667028Y1132991D01*
X1666697Y1130480D01*
Y1120320D01*
X1667028Y1117809D01*
X1667997Y1115469D01*
X1669539Y1113459D01*
X1671548Y1111917D01*
X1673889Y1110948D01*
X1676400Y1110617D01*
X1678911Y1110948D01*
X1681252Y1111917D01*
X1683261Y1113459D01*
X1684803Y1115469D01*
X1685772Y1117809D01*
X1686103Y1120320D01*
Y1130480D01*
X1685772Y1132991D01*
X1684803Y1135331D01*
X1683261Y1137341D01*
X1681252Y1138883D01*
X1678911Y1139852D01*
X1676400Y1140183D01*
D02*
G37*
G36*
X1651000D02*
X1648489Y1139852D01*
X1646149Y1138883D01*
X1644139Y1137341D01*
X1642597Y1135331D01*
X1641628Y1132991D01*
X1641297Y1130480D01*
Y1120320D01*
X1641628Y1117809D01*
X1642597Y1115469D01*
X1644139Y1113459D01*
X1646149Y1111917D01*
X1648489Y1110948D01*
X1651000Y1110617D01*
X1653511Y1110948D01*
X1655851Y1111917D01*
X1657861Y1113459D01*
X1659403Y1115469D01*
X1660372Y1117809D01*
X1660703Y1120320D01*
Y1130480D01*
X1660372Y1132991D01*
X1659403Y1135331D01*
X1657861Y1137341D01*
X1655851Y1138883D01*
X1653511Y1139852D01*
X1651000Y1140183D01*
D02*
G37*
G36*
X1625600D02*
X1623089Y1139852D01*
X1620748Y1138883D01*
X1618739Y1137341D01*
X1617197Y1135331D01*
X1616228Y1132991D01*
X1615897Y1130480D01*
Y1120320D01*
X1616228Y1117809D01*
X1617197Y1115469D01*
X1618739Y1113459D01*
X1620748Y1111917D01*
X1623089Y1110948D01*
X1625600Y1110617D01*
X1628111Y1110948D01*
X1630452Y1111917D01*
X1632461Y1113459D01*
X1634003Y1115469D01*
X1634972Y1117809D01*
X1635303Y1120320D01*
Y1130480D01*
X1634972Y1132991D01*
X1634003Y1135331D01*
X1632461Y1137341D01*
X1630452Y1138883D01*
X1628111Y1139852D01*
X1625600Y1140183D01*
D02*
G37*
G36*
X2143848Y1124130D02*
X2134870D01*
Y1110239D01*
X2136252Y1110422D01*
X2138724Y1111445D01*
X2140846Y1113074D01*
X2142475Y1115196D01*
X2143499Y1117668D01*
X2143848Y1120320D01*
Y1124130D01*
D02*
G37*
G36*
X2118448D02*
X2109470D01*
Y1110239D01*
X2110852Y1110422D01*
X2113324Y1111445D01*
X2115446Y1113074D01*
X2117075Y1115196D01*
X2118098Y1117668D01*
X2118448Y1120320D01*
Y1124130D01*
D02*
G37*
G36*
X2132330D02*
X2123352D01*
Y1120320D01*
X2123701Y1117668D01*
X2124725Y1115196D01*
X2126354Y1113074D01*
X2128476Y1111445D01*
X2130948Y1110422D01*
X2132330Y1110239D01*
Y1124130D01*
D02*
G37*
G36*
X2106930D02*
X2097952D01*
Y1120320D01*
X2098302Y1117668D01*
X2099325Y1115196D01*
X2100954Y1113074D01*
X2103076Y1111445D01*
X2105548Y1110422D01*
X2106930Y1110239D01*
Y1124130D01*
D02*
G37*
G36*
X2428240D02*
X2401570D01*
Y1097460D01*
X2402499D01*
X2406843Y1098148D01*
X2411025Y1099507D01*
X2414944Y1101504D01*
X2418502Y1104089D01*
X2421611Y1107198D01*
X2424196Y1110756D01*
X2426193Y1114675D01*
X2427552Y1118857D01*
X2428240Y1123201D01*
Y1124130D01*
D02*
G37*
G36*
X2399030D02*
X2372360D01*
Y1123201D01*
X2373048Y1118857D01*
X2374407Y1114675D01*
X2376404Y1110756D01*
X2378989Y1107198D01*
X2382098Y1104089D01*
X2385656Y1101504D01*
X2389575Y1099507D01*
X2393757Y1098148D01*
X2398101Y1097460D01*
X2399030D01*
Y1124130D01*
D02*
G37*
G36*
X1602740Y1124130D02*
X1576070D01*
Y1097460D01*
X1576999D01*
X1581343Y1098148D01*
X1585525Y1099507D01*
X1589444Y1101504D01*
X1593002Y1104089D01*
X1596111Y1107198D01*
X1598696Y1110756D01*
X1600693Y1114675D01*
X1602052Y1118857D01*
X1602740Y1123201D01*
Y1124130D01*
D02*
G37*
G36*
X1573530D02*
X1546860D01*
Y1123201D01*
X1547548Y1118857D01*
X1548907Y1114675D01*
X1550904Y1110756D01*
X1553489Y1107198D01*
X1556598Y1104089D01*
X1560156Y1101504D01*
X1564075Y1099507D01*
X1568257Y1098148D01*
X1572601Y1097460D01*
X1573530D01*
Y1124130D01*
D02*
G37*
G36*
X171270Y1069277D02*
Y1061270D01*
X179277D01*
X178657Y1063586D01*
X177434Y1065704D01*
X175704Y1067434D01*
X173586Y1068657D01*
X171270Y1069277D01*
D02*
G37*
G36*
X168730D02*
X166414Y1068657D01*
X164296Y1067434D01*
X162566Y1065704D01*
X161343Y1063586D01*
X160723Y1061270D01*
X168730D01*
Y1069277D01*
D02*
G37*
G36*
X179277Y1058730D02*
X171270D01*
Y1050723D01*
X173586Y1051343D01*
X175704Y1052566D01*
X177434Y1054296D01*
X178657Y1056414D01*
X179277Y1058730D01*
D02*
G37*
G36*
X168730D02*
X160723D01*
X161343Y1056414D01*
X162566Y1054296D01*
X164296Y1052566D01*
X166414Y1051343D01*
X168730Y1050723D01*
Y1058730D01*
D02*
G37*
G36*
X1350922Y1088000D02*
X1349078D01*
X1347298Y1087523D01*
X1345702Y1086601D01*
X1344399Y1085298D01*
X1343477Y1083702D01*
X1343000Y1081922D01*
Y1080078D01*
X1343477Y1078298D01*
X1344399Y1076702D01*
X1345412Y1075689D01*
Y980311D01*
X1344399Y979298D01*
X1343477Y977702D01*
X1343000Y975922D01*
Y974078D01*
X1343477Y972298D01*
X1344399Y970702D01*
X1345702Y969399D01*
X1347298Y968477D01*
X1349078Y968000D01*
X1350922D01*
X1352702Y968477D01*
X1354298Y969399D01*
X1355601Y970702D01*
X1356523Y972298D01*
X1357000Y974078D01*
Y975922D01*
X1356523Y977702D01*
X1355601Y979298D01*
X1354588Y980311D01*
Y1075689D01*
X1355601Y1076702D01*
X1356523Y1078298D01*
X1357000Y1080078D01*
Y1081922D01*
X1356523Y1083702D01*
X1355601Y1085298D01*
X1354298Y1086601D01*
X1352702Y1087523D01*
X1350922Y1088000D01*
D02*
G37*
G36*
X171152Y958750D02*
X168848D01*
X166623Y958154D01*
X164627Y957002D01*
X162998Y955373D01*
X161846Y953377D01*
X161250Y951152D01*
Y948848D01*
X161846Y946623D01*
X162998Y944627D01*
X164627Y942998D01*
X166623Y941846D01*
X168848Y941250D01*
X171152D01*
X173377Y941846D01*
X175373Y942998D01*
X177002Y944627D01*
X178154Y946623D01*
X178750Y948848D01*
Y951152D01*
X178154Y953377D01*
X177002Y955373D01*
X175373Y957002D01*
X173377Y958154D01*
X171152Y958750D01*
D02*
G37*
G36*
X171270Y939277D02*
Y931270D01*
X179277D01*
X178657Y933586D01*
X177434Y935704D01*
X175704Y937434D01*
X173586Y938657D01*
X171270Y939277D01*
D02*
G37*
G36*
X168730D02*
X166414Y938657D01*
X164296Y937434D01*
X162566Y935704D01*
X161343Y933586D01*
X160723Y931270D01*
X168730D01*
Y939277D01*
D02*
G37*
G36*
X179277Y928730D02*
X171270D01*
Y920723D01*
X173586Y921343D01*
X175704Y922566D01*
X177434Y924296D01*
X178657Y926414D01*
X179277Y928730D01*
D02*
G37*
G36*
X168730D02*
X160723D01*
X161343Y926414D01*
X162566Y924296D01*
X164296Y922566D01*
X166414Y921343D01*
X168730Y920723D01*
Y928730D01*
D02*
G37*
G36*
X1198000Y1286060D02*
X1131000D01*
X1129173Y1285820D01*
X1127470Y1285114D01*
X1126008Y1283992D01*
X982076Y1140060D01*
X203000D01*
X201173Y1139820D01*
X199470Y1139115D01*
X198008Y1137992D01*
X168765Y1108750D01*
X161250D01*
Y1101235D01*
X159987Y1099972D01*
X159088Y1099283D01*
X140007Y1080202D01*
X138885Y1078739D01*
X138180Y1077037D01*
X137940Y1075209D01*
Y995000D01*
X138180Y993173D01*
X138885Y991470D01*
X140007Y990007D01*
X161250Y968765D01*
Y961250D01*
X178750D01*
Y978750D01*
X171235D01*
X152060Y997924D01*
Y1072285D01*
X159980Y1080204D01*
X161250Y1079678D01*
Y1078848D01*
X161846Y1076623D01*
X162998Y1074627D01*
X164627Y1072998D01*
X166623Y1071846D01*
X168848Y1071250D01*
X171152D01*
X173377Y1071846D01*
X175373Y1072998D01*
X177002Y1074627D01*
X178154Y1076623D01*
X178750Y1078848D01*
Y1081152D01*
X178154Y1083377D01*
X177002Y1085373D01*
X175373Y1087002D01*
X173377Y1088154D01*
X171152Y1088750D01*
X170531D01*
X170005Y1090020D01*
X171235Y1091250D01*
X178750D01*
Y1098765D01*
X205924Y1125940D01*
X377940D01*
Y1048000D01*
X378000Y1047541D01*
Y1047078D01*
X378120Y1046631D01*
X378180Y1046173D01*
X378357Y1045745D01*
X378477Y1045298D01*
X378708Y1044897D01*
X378885Y1044470D01*
X379167Y1044103D01*
X379399Y1043702D01*
X379726Y1043375D01*
X380008Y1043008D01*
X380375Y1042726D01*
X380702Y1042399D01*
X381103Y1042167D01*
X381470Y1041886D01*
X381897Y1041709D01*
X382298Y1041477D01*
X382745Y1041357D01*
X383173Y1041180D01*
X383631Y1041120D01*
X384078Y1041000D01*
X384541D01*
X385000Y1040940D01*
X385459Y1041000D01*
X385922D01*
X386369Y1041120D01*
X386827Y1041180D01*
X387255Y1041357D01*
X387702Y1041477D01*
X388103Y1041709D01*
X388530Y1041886D01*
X388897Y1042167D01*
X389298Y1042399D01*
X389625Y1042726D01*
X389992Y1043008D01*
X390274Y1043375D01*
X390601Y1043702D01*
X390833Y1044103D01*
X391115Y1044470D01*
X391292Y1044897D01*
X391523Y1045298D01*
X391643Y1045745D01*
X391820Y1046173D01*
X391880Y1046631D01*
X392000Y1047078D01*
Y1047541D01*
X392060Y1048000D01*
Y1125940D01*
X985000D01*
X986827Y1126180D01*
X988530Y1126886D01*
X989992Y1128008D01*
X1133924Y1271940D01*
X1195076D01*
X1404008Y1063008D01*
X1405470Y1061886D01*
X1407173Y1061180D01*
X1409000Y1060940D01*
X1872940D01*
Y682924D01*
X1835008Y644992D01*
X1834726Y644625D01*
X1834399Y644298D01*
X1834167Y643897D01*
X1833885Y643530D01*
X1833708Y643103D01*
X1833477Y642702D01*
X1833357Y642255D01*
X1833180Y641827D01*
X1833120Y641369D01*
X1833000Y640922D01*
Y640459D01*
X1832940Y640000D01*
X1833000Y639541D01*
Y639078D01*
X1833120Y638631D01*
X1833180Y638173D01*
X1833357Y637745D01*
X1833477Y637298D01*
X1833708Y636897D01*
X1833885Y636470D01*
X1834167Y636103D01*
X1834399Y635702D01*
X1834726Y635375D01*
X1835008Y635008D01*
X1835375Y634726D01*
X1835702Y634399D01*
X1836103Y634167D01*
X1836470Y633885D01*
X1836897Y633708D01*
X1837298Y633477D01*
X1837745Y633357D01*
X1838173Y633180D01*
X1838631Y633120D01*
X1839078Y633000D01*
X1839541D01*
X1840000Y632940D01*
X1840459Y633000D01*
X1840922D01*
X1841369Y633120D01*
X1841827Y633180D01*
X1842255Y633357D01*
X1842702Y633477D01*
X1843103Y633708D01*
X1843530Y633885D01*
X1843897Y634167D01*
X1844298Y634399D01*
X1844625Y634726D01*
X1844992Y635008D01*
X1884992Y675008D01*
X1886115Y676470D01*
X1886820Y678173D01*
X1887060Y680000D01*
Y1060940D01*
X2125000D01*
X2126827Y1061180D01*
X2128530Y1061886D01*
X2129992Y1063008D01*
X2163992Y1097008D01*
X2165114Y1098470D01*
X2165820Y1100173D01*
X2166060Y1102000D01*
Y1113719D01*
X2167403Y1115469D01*
X2168372Y1117809D01*
X2168703Y1120320D01*
Y1130480D01*
X2168372Y1132991D01*
X2167403Y1135331D01*
X2165861Y1137341D01*
X2163851Y1138883D01*
X2161511Y1139852D01*
X2159000Y1140183D01*
X2156489Y1139852D01*
X2154149Y1138883D01*
X2152139Y1137341D01*
X2150597Y1135331D01*
X2149628Y1132991D01*
X2149297Y1130480D01*
Y1120320D01*
X2149628Y1117809D01*
X2150597Y1115469D01*
X2151940Y1113719D01*
Y1104924D01*
X2122076Y1075060D01*
X1411924D01*
X1202992Y1283992D01*
X1202625Y1284274D01*
X1202298Y1284601D01*
X1201897Y1284833D01*
X1201530Y1285114D01*
X1201103Y1285291D01*
X1200702Y1285523D01*
X1200255Y1285643D01*
X1199827Y1285820D01*
X1199369Y1285880D01*
X1198922Y1286000D01*
X1198459D01*
X1198000Y1286060D01*
D02*
G37*
G36*
X290000Y3027039D02*
X289220Y3026884D01*
X288558Y3026442D01*
X253558Y2991442D01*
X253116Y2990780D01*
X252961Y2990000D01*
Y2881353D01*
X252896Y2881315D01*
X251691Y2880764D01*
X249317Y2881400D01*
X246684D01*
X244140Y2880718D01*
X241860Y2879402D01*
X239998Y2877540D01*
X238682Y2875260D01*
X238000Y2872716D01*
Y2870084D01*
X238682Y2867540D01*
X239998Y2865260D01*
X241860Y2863398D01*
X244140Y2862082D01*
X246684Y2861400D01*
X249317D01*
X251691Y2862036D01*
X252896Y2861485D01*
X252961Y2861447D01*
Y2855953D01*
X252896Y2855915D01*
X251691Y2855364D01*
X249317Y2856000D01*
X246684D01*
X244140Y2855319D01*
X241860Y2854002D01*
X239998Y2852140D01*
X238682Y2849860D01*
X238000Y2847317D01*
Y2844684D01*
X238682Y2842140D01*
X239998Y2839860D01*
X241860Y2837998D01*
X244140Y2836682D01*
X246684Y2836000D01*
X249317D01*
X251691Y2836636D01*
X252896Y2836085D01*
X252961Y2836047D01*
Y2830553D01*
X252896Y2830515D01*
X251691Y2829964D01*
X249317Y2830600D01*
X246684D01*
X244140Y2829919D01*
X241860Y2828602D01*
X239998Y2826740D01*
X238682Y2824460D01*
X238000Y2821917D01*
Y2819283D01*
X238682Y2816740D01*
X239998Y2814460D01*
X241860Y2812598D01*
X244140Y2811281D01*
X246684Y2810600D01*
X249317D01*
X251691Y2811236D01*
X252896Y2810685D01*
X252961Y2810647D01*
Y2806633D01*
X252006Y2805796D01*
X252000Y2805797D01*
X249270D01*
Y2795200D01*
Y2784604D01*
X252000D01*
X252006Y2784604D01*
X252961Y2783767D01*
Y2000000D01*
X253116Y1999220D01*
X253558Y1998558D01*
X507961Y1744155D01*
Y1395000D01*
X508116Y1394220D01*
X508558Y1393558D01*
X509220Y1393116D01*
X510000Y1392961D01*
X565000D01*
X565780Y1393116D01*
X566442Y1393558D01*
X566884Y1394220D01*
X567039Y1395000D01*
Y1795000D01*
X567039Y1795000D01*
X566884Y1795780D01*
X566442Y1796442D01*
X566442Y1796442D01*
X332039Y2030845D01*
Y2922961D01*
X1909155D01*
X2647961Y2184155D01*
Y1252060D01*
X2165000D01*
X2163173Y1251820D01*
X2161470Y1251115D01*
X2160008Y1249992D01*
X2077808Y1167792D01*
X2076685Y1166330D01*
X2075980Y1164627D01*
X2075740Y1162800D01*
Y1137081D01*
X2074397Y1135331D01*
X2073428Y1132991D01*
X2073097Y1130480D01*
Y1120320D01*
X2073428Y1117809D01*
X2074397Y1115469D01*
X2075939Y1113459D01*
X2077948Y1111917D01*
X2080289Y1110948D01*
X2082800Y1110617D01*
X2085311Y1110948D01*
X2087652Y1111917D01*
X2089661Y1113459D01*
X2091203Y1115469D01*
X2092172Y1117809D01*
X2092503Y1120320D01*
Y1130480D01*
X2092172Y1132991D01*
X2091203Y1135331D01*
X2089860Y1137081D01*
Y1159875D01*
X2167924Y1237940D01*
X2647961D01*
Y1095845D01*
X2184155Y632039D01*
X1950000D01*
X1950000Y632039D01*
X1949220Y631884D01*
X1948558Y631442D01*
X1948558Y631442D01*
X1894155Y577039D01*
X1580000D01*
X1579220Y576884D01*
X1578558Y576442D01*
X1578116Y575780D01*
X1577961Y575000D01*
Y515000D01*
X1578116Y514220D01*
X1578558Y513558D01*
X1578558Y513558D01*
X1583558Y508558D01*
X1584220Y508116D01*
X1585000Y507961D01*
X2490000D01*
X2490780Y508116D01*
X2491442Y508558D01*
X2491442Y508558D01*
X2901442Y918558D01*
X2901884Y919220D01*
X2902039Y920000D01*
Y2290000D01*
X2901884Y2290780D01*
X2901442Y2291442D01*
X2166442Y3026442D01*
X2165780Y3026884D01*
X2165000Y3027039D01*
X290000D01*
X290000Y3027039D01*
D02*
G37*
G36*
X1626414Y613740D02*
X1625770D01*
Y600470D01*
X1639040D01*
Y601114D01*
X1638049Y604812D01*
X1636135Y608128D01*
X1633428Y610835D01*
X1630112Y612749D01*
X1626414Y613740D01*
D02*
G37*
G36*
X1623230D02*
X1622586D01*
X1618888Y612749D01*
X1615572Y610835D01*
X1612865Y608128D01*
X1610951Y604812D01*
X1609960Y601114D01*
Y600470D01*
X1623230D01*
Y613740D01*
D02*
G37*
G36*
X1639040Y597930D02*
X1625770D01*
Y584660D01*
X1626414D01*
X1630112Y585651D01*
X1633428Y587565D01*
X1636135Y590272D01*
X1638049Y593588D01*
X1639040Y597286D01*
Y597930D01*
D02*
G37*
G36*
X1623230D02*
X1609960D01*
Y597286D01*
X1610951Y593588D01*
X1612865Y590272D01*
X1615572Y587565D01*
X1618888Y585651D01*
X1622586Y584660D01*
X1623230D01*
Y597930D01*
D02*
G37*
G36*
X1626500Y427600D02*
X1607500D01*
Y408600D01*
X1626500D01*
Y427600D01*
D02*
G37*
G36*
X1618251Y402200D02*
X1615749D01*
X1613333Y401553D01*
X1611167Y400302D01*
X1609398Y398533D01*
X1608147Y396367D01*
X1607500Y393951D01*
Y391449D01*
X1608147Y389033D01*
X1609398Y386867D01*
X1611167Y385098D01*
X1613333Y383847D01*
X1615749Y383200D01*
X1618251D01*
X1620667Y383847D01*
X1622833Y385098D01*
X1624602Y386867D01*
X1625853Y389033D01*
X1626500Y391449D01*
Y393951D01*
X1625853Y396367D01*
X1624602Y398533D01*
X1622833Y400302D01*
X1620667Y401553D01*
X1618251Y402200D01*
D02*
G37*
G36*
Y376800D02*
X1615749D01*
X1613333Y376153D01*
X1611167Y374902D01*
X1609398Y373133D01*
X1608147Y370967D01*
X1607500Y368551D01*
Y366049D01*
X1608147Y363633D01*
X1609398Y361467D01*
X1611167Y359698D01*
X1613333Y358447D01*
X1615749Y357800D01*
X1618251D01*
X1620667Y358447D01*
X1622833Y359698D01*
X1624602Y361467D01*
X1625853Y363633D01*
X1626500Y366049D01*
Y368551D01*
X1625853Y370967D01*
X1624602Y373133D01*
X1622833Y374902D01*
X1620667Y376153D01*
X1618251Y376800D01*
D02*
G37*
G36*
X1618322Y351940D02*
X1618270D01*
Y343170D01*
X1627040D01*
Y343222D01*
X1626356Y345775D01*
X1625034Y348065D01*
X1623165Y349934D01*
X1620875Y351256D01*
X1618322Y351940D01*
D02*
G37*
G36*
X1615730D02*
X1615678D01*
X1613125Y351256D01*
X1610835Y349934D01*
X1608966Y348065D01*
X1607644Y345775D01*
X1606960Y343222D01*
Y343170D01*
X1615730D01*
Y351940D01*
D02*
G37*
G36*
X1627040Y340630D02*
X1618270D01*
Y331860D01*
X1618322D01*
X1620875Y332544D01*
X1623165Y333866D01*
X1625034Y335735D01*
X1626356Y338025D01*
X1627040Y340578D01*
Y340630D01*
D02*
G37*
G36*
X1615730D02*
X1606960D01*
Y340578D01*
X1607644Y338025D01*
X1608966Y335735D01*
X1610835Y333866D01*
X1613125Y332544D01*
X1615678Y331860D01*
X1615730D01*
Y340630D01*
D02*
G37*
%LPD*%
G36*
X2050000Y1960000D02*
X1630000D01*
X1365000Y1695000D01*
Y1405000D01*
X1330000D01*
Y1546606D01*
X1330078Y1547000D01*
Y1810078D01*
X1530000Y2010000D01*
X2050000D01*
Y1960000D01*
D02*
G37*
G36*
X995000Y1975000D02*
X856006D01*
X855371Y1976100D01*
X855955Y1977111D01*
X856603Y1979527D01*
X856603Y1982029D01*
X855955Y1984445D01*
X854705Y1986611D01*
X852936Y1988380D01*
X850770Y1989630D01*
X848354Y1990278D01*
X845852Y1990278D01*
X843436Y1989630D01*
X841270Y1988380D01*
X839501Y1986611D01*
X838250Y1984445D01*
X837603Y1982029D01*
X837603Y1979527D01*
X838250Y1977111D01*
X838834Y1976100D01*
X838199Y1975000D01*
X825000D01*
Y2115000D01*
X995000D01*
Y1975000D01*
D02*
G37*
%LPC*%
G36*
X905410Y2099582D02*
X902908D01*
X900492Y2098935D01*
X898326Y2097684D01*
X896557Y2095916D01*
X895306Y2093749D01*
X894659Y2091333D01*
Y2088832D01*
X895306Y2086416D01*
X896557Y2084249D01*
X898326Y2082480D01*
X900492Y2081230D01*
X902908Y2080582D01*
X905410D01*
X907826Y2081230D01*
X909992Y2082480D01*
X911761Y2084249D01*
X913011Y2086416D01*
X913659Y2088832D01*
Y2091333D01*
X913011Y2093749D01*
X911761Y2095916D01*
X909992Y2097684D01*
X907826Y2098935D01*
X905410Y2099582D01*
D02*
G37*
G36*
X923370Y2081622D02*
X920869D01*
X918453Y2080974D01*
X916286Y2079724D01*
X914518Y2077955D01*
X913267Y2075789D01*
X912619Y2073372D01*
Y2070871D01*
X913267Y2068455D01*
X914518Y2066289D01*
X916286Y2064520D01*
X918453Y2063269D01*
X920869Y2062622D01*
X923370D01*
X925786Y2063269D01*
X927953Y2064520D01*
X929721Y2066289D01*
X930972Y2068455D01*
X931619Y2070871D01*
Y2073372D01*
X930972Y2075789D01*
X929721Y2077955D01*
X927953Y2079724D01*
X925786Y2080974D01*
X923370Y2081622D01*
D02*
G37*
G36*
X940080Y2068360D02*
X933879Y2062159D01*
X940080Y2055957D01*
X946281Y2062159D01*
X940080Y2068360D01*
D02*
G37*
G36*
X932083Y2060363D02*
X925881Y2054161D01*
X932083Y2047960D01*
X938284Y2054161D01*
X932083Y2060363D01*
D02*
G37*
G36*
X948077Y2060363D02*
X941876Y2054161D01*
X948077Y2047960D01*
X954279Y2054161D01*
X948077Y2060363D01*
D02*
G37*
G36*
X940080Y2052365D02*
X933879Y2046164D01*
X940080Y2039963D01*
X946281Y2046164D01*
X940080Y2052365D01*
D02*
G37*
G36*
X846577Y2017609D02*
X844308Y2009138D01*
X852779Y2006868D01*
X855049Y2015339D01*
X846577Y2017609D01*
D02*
G37*
G36*
X857502Y2014682D02*
X855232Y2006210D01*
X863703Y2003941D01*
X865973Y2012412D01*
X857502Y2014682D01*
D02*
G37*
G36*
X843650Y2006684D02*
X841380Y1998213D01*
X849852Y1995943D01*
X852121Y2004415D01*
X843650Y2006684D01*
D02*
G37*
G36*
X854575Y2003757D02*
X852305Y1995286D01*
X860776Y1993016D01*
X863046Y2001487D01*
X854575Y2003757D01*
D02*
G37*
%LPD*%
G36*
X515000Y2370000D02*
X755000Y2130000D01*
Y1700000D01*
X1030000Y1425000D01*
X1090000D01*
Y1410000D01*
X900000D01*
X675000Y1635000D01*
Y2085000D01*
X465000Y2295000D01*
Y2690000D01*
Y2695000D01*
X515000D01*
Y2370000D01*
D02*
G37*
G36*
X1023477Y1262298D02*
X1024399Y1260702D01*
X1025412Y1259689D01*
Y1215311D01*
X1024399Y1214298D01*
X1023477Y1212702D01*
X1023157Y1211509D01*
X1021843D01*
X1021523Y1212702D01*
X1020601Y1214298D01*
X1019588Y1215311D01*
Y1259689D01*
X1020601Y1260702D01*
X1021523Y1262298D01*
X1021843Y1263491D01*
X1023157D01*
X1023477Y1262298D01*
D02*
G37*
G36*
X2900000Y2290000D02*
Y920000D01*
X2490000Y510000D01*
X1585000D01*
X1580000Y515000D01*
Y575000D01*
X1895000D01*
X1950000Y630000D01*
X1950000Y630000D01*
X2185000D01*
X2650000Y1095000D01*
Y2185000D01*
X1910000Y2925000D01*
X330000D01*
Y2030000D01*
X565000Y1795000D01*
Y1395000D01*
X510000D01*
Y1745000D01*
X255000Y2000000D01*
Y2785988D01*
X256326Y2786874D01*
X257652Y2788859D01*
X258118Y2791200D01*
Y2799200D01*
X257652Y2801541D01*
X256326Y2803526D01*
X255000Y2804412D01*
Y2813458D01*
X256002Y2814460D01*
X257318Y2816740D01*
X258000Y2819283D01*
Y2821917D01*
X257318Y2824460D01*
X256002Y2826740D01*
X255000Y2827742D01*
Y2838858D01*
X256002Y2839860D01*
X257318Y2842140D01*
X258000Y2844684D01*
Y2847317D01*
X257318Y2849860D01*
X256002Y2852140D01*
X255000Y2853142D01*
Y2864258D01*
X256002Y2865260D01*
X257318Y2867540D01*
X258000Y2870084D01*
Y2872716D01*
X257318Y2875260D01*
X256002Y2877540D01*
X255000Y2878542D01*
Y2990000D01*
X290000Y3025000D01*
X2165000D01*
X2900000Y2290000D01*
D02*
G37*
%LPC*%
G36*
X1974022Y2987040D02*
X1973970D01*
Y2978270D01*
X1982740D01*
Y2978322D01*
X1982056Y2980875D01*
X1980734Y2983165D01*
X1978865Y2985034D01*
X1976575Y2986356D01*
X1974022Y2987040D01*
D02*
G37*
G36*
X1971430D02*
X1971378D01*
X1968825Y2986356D01*
X1966535Y2985034D01*
X1964666Y2983165D01*
X1963344Y2980875D01*
X1962660Y2978322D01*
Y2978270D01*
X1971430D01*
Y2987040D01*
D02*
G37*
G36*
X454022Y2987040D02*
X453970D01*
Y2978270D01*
X462740D01*
Y2978322D01*
X462056Y2980875D01*
X460734Y2983165D01*
X458865Y2985034D01*
X456575Y2986356D01*
X454022Y2987040D01*
D02*
G37*
G36*
X451430D02*
X451378D01*
X448825Y2986356D01*
X446535Y2985034D01*
X444666Y2983165D01*
X443344Y2980875D01*
X442660Y2978322D01*
Y2978270D01*
X451430D01*
Y2987040D01*
D02*
G37*
G36*
X436800Y2986500D02*
X417800D01*
Y2967500D01*
X436800D01*
Y2986500D01*
D02*
G37*
G36*
X1956800Y2986500D02*
X1937800D01*
Y2967500D01*
X1956800D01*
Y2986500D01*
D02*
G37*
G36*
X462740Y2975730D02*
X453970D01*
Y2966960D01*
X454022D01*
X456575Y2967644D01*
X458865Y2968966D01*
X460734Y2970835D01*
X462056Y2973125D01*
X462740Y2975678D01*
Y2975730D01*
D02*
G37*
G36*
X451430D02*
X442660D01*
Y2975678D01*
X443344Y2973125D01*
X444666Y2970835D01*
X446535Y2968966D01*
X448825Y2967644D01*
X451378Y2966960D01*
X451430D01*
Y2975730D01*
D02*
G37*
G36*
X1982740Y2975730D02*
X1973970D01*
Y2966960D01*
X1974022D01*
X1976575Y2967644D01*
X1978865Y2968966D01*
X1980734Y2970835D01*
X1982056Y2973125D01*
X1982740Y2975678D01*
Y2975730D01*
D02*
G37*
G36*
X1971430D02*
X1962660D01*
Y2975678D01*
X1963344Y2973125D01*
X1964666Y2970835D01*
X1966535Y2968966D01*
X1968825Y2967644D01*
X1971378Y2966960D01*
X1971430D01*
Y2975730D01*
D02*
G37*
G36*
X2332265Y2786553D02*
X2327735D01*
X2323291Y2785670D01*
X2319105Y2783936D01*
X2315338Y2781418D01*
X2312135Y2778215D01*
X2309618Y2774448D01*
X2307884Y2770262D01*
X2307000Y2765819D01*
Y2761288D01*
X2307884Y2756844D01*
X2309618Y2752659D01*
X2312135Y2748892D01*
X2315338Y2745688D01*
X2319105Y2743171D01*
X2323291Y2741437D01*
X2327735Y2740553D01*
X2332265D01*
X2336709Y2741437D01*
X2340895Y2743171D01*
X2344662Y2745688D01*
X2347865Y2748892D01*
X2350382Y2752659D01*
X2352116Y2756844D01*
X2353000Y2761288D01*
Y2765819D01*
X2352116Y2770262D01*
X2350382Y2774448D01*
X2347865Y2778215D01*
X2344662Y2781418D01*
X2340895Y2783936D01*
X2336709Y2785670D01*
X2332265Y2786553D01*
D02*
G37*
G36*
X2685819Y2433000D02*
X2681288D01*
X2676844Y2432116D01*
X2672659Y2430382D01*
X2668892Y2427865D01*
X2665688Y2424662D01*
X2663171Y2420895D01*
X2661437Y2416709D01*
X2660553Y2412265D01*
Y2407735D01*
X2661437Y2403291D01*
X2663171Y2399105D01*
X2665688Y2395338D01*
X2668892Y2392135D01*
X2672659Y2389618D01*
X2676844Y2387884D01*
X2681288Y2387000D01*
X2685819D01*
X2690262Y2387884D01*
X2694448Y2389618D01*
X2698215Y2392135D01*
X2701418Y2395338D01*
X2703936Y2399105D01*
X2705670Y2403291D01*
X2706553Y2407735D01*
Y2412265D01*
X2705670Y2416709D01*
X2703936Y2420895D01*
X2701418Y2424662D01*
X2698215Y2427865D01*
X2694448Y2430382D01*
X2690262Y2432116D01*
X2685819Y2433000D01*
D02*
G37*
G36*
X1626414Y562940D02*
X1625770D01*
Y549670D01*
X1639040D01*
Y550314D01*
X1638049Y554012D01*
X1636135Y557328D01*
X1633428Y560035D01*
X1630112Y561949D01*
X1626414Y562940D01*
D02*
G37*
G36*
X1623230D02*
X1622586D01*
X1618888Y561949D01*
X1615572Y560035D01*
X1612865Y557328D01*
X1610951Y554012D01*
X1609960Y550314D01*
Y549670D01*
X1623230D01*
Y562940D01*
D02*
G37*
G36*
X1639040Y547130D02*
X1625770D01*
Y533860D01*
X1626414D01*
X1630112Y534851D01*
X1633428Y536765D01*
X1636135Y539472D01*
X1638049Y542788D01*
X1639040Y546486D01*
Y547130D01*
D02*
G37*
G36*
X1623230D02*
X1609960D01*
Y546486D01*
X1610951Y542788D01*
X1612865Y539472D01*
X1615572Y536765D01*
X1618888Y534851D01*
X1622586Y533860D01*
X1623230D01*
Y547130D01*
D02*
G37*
%LPD*%
G36*
X2336114Y2783709D02*
X2339929Y2782129D01*
X2343362Y2779835D01*
X2346281Y2776915D01*
X2348575Y2773482D01*
X2350155Y2769667D01*
X2350961Y2765618D01*
Y2761489D01*
X2350155Y2757439D01*
X2348575Y2753625D01*
X2346281Y2750192D01*
X2343362Y2747272D01*
X2339929Y2744978D01*
X2336114Y2743398D01*
X2332065Y2742592D01*
X2327935D01*
X2323886Y2743398D01*
X2320071Y2744978D01*
X2316638Y2747272D01*
X2313719Y2750192D01*
X2311425Y2753625D01*
X2309845Y2757439D01*
X2309039Y2761489D01*
Y2765618D01*
X2309845Y2769667D01*
X2311425Y2773482D01*
X2313719Y2776915D01*
X2316638Y2779835D01*
X2320071Y2782129D01*
X2323886Y2783709D01*
X2327935Y2784514D01*
X2332065D01*
X2336114Y2783709D01*
D02*
G37*
G36*
X2689667Y2430155D02*
X2693482Y2428575D01*
X2696915Y2426281D01*
X2699835Y2423362D01*
X2702129Y2419929D01*
X2703709Y2416114D01*
X2704514Y2412065D01*
Y2407935D01*
X2703709Y2403886D01*
X2702129Y2400071D01*
X2699835Y2396638D01*
X2696915Y2393719D01*
X2693482Y2391425D01*
X2689667Y2389845D01*
X2685618Y2389039D01*
X2681489D01*
X2677439Y2389845D01*
X2673625Y2391425D01*
X2670192Y2393719D01*
X2667272Y2396638D01*
X2664978Y2400071D01*
X2663398Y2403886D01*
X2662592Y2407935D01*
Y2412065D01*
X2663398Y2416114D01*
X2664978Y2419929D01*
X2667272Y2423362D01*
X2670192Y2426281D01*
X2673625Y2428575D01*
X2677439Y2430155D01*
X2681489Y2430961D01*
X2685618D01*
X2689667Y2430155D01*
D02*
G37*
%LPC*%
G36*
X184088Y1661340D02*
X183970D01*
Y1652070D01*
X193240D01*
Y1652188D01*
X192522Y1654868D01*
X191134Y1657272D01*
X189172Y1659234D01*
X186768Y1660622D01*
X184088Y1661340D01*
D02*
G37*
G36*
X161300Y1661396D02*
X158570D01*
Y1652070D01*
X167896D01*
Y1654800D01*
X167672Y1656507D01*
X167013Y1658098D01*
X165964Y1659464D01*
X164598Y1660513D01*
X163007Y1661172D01*
X161300Y1661396D01*
D02*
G37*
G36*
X181430Y1661340D02*
X181312D01*
X178632Y1660622D01*
X176228Y1659234D01*
X174266Y1657272D01*
X172878Y1654868D01*
X172160Y1652188D01*
Y1652070D01*
X181430D01*
Y1661340D01*
D02*
G37*
G36*
X156030Y1661396D02*
X153300D01*
X151593Y1661172D01*
X150002Y1660513D01*
X148636Y1659464D01*
X147587Y1658098D01*
X146928Y1656507D01*
X146704Y1654800D01*
Y1652070D01*
X156030D01*
Y1661396D01*
D02*
G37*
G36*
X193240Y1649530D02*
X183970D01*
Y1640260D01*
X184088D01*
X186768Y1640978D01*
X189172Y1642366D01*
X191134Y1644328D01*
X192522Y1646732D01*
X193240Y1649412D01*
Y1649530D01*
D02*
G37*
G36*
X181430D02*
X172160D01*
Y1649412D01*
X172878Y1646732D01*
X174266Y1644328D01*
X176228Y1642366D01*
X178632Y1640978D01*
X181312Y1640260D01*
X181430D01*
Y1649530D01*
D02*
G37*
G36*
X167896D02*
X158570D01*
Y1640204D01*
X161300D01*
X163007Y1640428D01*
X164598Y1641087D01*
X165964Y1642136D01*
X167013Y1643502D01*
X167672Y1645093D01*
X167896Y1646800D01*
Y1649530D01*
D02*
G37*
G36*
X156030D02*
X146704D01*
Y1646800D01*
X146928Y1645093D01*
X147587Y1643502D01*
X148636Y1642136D01*
X150002Y1641087D01*
X151593Y1640428D01*
X153300Y1640204D01*
X156030D01*
Y1649530D01*
D02*
G37*
G36*
X184088Y1635940D02*
X183970D01*
Y1626670D01*
X193240D01*
Y1626788D01*
X192522Y1629468D01*
X191134Y1631872D01*
X189172Y1633834D01*
X186768Y1635222D01*
X184088Y1635940D01*
D02*
G37*
G36*
X181430D02*
X181312D01*
X178632Y1635222D01*
X176228Y1633834D01*
X174266Y1631872D01*
X172878Y1629468D01*
X172160Y1626788D01*
Y1626670D01*
X181430D01*
Y1635940D01*
D02*
G37*
G36*
X318322Y1390040D02*
X318270D01*
Y1381270D01*
X327040D01*
Y1381322D01*
X326356Y1383875D01*
X325034Y1386165D01*
X323165Y1388034D01*
X320875Y1389356D01*
X318322Y1390040D01*
D02*
G37*
G36*
X168322D02*
X168270D01*
Y1381270D01*
X177040D01*
Y1381322D01*
X176356Y1383875D01*
X175034Y1386165D01*
X173165Y1388034D01*
X170875Y1389356D01*
X168322Y1390040D01*
D02*
G37*
G36*
X315730D02*
X315678D01*
X313125Y1389356D01*
X310835Y1388034D01*
X308966Y1386165D01*
X307644Y1383875D01*
X306960Y1381322D01*
Y1381270D01*
X315730D01*
Y1390040D01*
D02*
G37*
G36*
X165730D02*
X165678D01*
X163125Y1389356D01*
X160835Y1388034D01*
X158966Y1386165D01*
X157644Y1383875D01*
X156960Y1381322D01*
Y1381270D01*
X165730D01*
Y1390040D01*
D02*
G37*
G36*
X327040Y1378730D02*
X318270D01*
Y1369960D01*
X318322D01*
X320875Y1370644D01*
X323165Y1371966D01*
X325034Y1373835D01*
X326356Y1376125D01*
X327040Y1378678D01*
Y1378730D01*
D02*
G37*
G36*
X315730D02*
X306960D01*
Y1378678D01*
X307644Y1376125D01*
X308966Y1373835D01*
X310835Y1371966D01*
X313125Y1370644D01*
X315678Y1369960D01*
X315730D01*
Y1378730D01*
D02*
G37*
G36*
X177040D02*
X168270D01*
Y1369960D01*
X168322D01*
X170875Y1370644D01*
X173165Y1371966D01*
X175034Y1373835D01*
X176356Y1376125D01*
X177040Y1378678D01*
Y1378730D01*
D02*
G37*
G36*
X165730D02*
X156960D01*
Y1378678D01*
X157644Y1376125D01*
X158966Y1373835D01*
X160835Y1371966D01*
X163125Y1370644D01*
X165678Y1369960D01*
X165730D01*
Y1378730D01*
D02*
G37*
G36*
X318322Y1270040D02*
X318270D01*
Y1261270D01*
X327040D01*
Y1261322D01*
X326356Y1263875D01*
X325034Y1266165D01*
X323165Y1268034D01*
X320875Y1269356D01*
X318322Y1270040D01*
D02*
G37*
G36*
X168322D02*
X168270D01*
Y1261270D01*
X177040D01*
Y1261322D01*
X176356Y1263875D01*
X175034Y1266165D01*
X173165Y1268034D01*
X170875Y1269356D01*
X168322Y1270040D01*
D02*
G37*
G36*
X315730D02*
X315678D01*
X313125Y1269356D01*
X310835Y1268034D01*
X308966Y1266165D01*
X307644Y1263875D01*
X306960Y1261322D01*
Y1261270D01*
X315730D01*
Y1270040D01*
D02*
G37*
G36*
X165730D02*
X165678D01*
X163125Y1269356D01*
X160835Y1268034D01*
X158966Y1266165D01*
X157644Y1263875D01*
X156960Y1261322D01*
Y1261270D01*
X165730D01*
Y1270040D01*
D02*
G37*
G36*
X327040Y1258730D02*
X318270D01*
Y1249960D01*
X318322D01*
X320875Y1250644D01*
X323165Y1251966D01*
X325034Y1253835D01*
X326356Y1256125D01*
X327040Y1258678D01*
Y1258730D01*
D02*
G37*
G36*
X315730D02*
X306960D01*
Y1258678D01*
X307644Y1256125D01*
X308966Y1253835D01*
X310835Y1251966D01*
X313125Y1250644D01*
X315678Y1249960D01*
X315730D01*
Y1258730D01*
D02*
G37*
G36*
X177040D02*
X168270D01*
Y1249960D01*
X168322D01*
X170875Y1250644D01*
X173165Y1251966D01*
X175034Y1253835D01*
X176356Y1256125D01*
X177040Y1258678D01*
Y1258730D01*
D02*
G37*
G36*
X165730D02*
X156960D01*
Y1258678D01*
X157644Y1256125D01*
X158966Y1253835D01*
X160835Y1251966D01*
X163125Y1250644D01*
X165678Y1249960D01*
X165730D01*
Y1258730D01*
D02*
G37*
G36*
X193240Y1573330D02*
X183970D01*
Y1564060D01*
X184088D01*
X186768Y1564778D01*
X189172Y1566166D01*
X191134Y1568128D01*
X192522Y1570532D01*
X193240Y1573212D01*
Y1573330D01*
D02*
G37*
G36*
X181430D02*
X172160D01*
Y1573212D01*
X172878Y1570532D01*
X174266Y1568128D01*
X176228Y1566166D01*
X178632Y1564778D01*
X181312Y1564060D01*
X181430D01*
Y1573330D01*
D02*
G37*
G36*
X184088Y1559740D02*
X183970D01*
Y1550470D01*
X193240D01*
Y1550588D01*
X192522Y1553268D01*
X191134Y1555672D01*
X189172Y1557634D01*
X186768Y1559022D01*
X184088Y1559740D01*
D02*
G37*
G36*
X158688D02*
X158570D01*
Y1550470D01*
X167840D01*
Y1550588D01*
X167122Y1553268D01*
X165734Y1555672D01*
X163772Y1557634D01*
X161368Y1559022D01*
X158688Y1559740D01*
D02*
G37*
G36*
X181430D02*
X181312D01*
X178632Y1559022D01*
X176228Y1557634D01*
X174266Y1555672D01*
X172878Y1553268D01*
X172160Y1550588D01*
Y1550470D01*
X181430D01*
Y1559740D01*
D02*
G37*
G36*
X156030D02*
X155912D01*
X153232Y1559022D01*
X150828Y1557634D01*
X148866Y1555672D01*
X147478Y1553268D01*
X146760Y1550588D01*
Y1550470D01*
X156030D01*
Y1559740D01*
D02*
G37*
G36*
X193240Y1547930D02*
X183970D01*
Y1538660D01*
X184088D01*
X186768Y1539378D01*
X189172Y1540766D01*
X191134Y1542728D01*
X192522Y1545132D01*
X193240Y1547812D01*
Y1547930D01*
D02*
G37*
G36*
X181430D02*
X172160D01*
Y1547812D01*
X172878Y1545132D01*
X174266Y1542728D01*
X176228Y1540766D01*
X178632Y1539378D01*
X181312Y1538660D01*
X181430D01*
Y1547930D01*
D02*
G37*
G36*
X167840D02*
X158570D01*
Y1538660D01*
X158688D01*
X161368Y1539378D01*
X163772Y1540766D01*
X165734Y1542728D01*
X167122Y1545132D01*
X167840Y1547812D01*
Y1547930D01*
D02*
G37*
G36*
X156030D02*
X146760D01*
Y1547812D01*
X147478Y1545132D01*
X148866Y1542728D01*
X150828Y1540766D01*
X153232Y1539378D01*
X155912Y1538660D01*
X156030D01*
Y1547930D01*
D02*
G37*
G36*
X365922Y1547000D02*
X364078D01*
X362298Y1546523D01*
X360702Y1545601D01*
X359399Y1544298D01*
X358477Y1542702D01*
X358000Y1540922D01*
Y1539078D01*
X358477Y1537298D01*
X359399Y1535702D01*
X360702Y1534399D01*
X362298Y1533477D01*
X364078Y1533000D01*
X365922D01*
X367702Y1533477D01*
X369298Y1534399D01*
X370601Y1535702D01*
X371523Y1537298D01*
X372000Y1539078D01*
Y1540922D01*
X371523Y1542702D01*
X370601Y1544298D01*
X369298Y1545601D01*
X367702Y1546523D01*
X365922Y1547000D01*
D02*
G37*
G36*
X327040Y1415440D02*
X318270D01*
Y1406670D01*
X327040D01*
Y1415440D01*
D02*
G37*
G36*
X177040D02*
X168270D01*
Y1406670D01*
X177040D01*
Y1415440D01*
D02*
G37*
G36*
X315730D02*
X306960D01*
Y1406670D01*
X315730D01*
Y1415440D01*
D02*
G37*
G36*
X165730D02*
X156960D01*
Y1406670D01*
X165730D01*
Y1415440D01*
D02*
G37*
G36*
X327040Y1295440D02*
X318270D01*
Y1286670D01*
X327040D01*
Y1295440D01*
D02*
G37*
G36*
X177040D02*
X168270D01*
Y1286670D01*
X177040D01*
Y1295440D01*
D02*
G37*
G36*
X315730D02*
X306960D01*
Y1286670D01*
X315730D01*
Y1295440D01*
D02*
G37*
G36*
X165730D02*
X156960D01*
Y1286670D01*
X165730D01*
Y1295440D01*
D02*
G37*
G36*
X923187Y480500D02*
X916813D01*
X910516Y479503D01*
X904453Y477533D01*
X898773Y474639D01*
X893616Y470892D01*
X889108Y466384D01*
X885361Y461227D01*
X882467Y455547D01*
X880497Y449484D01*
X879500Y443187D01*
Y436813D01*
X880497Y430516D01*
X882467Y424453D01*
X885361Y418773D01*
X889108Y413616D01*
X893616Y409108D01*
X898773Y405361D01*
X904453Y402467D01*
X910516Y400497D01*
X916813Y399500D01*
X923187D01*
X929484Y400497D01*
X935547Y402467D01*
X941227Y405361D01*
X946384Y409108D01*
X950892Y413616D01*
X954639Y418773D01*
X957533Y424453D01*
X959503Y430516D01*
X960500Y436813D01*
Y443187D01*
X959503Y449484D01*
X957533Y455547D01*
X954639Y461227D01*
X950892Y466384D01*
X946384Y470892D01*
X941227Y474639D01*
X935547Y477533D01*
X929484Y479503D01*
X923187Y480500D01*
D02*
G37*
G36*
Y305500D02*
X916813D01*
X910516Y304503D01*
X904453Y302533D01*
X898773Y299639D01*
X893616Y295892D01*
X889108Y291384D01*
X885361Y286227D01*
X882467Y280547D01*
X880497Y274484D01*
X879500Y268187D01*
Y261813D01*
X880497Y255516D01*
X882467Y249453D01*
X885361Y243773D01*
X889108Y238616D01*
X893616Y234108D01*
X898773Y230361D01*
X904453Y227467D01*
X910516Y225497D01*
X916813Y224500D01*
X923187D01*
X929484Y225497D01*
X935547Y227467D01*
X941227Y230361D01*
X946384Y234108D01*
X950892Y238616D01*
X954639Y243773D01*
X957533Y249453D01*
X959503Y255516D01*
X960500Y261813D01*
Y268187D01*
X959503Y274484D01*
X957533Y280547D01*
X954639Y286227D01*
X950892Y291384D01*
X946384Y295892D01*
X941227Y299639D01*
X935547Y302533D01*
X929484Y304503D01*
X923187Y305500D01*
D02*
G37*
G36*
X336000Y267023D02*
X324000D01*
X319001Y266531D01*
X314194Y265073D01*
X309764Y262705D01*
X305881Y259519D01*
X302695Y255636D01*
X300327Y251206D01*
X298869Y246399D01*
X298376Y241400D01*
Y229400D01*
X298869Y224401D01*
X300327Y219594D01*
X302695Y215164D01*
X305881Y211282D01*
X309764Y208095D01*
X314194Y205727D01*
X319001Y204269D01*
X324000Y203777D01*
X336000D01*
X340999Y204269D01*
X345806Y205727D01*
X350235Y208095D01*
X354118Y211282D01*
X357305Y215164D01*
X359673Y219594D01*
X361131Y224401D01*
X361623Y229400D01*
Y241400D01*
X361131Y246399D01*
X359673Y251206D01*
X357305Y255636D01*
X354118Y259519D01*
X350235Y262705D01*
X345806Y265073D01*
X340999Y266531D01*
X336000Y267023D01*
D02*
G37*
%LPD*%
D13*
X480000Y1532270D02*
X488000Y1524270D01*
X437000Y1604270D02*
X465000Y1576270D01*
X408000Y1604270D02*
X437000D01*
X480000Y1532270D02*
Y1661270D01*
X1438000Y2828000D02*
Y2857000D01*
X1410000Y2800000D02*
X1438000Y2828000D01*
X1366000Y2785000D02*
X1495000D01*
X1358000Y2777000D02*
X1366000Y2785000D01*
D39*
X2400300Y1125400D02*
D03*
X1879600Y1176200D02*
D03*
X1574800Y1125400D02*
D03*
X1638300Y1608000D02*
D03*
X2387600D02*
D03*
D56*
X2550000Y65000D02*
D03*
X750000D02*
D03*
X2550000Y3135000D02*
D03*
X750000D02*
D03*
D60*
X380000Y594950D02*
D03*
Y564950D02*
D03*
Y534950D02*
D03*
Y504950D02*
D03*
D80*
X1030000Y1210000D02*
Y1265000D01*
X1280000Y1250000D02*
Y1330000D01*
X1178000Y1340000D02*
X1230000D01*
X1350000Y975000D02*
Y1081000D01*
X1015000Y1210000D02*
Y1265000D01*
X228000Y1600000D02*
Y1775000D01*
X2034000Y1540000D02*
X2288000D01*
X148500Y1919500D02*
X148750Y1919250D01*
X242750D01*
X243000Y1919000D01*
X840529Y1956243D02*
X1030000D01*
X790023Y1414978D02*
Y1455018D01*
X790000Y1455040D02*
X790023Y1455018D01*
Y1414978D02*
X790045Y1414955D01*
X380000Y534950D02*
Y564950D01*
D81*
X1529000Y2015000D02*
X2070000D01*
X1326000Y1812000D02*
X1529000Y2015000D01*
X1326000Y1547000D02*
Y1812000D01*
X1280000Y1501000D02*
X1326000Y1547000D01*
X1643000Y1285410D02*
Y1331000D01*
D82*
X1409000Y1068000D02*
X1880000D01*
X1880000Y680000D02*
Y1068000D01*
X1840000Y640000D02*
X1880000Y680000D01*
X1880000Y1068000D02*
X2125000D01*
X1880000D02*
X1880000Y1068000D01*
X2165000Y1245000D02*
X2675000D01*
X2082800Y1162800D02*
X2165000Y1245000D01*
X2082800Y1125400D02*
Y1162800D01*
X386000Y1133000D02*
X985000D01*
X203000D02*
X386000D01*
X385000Y1132000D02*
X386000Y1133000D01*
X385000Y1048000D02*
Y1132000D01*
X1198000Y1279000D02*
X1409000Y1068000D01*
X2125000D02*
X2159000Y1102000D01*
Y1125400D01*
X1131000Y1279000D02*
X1198000D01*
X985000Y1133000D02*
X1131000Y1279000D01*
X170000Y1100000D02*
X203000Y1133000D01*
X164081Y1094290D02*
X164290D01*
X170000Y1100000D01*
X145000Y1075209D02*
X164081Y1094290D01*
X145000Y995000D02*
X170000Y970000D01*
X145000Y995000D02*
Y1075209D01*
D84*
X2260600Y1125400D02*
D03*
X2235200D02*
D03*
X2209800D02*
D03*
X2184400D02*
D03*
X2159000D02*
D03*
X2133600D02*
D03*
X2108200D02*
D03*
X2082800D02*
D03*
X2032000D02*
D03*
X2006600D02*
D03*
X1981200D02*
D03*
X1955800D02*
D03*
X1930400D02*
D03*
X1905000D02*
D03*
X1879600D02*
D03*
X1854200D02*
D03*
X1803400D02*
D03*
X1778000D02*
D03*
X1752600D02*
D03*
X1727200D02*
D03*
X1701800D02*
D03*
X1676400D02*
D03*
X1651000D02*
D03*
X1625600D02*
D03*
X1676400Y1608000D02*
D03*
X1701800D02*
D03*
X1727200D02*
D03*
X1752600D02*
D03*
X1778000D02*
D03*
X1803400D02*
D03*
X1828800D02*
D03*
X1854200D02*
D03*
X1905000D02*
D03*
X1930400D02*
D03*
X1955800D02*
D03*
X1981200D02*
D03*
X2006600D02*
D03*
X2032000D02*
D03*
X2057400D02*
D03*
X2082800D02*
D03*
X2123440D02*
D03*
X2148840D02*
D03*
X2174240D02*
D03*
X2199640D02*
D03*
X2225040D02*
D03*
X2250440D02*
D03*
X2275840D02*
D03*
X2301240D02*
D03*
X2326640D02*
D03*
X2352040D02*
D03*
D85*
X1905000Y1425120D02*
D03*
X1879600Y1374320D02*
D03*
X1905000D02*
D03*
X1879600Y1399720D02*
D03*
X1905000D02*
D03*
X1879600Y1425120D02*
D03*
X1600200Y1608000D02*
D03*
X1574800D02*
D03*
X1600200Y1582600D02*
D03*
X1574800D02*
D03*
X1600200Y1557200D02*
D03*
X1574800D02*
D03*
X1600200Y1531800D02*
D03*
X1574800D02*
D03*
X1600200Y1506400D02*
D03*
X1574800D02*
D03*
X1600200Y1481000D02*
D03*
X1574800D02*
D03*
X1600200Y1455600D02*
D03*
X1574800D02*
D03*
X1600200Y1430200D02*
D03*
X1574800D02*
D03*
X1600200Y1404800D02*
D03*
X1574800D02*
D03*
X1600200Y1379400D02*
D03*
X1574800D02*
D03*
X1600200Y1354000D02*
D03*
X1574800D02*
D03*
X1600200Y1328600D02*
D03*
X1574800D02*
D03*
X1600200Y1303200D02*
D03*
X1574800D02*
D03*
X1600200Y1277800D02*
D03*
X1574800D02*
D03*
X1600200Y1252400D02*
D03*
X1574800D02*
D03*
X1600200Y1227000D02*
D03*
X1574800D02*
D03*
X1600200Y1201600D02*
D03*
X1574800D02*
D03*
X1600200Y1176200D02*
D03*
X1574800D02*
D03*
D86*
X497000Y1292700D02*
D03*
Y1267300D02*
D03*
Y1241900D02*
D03*
X1617000Y341900D02*
D03*
Y367300D02*
D03*
Y392700D02*
D03*
X452700Y2977000D02*
D03*
X817300Y1203000D02*
D03*
X717300D02*
D03*
X617300D02*
D03*
X1640000Y2725000D02*
D03*
X1614600D02*
D03*
X1665400D02*
D03*
X1690800D02*
D03*
X1972700Y2977000D02*
D03*
X167000Y1380000D02*
D03*
Y1354600D02*
D03*
Y1260000D02*
D03*
Y1234600D02*
D03*
X317000Y1380000D02*
D03*
Y1354600D02*
D03*
Y1260000D02*
D03*
Y1234600D02*
D03*
X922119Y2072122D02*
D03*
X904159Y2090082D02*
D03*
X847103Y1980778D02*
D03*
X840529Y1956243D02*
D03*
D87*
X497000Y1318100D02*
D03*
X1617000Y418100D02*
D03*
X167000Y1405400D02*
D03*
Y1285400D02*
D03*
X317000Y1405400D02*
D03*
Y1285400D02*
D03*
D88*
X280000Y600800D02*
D03*
X1375500Y834600D02*
D03*
X330000Y235400D02*
D03*
Y395400D02*
D03*
X1624500Y751600D02*
D03*
D89*
X280000Y550000D02*
D03*
Y499200D02*
D03*
X1375500Y885400D02*
D03*
X330000Y184600D02*
D03*
Y344600D02*
D03*
X1624500Y650000D02*
D03*
Y700800D02*
D03*
Y599200D02*
D03*
Y548400D02*
D03*
D90*
X350000Y600000D02*
D03*
Y500000D02*
D03*
D91*
X432500Y487500D02*
D03*
X707500Y612500D02*
D03*
X432500D02*
D03*
D92*
X707500Y487500D02*
D03*
D93*
X640000Y820000D02*
D03*
Y720000D02*
D03*
X540000Y820000D02*
D03*
Y720000D02*
D03*
D94*
X248000Y2871400D02*
D03*
Y2846000D02*
D03*
Y2820600D02*
D03*
X182700Y1650800D02*
D03*
X157300Y1625400D02*
D03*
X182700D02*
D03*
X157300Y1600000D02*
D03*
X182700D02*
D03*
X157300Y1574600D02*
D03*
Y1549200D02*
D03*
X182700Y1574600D02*
D03*
Y1549200D02*
D03*
D95*
X248000Y2795200D02*
D03*
X157300Y1650800D02*
D03*
D96*
X427300Y2977000D02*
D03*
X842700Y1203000D02*
D03*
X742700D02*
D03*
X642700D02*
D03*
X1589200Y2725000D02*
D03*
X1947300Y2977000D02*
D03*
D97*
X170000Y1060000D02*
D03*
Y1080000D02*
D03*
Y930000D02*
D03*
Y950000D02*
D03*
D98*
Y1100000D02*
D03*
Y970000D02*
D03*
D99*
X940080Y2054161D02*
D03*
D100*
X853677Y2005312D02*
D03*
D101*
X347630Y665243D02*
D03*
X1030000Y1210000D02*
D03*
Y1265000D02*
D03*
X420000Y1560000D02*
D03*
Y1540000D02*
D03*
X1310000Y1500000D02*
D03*
X1395000Y2845000D02*
D03*
X1375000D02*
D03*
X2070000Y2781000D02*
D03*
Y2015000D02*
D03*
X481000Y2934000D02*
D03*
X1178000Y1340000D02*
D03*
X1230000D02*
D03*
X1618000Y192000D02*
D03*
Y178000D02*
D03*
Y106000D02*
D03*
Y119000D02*
D03*
X1391000Y2942000D02*
D03*
Y2957000D02*
D03*
X550000Y1415000D02*
D03*
X540000Y1430000D02*
D03*
X530000Y1445000D02*
D03*
X293000Y2640000D02*
D03*
X247000Y2639500D02*
D03*
X1840000Y640000D02*
D03*
X495000Y2685000D02*
D03*
X475000D02*
D03*
X1055000Y1417000D02*
D03*
X1080000D02*
D03*
X1355000Y1420000D02*
D03*
X1340000D02*
D03*
X2035000Y1985000D02*
D03*
X2020000D02*
D03*
X2005000D02*
D03*
X1931000Y1771000D02*
D03*
X1280000Y1330000D02*
D03*
X1350000Y1081000D02*
D03*
X1198000Y1279000D02*
D03*
X1280000Y1250000D02*
D03*
Y1360000D02*
D03*
X1305000Y1370000D02*
D03*
X1255000Y1427000D02*
D03*
X955000Y1985000D02*
D03*
X970000D02*
D03*
X985000D02*
D03*
X300000Y1815000D02*
D03*
X315000D02*
D03*
X330000D02*
D03*
X865000Y2105000D02*
D03*
X850000D02*
D03*
X835000D02*
D03*
X228000Y1775000D02*
D03*
Y1600000D02*
D03*
X2000800Y2893800D02*
D03*
X2288000Y1540000D02*
D03*
X2034000D02*
D03*
X1643000Y1285410D02*
D03*
Y1331000D02*
D03*
X1280000Y1501000D02*
D03*
X1290850Y1452850D02*
D03*
X385000Y1032000D02*
D03*
Y1048000D02*
D03*
X148500Y1919500D02*
D03*
X243000Y1919000D02*
D03*
X1030000Y1956243D02*
D03*
X619200Y1439200D02*
D03*
X1350000Y975000D02*
D03*
X1015000Y1210000D02*
D03*
Y1265000D02*
D03*
X790000Y1455040D02*
D03*
X790045Y1414955D02*
D03*
X1100000Y1370000D02*
D03*
Y1485000D02*
D03*
X1149000Y1406000D02*
D03*
Y1449000D02*
D03*
X365000Y1540000D02*
D03*
X1397000Y1357500D02*
D03*
D102*
X488000Y1524270D02*
D03*
X408000Y1604270D02*
D03*
X465000Y1576270D02*
D03*
X480000Y1661270D02*
D03*
X1438000Y2857000D02*
D03*
X1410000Y2800000D02*
D03*
X1358000Y2777000D02*
D03*
X1495000Y2785000D02*
D03*
M02*
