G04*
G04 #@! TF.GenerationSoftware,Altium Limited,Altium Designer,22.4.2 (48)*
G04*
G04 Layer_Color=65535*
%FSLAX44Y44*%
%MOMM*%
G71*
G04*
G04 #@! TF.SameCoordinates,486C5EB1-174D-4488-8CC1-BEBE5ED833F6*
G04*
G04*
G04 #@! TF.FilePolarity,Positive*
G04*
G01*
G75*
%ADD10C,0.1000*%
%ADD11C,0.2500*%
%ADD12C,0.2000*%
%ADD13C,0.2540*%
%ADD14R,0.8000X4.5000*%
D10*
X328371Y656262D02*
G03*
X327465Y655839I-453J-211D01*
G01*
D02*
G03*
X328371Y656262I453J211D01*
G01*
X1484000Y1380001D02*
X1478668D01*
X1481334Y1377336D02*
Y1382667D01*
X1484000Y1335001D02*
X1478668D01*
X1481334Y1332336D02*
Y1337667D01*
D11*
X535250Y1318100D02*
G03*
X535250Y1318100I-1250J0D01*
G01*
X1655250Y418100D02*
G03*
X1655250Y418100I-1250J0D01*
G01*
X1311250Y1432000D02*
G03*
X1311250Y1432000I-1250J0D01*
G01*
X428550Y3014000D02*
G03*
X428550Y3014000I-1250J0D01*
G01*
X843950Y1166000D02*
G03*
X843950Y1166000I-1250J0D01*
G01*
X743950D02*
G03*
X743950Y1166000I-1250J0D01*
G01*
X643950D02*
G03*
X643950Y1166000I-1250J0D01*
G01*
X1590450Y2762000D02*
G03*
X1590450Y2762000I-1250J0D01*
G01*
X1948550Y3014000D02*
G03*
X1948550Y3014000I-1250J0D01*
G01*
X205250Y1405400D02*
G03*
X205250Y1405400I-1250J0D01*
G01*
Y1285400D02*
G03*
X205250Y1285400I-1250J0D01*
G01*
X355250Y1405400D02*
G03*
X355250Y1405400I-1250J0D01*
G01*
Y1285400D02*
G03*
X355250Y1285400I-1250J0D01*
G01*
X915167Y2027998D02*
G03*
X915167Y2027998I-1250J0D01*
G01*
X890666Y1995736D02*
G03*
X890666Y1995736I-1250J0D01*
G01*
D12*
X507119Y424917D02*
G03*
X632874Y424915I62879J125070D01*
G01*
Y675085D02*
G03*
X507119Y675083I-62876J-125072D01*
G01*
X372987Y659964D02*
X420115Y681940D01*
X359885Y688060D02*
X407013Y710036D01*
X238750Y2649750D02*
Y2662250D01*
X237500Y2672500D02*
X302500D01*
Y2707500D01*
X237500D02*
X302500D01*
X237500Y2672500D02*
Y2707500D01*
X529750Y1227500D02*
Y1332500D01*
X470250D02*
X529750D01*
X470250Y1227500D02*
Y1332500D01*
Y1227500D02*
X529750D01*
X300000Y463800D02*
Y636200D01*
X180000D02*
X300000D01*
X180000Y463800D02*
Y636200D01*
Y463800D02*
X300000D01*
X312500Y482500D02*
X387500D01*
Y617500D01*
X312500D02*
X387500D01*
X312500Y482500D02*
Y617500D01*
X732500Y475000D02*
Y625000D01*
X407500Y475000D02*
X507120Y424918D01*
X407500Y475000D02*
Y625000D01*
X632875Y424916D02*
X732500Y475000D01*
X632875Y675084D02*
X732500Y625000D01*
X407500D02*
X507120Y675082D01*
X1337499Y799200D02*
Y920800D01*
Y799200D02*
X1422500D01*
Y920800D01*
X1337499D02*
X1422500D01*
X350000Y149200D02*
Y270800D01*
X230000D02*
X350000D01*
X230000Y149200D02*
Y270800D01*
Y149200D02*
X350000D01*
X1590250Y327500D02*
X1649750D01*
X1590250D02*
Y432500D01*
X1649750D01*
Y327500D02*
Y432500D01*
X350000Y309200D02*
Y430800D01*
X230000D02*
X350000D01*
X230000Y309200D02*
Y430800D01*
Y309200D02*
X350000D01*
X1662501Y513000D02*
Y787000D01*
X1577500D02*
X1662501D01*
X1577500Y513000D02*
Y787000D01*
Y513000D02*
X1662501D01*
X385500Y1575800D02*
X400750D01*
X592000Y1553500D02*
Y1666500D01*
X561000Y1553500D02*
X592000D01*
X561000Y1666500D02*
X592000D01*
X488000D02*
X519000D01*
X488000Y1553500D02*
X519000D01*
X488000D02*
Y1666500D01*
X1189000Y1470250D02*
X1221000D01*
Y1383750D02*
Y1470250D01*
X1189000Y1383750D02*
X1221000D01*
X1189000D02*
Y1470250D01*
X1170250Y1471850D02*
X1185500D01*
X1317500Y1454500D02*
Y1469500D01*
X1302500Y1454500D02*
Y1469500D01*
X234550Y2885600D02*
X261450D01*
X234550Y2781000D02*
Y2885600D01*
Y2781000D02*
X261450D01*
Y2885600D01*
X467100Y2950250D02*
Y3009750D01*
X412900Y2950250D02*
X467100D01*
X412900D02*
Y3009750D01*
X467100D01*
X802900Y1170250D02*
Y1229750D01*
X857100D01*
Y1170250D02*
Y1229750D01*
X802900Y1170250D02*
X857100D01*
X702900D02*
Y1229750D01*
X757100D01*
Y1170250D02*
Y1229750D01*
X702900Y1170250D02*
X757100D01*
X727750Y1331000D02*
Y1399000D01*
X612250Y1331000D02*
X727750D01*
X612250D02*
Y1399000D01*
X727750D01*
X727550Y1402500D02*
Y1422000D01*
X602900Y1170250D02*
Y1229750D01*
X657100D01*
Y1170250D02*
Y1229750D01*
X602900Y1170250D02*
X657100D01*
X372250Y2786000D02*
Y2854000D01*
X487750D01*
Y2786000D02*
Y2854000D01*
X372250Y2786000D02*
X487750D01*
X372450Y2763000D02*
Y2782500D01*
X1892250Y2786000D02*
Y2854000D01*
X2007750D01*
Y2786000D02*
Y2854000D01*
X1892250Y2786000D02*
X2007750D01*
X1892450Y2763000D02*
Y2782500D01*
X1705200Y2698250D02*
Y2757750D01*
X1574800Y2698250D02*
X1705200D01*
X1574800D02*
Y2757750D01*
X1705200D01*
X1987100Y2950250D02*
Y3009750D01*
X1932900Y2950250D02*
X1987100D01*
X1932900D02*
Y3009750D01*
X1987100D01*
X125000Y1497200D02*
X215000D01*
Y1702800D01*
X125000Y1497200D02*
Y1702800D01*
X215000D01*
X142000Y1119500D02*
X170000D01*
X142000Y1040500D02*
Y1119500D01*
Y1040500D02*
X187000D01*
Y1100000D01*
X142000Y989500D02*
X170000D01*
X142000Y910500D02*
Y989500D01*
Y910500D02*
X187000D01*
Y970000D01*
X344500Y1010750D02*
Y1025000D01*
X345000Y1028500D02*
X375000D01*
Y1051500D01*
X345000D02*
X375000D01*
X345000Y1028500D02*
Y1051500D01*
X140250Y1340200D02*
X199750D01*
X140250D02*
Y1419800D01*
X199750D01*
Y1340200D02*
Y1419800D01*
X140250Y1220200D02*
X199750D01*
X140250D02*
Y1299800D01*
X199750D01*
Y1220200D02*
Y1299800D01*
X290250Y1340200D02*
X349750D01*
X290250D02*
Y1419800D01*
X349750D01*
Y1340200D02*
Y1419800D01*
X290250Y1220200D02*
X349750D01*
X290250D02*
Y1299800D01*
X349750D01*
Y1220200D02*
Y1299800D01*
X1410800Y2864250D02*
Y2879500D01*
X1388500Y2777000D02*
X1501500D01*
X1388500Y2746000D02*
Y2777000D01*
X1501500Y2746000D02*
Y2777000D01*
Y2673000D02*
Y2704000D01*
X1388500Y2673000D02*
Y2704000D01*
Y2673000D02*
X1501500D01*
X870819Y2077107D02*
X912892Y2119180D01*
X969177Y2062894D01*
X927105Y2020821D02*
X969177Y2062894D01*
X870819Y2077107D02*
X927105Y2020821D01*
X810963Y1949258D02*
X868436Y1933858D01*
X810963Y1949258D02*
X831565Y2026145D01*
X889038Y2010746D01*
X868436Y1933858D02*
X889038Y2010746D01*
D13*
X324343Y763929D02*
X314186D01*
Y756311D01*
X319264D01*
X314186D01*
Y748694D01*
X329421D02*
X334499D01*
X331960D01*
Y763929D01*
X329421Y761390D01*
X1917434Y2832764D02*
Y2847999D01*
X1925052D01*
X1927591Y2845460D01*
Y2840381D01*
X1925052Y2837842D01*
X1917434D01*
X1932669Y2847999D02*
Y2835303D01*
X1935208Y2832764D01*
X1940287D01*
X1942826Y2835303D01*
Y2847999D01*
X1947904Y2832764D02*
Y2847999D01*
X1952982Y2842921D01*
X1958061Y2847999D01*
Y2832764D01*
X1963139D02*
Y2847999D01*
X1970757D01*
X1973296Y2845460D01*
Y2840381D01*
X1970757Y2837842D01*
X1963139D01*
X1978374Y2832764D02*
X1983453D01*
X1980914D01*
Y2847999D01*
X1978374Y2845460D01*
X1637272Y140364D02*
Y155599D01*
X1644890D01*
X1647429Y153060D01*
Y147982D01*
X1644890Y145442D01*
X1637272D01*
X1642350D02*
X1647429Y140364D01*
X1662664D02*
X1652507D01*
X1662664Y150521D01*
Y153060D01*
X1660125Y155599D01*
X1655046D01*
X1652507Y153060D01*
X1677899Y155599D02*
X1672820Y153060D01*
X1667742Y147982D01*
Y142903D01*
X1670281Y140364D01*
X1675360D01*
X1677899Y142903D01*
Y145442D01*
X1675360Y147982D01*
X1667742D01*
X236208Y2755797D02*
Y2743101D01*
X238747Y2740562D01*
X243825D01*
X246365Y2743101D01*
Y2755797D01*
X261600D02*
X251443D01*
Y2748180D01*
X256521Y2750719D01*
X259061D01*
X261600Y2748180D01*
Y2743101D01*
X259061Y2740562D01*
X253982D01*
X251443Y2743101D01*
X480807Y1357527D02*
X475728D01*
X478268D01*
Y1344831D01*
X475728Y1342292D01*
X473189D01*
X470650Y1344831D01*
X485885Y1342292D02*
Y1357527D01*
X493503D01*
X496042Y1354988D01*
Y1349910D01*
X493503Y1347370D01*
X485885D01*
X501120Y1354988D02*
X503659Y1357527D01*
X508738D01*
X511277Y1354988D01*
Y1352449D01*
X508738Y1349910D01*
X511277Y1347370D01*
Y1344831D01*
X508738Y1342292D01*
X503659D01*
X501120Y1344831D01*
Y1347370D01*
X503659Y1349910D01*
X501120Y1352449D01*
Y1354988D01*
X503659Y1349910D02*
X508738D01*
X1454138Y1364639D02*
Y1349404D01*
X1461756D01*
X1464295Y1351943D01*
Y1362100D01*
X1461756Y1364639D01*
X1454138D01*
X1469373Y1362100D02*
X1471912Y1364639D01*
X1476991D01*
X1479530Y1362100D01*
Y1359561D01*
X1476991Y1357021D01*
X1474451D01*
X1476991D01*
X1479530Y1354482D01*
Y1351943D01*
X1476991Y1349404D01*
X1471912D01*
X1469373Y1351943D01*
X1454138Y1409597D02*
Y1394362D01*
X1461756D01*
X1464295Y1396901D01*
Y1407058D01*
X1461756Y1409597D01*
X1454138D01*
X1479530Y1394362D02*
X1469373D01*
X1479530Y1404519D01*
Y1407058D01*
X1476991Y1409597D01*
X1471912D01*
X1469373Y1407058D01*
X1170166Y1496465D02*
Y1483769D01*
X1172705Y1481230D01*
X1177784D01*
X1180323Y1483769D01*
Y1496465D01*
X1193019Y1481230D02*
Y1496465D01*
X1185401Y1488848D01*
X1195558D01*
X234938Y2895502D02*
Y2910737D01*
X242556D01*
X245095Y2908198D01*
Y2903120D01*
X242556Y2900580D01*
X234938D01*
X257791Y2895502D02*
Y2910737D01*
X250173Y2903120D01*
X260330D01*
X413246Y3024026D02*
Y3039261D01*
X420863D01*
X423403Y3036722D01*
Y3031643D01*
X420863Y3029104D01*
X413246D01*
X428481Y3036722D02*
X431020Y3039261D01*
X436099D01*
X438638Y3036722D01*
Y3034183D01*
X436099Y3031643D01*
X438638Y3029104D01*
Y3026565D01*
X436099Y3024026D01*
X431020D01*
X428481Y3026565D01*
Y3029104D01*
X431020Y3031643D01*
X428481Y3034183D01*
Y3036722D01*
X431020Y3031643D02*
X436099D01*
X1891018Y2902609D02*
X1901175D01*
X1896096D01*
Y2887374D01*
X1906253Y2900070D02*
X1908792Y2902609D01*
X1913871D01*
X1916410Y2900070D01*
Y2897531D01*
X1913871Y2894991D01*
X1911331D01*
X1913871D01*
X1916410Y2892452D01*
Y2889913D01*
X1913871Y2887374D01*
X1908792D01*
X1906253Y2889913D01*
X371082Y2902609D02*
X381239D01*
X376160D01*
Y2887374D01*
X396474D02*
X386317D01*
X396474Y2897531D01*
Y2900070D01*
X393935Y2902609D01*
X388856D01*
X386317Y2900070D01*
X1324344Y1392330D02*
Y1407565D01*
X1331962D01*
X1334501Y1405026D01*
Y1399948D01*
X1331962Y1397408D01*
X1324344D01*
X1329422D02*
X1334501Y1392330D01*
X1339579D02*
X1344657D01*
X1342118D01*
Y1407565D01*
X1339579Y1405026D01*
X1352275Y1407565D02*
X1362432D01*
Y1405026D01*
X1352275Y1394869D01*
Y1392330D01*
X1042658D02*
Y1407565D01*
X1050275D01*
X1052815Y1405026D01*
Y1399948D01*
X1050275Y1397408D01*
X1042658D01*
X1047736D02*
X1052815Y1392330D01*
X1057893D02*
X1062971D01*
X1060432D01*
Y1407565D01*
X1057893Y1405026D01*
X1080746Y1407565D02*
X1075667Y1405026D01*
X1070589Y1399948D01*
Y1394869D01*
X1073128Y1392330D01*
X1078206D01*
X1080746Y1394869D01*
Y1397408D01*
X1078206Y1399948D01*
X1070589D01*
X1946136Y1737262D02*
Y1752497D01*
X1953754D01*
X1956293Y1749958D01*
Y1744879D01*
X1953754Y1742340D01*
X1946136D01*
X1951214D02*
X1956293Y1737262D01*
X1961371D02*
X1966449D01*
X1963910D01*
Y1752497D01*
X1961371Y1749958D01*
X1984224Y1752497D02*
X1974067D01*
Y1744879D01*
X1979145Y1747419D01*
X1981685D01*
X1984224Y1744879D01*
Y1739801D01*
X1981685Y1737262D01*
X1976606D01*
X1974067Y1739801D01*
X1946136Y1693320D02*
Y1708555D01*
X1953754D01*
X1956293Y1706016D01*
Y1700938D01*
X1953754Y1698398D01*
X1946136D01*
X1951214D02*
X1956293Y1693320D01*
X1961371D02*
X1966449D01*
X1963910D01*
Y1708555D01*
X1961371Y1706016D01*
X1981685Y1693320D02*
Y1708555D01*
X1974067Y1700938D01*
X1984224D01*
X603238Y1239676D02*
Y1254911D01*
X610855D01*
X613395Y1252372D01*
Y1247293D01*
X610855Y1244754D01*
X603238D01*
X618473Y1239676D02*
X623551D01*
X621012D01*
Y1254911D01*
X618473Y1252372D01*
X641326Y1254911D02*
X631169D01*
Y1247293D01*
X636247Y1249833D01*
X638787D01*
X641326Y1247293D01*
Y1242215D01*
X638787Y1239676D01*
X633708D01*
X631169Y1242215D01*
X703314Y1239676D02*
Y1254911D01*
X710931D01*
X713471Y1252372D01*
Y1247293D01*
X710931Y1244754D01*
X703314D01*
X718549Y1239676D02*
X723627D01*
X721088D01*
Y1254911D01*
X718549Y1252372D01*
X738863Y1239676D02*
Y1254911D01*
X731245Y1247293D01*
X741402D01*
X803136Y1239676D02*
Y1254911D01*
X810753D01*
X813293Y1252372D01*
Y1247293D01*
X810753Y1244754D01*
X803136D01*
X818371Y1252372D02*
X820910Y1254911D01*
X825989D01*
X828528Y1252372D01*
Y1249833D01*
X825989Y1247293D01*
X823449D01*
X825989D01*
X828528Y1244754D01*
Y1242215D01*
X825989Y1239676D01*
X820910D01*
X818371Y1242215D01*
X344412Y1094891D02*
Y1082195D01*
X346951Y1079656D01*
X352029D01*
X354569Y1082195D01*
Y1094891D01*
X359647Y1092352D02*
X362186Y1094891D01*
X367265D01*
X369804Y1092352D01*
Y1089813D01*
X367265Y1087273D01*
X364725D01*
X367265D01*
X369804Y1084734D01*
Y1082195D01*
X367265Y1079656D01*
X362186D01*
X359647Y1082195D01*
X272276Y1045874D02*
Y1061109D01*
X279893D01*
X282433Y1058570D01*
Y1053492D01*
X279893Y1050952D01*
X272276D01*
X277354D02*
X282433Y1045874D01*
X287511D02*
X292589D01*
X290050D01*
Y1061109D01*
X287511Y1058570D01*
X300207D02*
X302746Y1061109D01*
X307824D01*
X310364Y1058570D01*
Y1056031D01*
X307824Y1053492D01*
X305285D01*
X307824D01*
X310364Y1050952D01*
Y1048413D01*
X307824Y1045874D01*
X302746D01*
X300207Y1048413D01*
X214872Y982628D02*
Y997863D01*
X222489D01*
X225029Y995324D01*
Y990246D01*
X222489Y987706D01*
X214872D01*
X219950D02*
X225029Y982628D01*
X230107D02*
X235185D01*
X232646D01*
Y997863D01*
X230107Y995324D01*
X252960Y982628D02*
X242803D01*
X252960Y992785D01*
Y995324D01*
X250420Y997863D01*
X245342D01*
X242803Y995324D01*
X214872Y1112676D02*
Y1127911D01*
X222489D01*
X225029Y1125372D01*
Y1120294D01*
X222489Y1117754D01*
X214872D01*
X219950D02*
X225029Y1112676D01*
X230107D02*
X235185D01*
X232646D01*
Y1127911D01*
X230107Y1125372D01*
X242803Y1112676D02*
X247881D01*
X245342D01*
Y1127911D01*
X242803Y1125372D01*
X1042658Y1447448D02*
Y1462683D01*
X1050275D01*
X1052815Y1460144D01*
Y1455065D01*
X1050275Y1452526D01*
X1042658D01*
X1047736D02*
X1052815Y1447448D01*
X1057893D02*
X1062971D01*
X1060432D01*
Y1462683D01*
X1057893Y1460144D01*
X1070589D02*
X1073128Y1462683D01*
X1078206D01*
X1080746Y1460144D01*
Y1449987D01*
X1078206Y1447448D01*
X1073128D01*
X1070589Y1449987D01*
Y1460144D01*
X290564Y1309780D02*
Y1325015D01*
X298181D01*
X300721Y1322476D01*
Y1317397D01*
X298181Y1314858D01*
X290564D01*
X305799Y1309780D02*
X310877D01*
X308338D01*
Y1325015D01*
X305799Y1322476D01*
X318495D02*
X321034Y1325015D01*
X326113D01*
X328652Y1322476D01*
Y1319937D01*
X326113Y1317397D01*
X323573D01*
X326113D01*
X328652Y1314858D01*
Y1312319D01*
X326113Y1309780D01*
X321034D01*
X318495Y1312319D01*
X290564Y1429668D02*
Y1444903D01*
X298181D01*
X300721Y1442364D01*
Y1437285D01*
X298181Y1434746D01*
X290564D01*
X305799Y1429668D02*
X310877D01*
X308338D01*
Y1444903D01*
X305799Y1442364D01*
X328652Y1429668D02*
X318495D01*
X328652Y1439825D01*
Y1442364D01*
X326113Y1444903D01*
X321034D01*
X318495Y1442364D01*
X140450Y1309780D02*
Y1325015D01*
X148068D01*
X150607Y1322476D01*
Y1317397D01*
X148068Y1314858D01*
X140450D01*
X155685Y1309780D02*
X160763D01*
X158224D01*
Y1325015D01*
X155685Y1322476D01*
X168381D02*
X170920Y1325015D01*
X175998D01*
X178538Y1322476D01*
Y1312319D01*
X175998Y1309780D01*
X170920D01*
X168381Y1312319D01*
Y1322476D01*
X140450Y1429668D02*
Y1444903D01*
X148068D01*
X150607Y1442364D01*
Y1437285D01*
X148068Y1434746D01*
X140450D01*
X155685Y1432207D02*
X158224Y1429668D01*
X163303D01*
X165842Y1432207D01*
Y1442364D01*
X163303Y1444903D01*
X158224D01*
X155685Y1442364D01*
Y1439825D01*
X158224Y1437285D01*
X165842D01*
X1933182Y3024026D02*
Y3039261D01*
X1940800D01*
X1943339Y3036722D01*
Y3031643D01*
X1940800Y3029104D01*
X1933182D01*
X1948417Y3039261D02*
X1958574D01*
Y3036722D01*
X1948417Y3026565D01*
Y3024026D01*
X125210Y1712624D02*
Y1727859D01*
X132828D01*
X135367Y1725320D01*
Y1720242D01*
X132828Y1717702D01*
X125210D01*
X150602Y1727859D02*
X145523Y1725320D01*
X140445Y1720242D01*
Y1715163D01*
X142984Y1712624D01*
X148063D01*
X150602Y1715163D01*
Y1717702D01*
X148063Y1720242D01*
X140445D01*
X1575042Y2772058D02*
Y2787293D01*
X1582659D01*
X1585199Y2784754D01*
Y2779676D01*
X1582659Y2777137D01*
X1575042D01*
X1600434Y2787293D02*
X1590277D01*
Y2779676D01*
X1595355Y2782215D01*
X1597895D01*
X1600434Y2779676D01*
Y2774597D01*
X1597895Y2772058D01*
X1592816D01*
X1590277Y2774597D01*
X1347963Y945793D02*
X1342884D01*
X1345423D01*
Y933097D01*
X1342884Y930558D01*
X1340345D01*
X1337806Y933097D01*
X1353041Y930558D02*
Y945793D01*
X1360659D01*
X1363198Y943254D01*
Y938176D01*
X1360659Y935636D01*
X1353041D01*
X1368276Y945793D02*
X1378433D01*
Y943254D01*
X1368276Y933097D01*
Y930558D01*
X151877Y1015135D02*
X146798D01*
X149338D01*
Y1002439D01*
X146798Y999900D01*
X144259D01*
X141720Y1002439D01*
X167112Y999900D02*
X156955D01*
X167112Y1010057D01*
Y1012596D01*
X164573Y1015135D01*
X159494D01*
X156955Y1012596D01*
X151877Y1145183D02*
X146798D01*
X149338D01*
Y1132487D01*
X146798Y1129948D01*
X144259D01*
X141720Y1132487D01*
X156955Y1129948D02*
X162033D01*
X159494D01*
Y1145183D01*
X156955Y1142644D01*
X1587993Y812189D02*
X1582914D01*
X1585453D01*
Y799493D01*
X1582914Y796954D01*
X1580375D01*
X1577836Y799493D01*
X1593071Y796954D02*
Y812189D01*
X1600689D01*
X1603228Y809650D01*
Y804572D01*
X1600689Y802032D01*
X1593071D01*
X1618463Y812189D02*
X1608306D01*
Y804572D01*
X1613385Y807111D01*
X1615924D01*
X1618463Y804572D01*
Y799493D01*
X1615924Y796954D01*
X1610845D01*
X1608306Y799493D01*
X1600693Y457605D02*
X1595614D01*
X1598154D01*
Y444909D01*
X1595614Y442370D01*
X1593075D01*
X1590536Y444909D01*
X1605771Y442370D02*
Y457605D01*
X1613389D01*
X1615928Y455066D01*
Y449987D01*
X1613389Y447448D01*
X1605771D01*
X1628624Y442370D02*
Y457605D01*
X1621006Y449987D01*
X1631163D01*
X406896Y716177D02*
Y700942D01*
X417053D01*
X422131D02*
X427209D01*
X424670D01*
Y716177D01*
X422131Y713638D01*
X240523Y295807D02*
X235444D01*
X237983D01*
Y283111D01*
X235444Y280572D01*
X232905D01*
X230366Y283111D01*
X245601Y280572D02*
Y295807D01*
X253219D01*
X255758Y293268D01*
Y288190D01*
X253219Y285650D01*
X245601D01*
X260836Y293268D02*
X263375Y295807D01*
X268454D01*
X270993Y293268D01*
Y290729D01*
X268454Y288190D01*
X265914D01*
X268454D01*
X270993Y285650D01*
Y283111D01*
X268454Y280572D01*
X263375D01*
X260836Y283111D01*
X240523Y455827D02*
X235444D01*
X237983D01*
Y443131D01*
X235444Y440592D01*
X232905D01*
X230366Y443131D01*
X245601Y440592D02*
Y455827D01*
X253219D01*
X255758Y453288D01*
Y448209D01*
X253219Y445670D01*
X245601D01*
X270993Y440592D02*
X260836D01*
X270993Y450749D01*
Y453288D01*
X268454Y455827D01*
X263375D01*
X260836Y453288D01*
X190485Y661313D02*
X185406D01*
X187945D01*
Y648617D01*
X185406Y646078D01*
X182867D01*
X180328Y648617D01*
X195563Y646078D02*
Y661313D01*
X203181D01*
X205720Y658774D01*
Y653696D01*
X203181Y651156D01*
X195563D01*
X210798Y646078D02*
X215877D01*
X213337D01*
Y661313D01*
X210798Y658774D01*
X519669Y853338D02*
X517130Y855877D01*
X512051D01*
X509512Y853338D01*
Y843181D01*
X512051Y840642D01*
X517130D01*
X519669Y843181D01*
X524747Y853338D02*
X527286Y855877D01*
X532365D01*
X534904Y853338D01*
Y850799D01*
X532365Y848260D01*
X529825D01*
X532365D01*
X534904Y845720D01*
Y843181D01*
X532365Y840642D01*
X527286D01*
X524747Y843181D01*
X619745Y853338D02*
X617206Y855877D01*
X612127D01*
X609588Y853338D01*
Y843181D01*
X612127Y840642D01*
X617206D01*
X619745Y843181D01*
X634980Y840642D02*
X624823D01*
X634980Y850799D01*
Y853338D01*
X632441Y855877D01*
X627362D01*
X624823Y853338D01*
X323073Y639978D02*
X320533Y642517D01*
X315455D01*
X312916Y639978D01*
Y629821D01*
X315455Y627282D01*
X320533D01*
X323073Y629821D01*
X328151Y627282D02*
X333229D01*
X330690D01*
Y642517D01*
X328151Y639978D01*
X822440Y722532D02*
Y737767D01*
X827518Y732689D01*
X832597Y737767D01*
Y722532D01*
X837675D02*
X842753D01*
X840214D01*
Y737767D01*
X837675Y735228D01*
X77963Y817523D02*
X72884D01*
X75423D01*
Y804827D01*
X72884Y802288D01*
X70345D01*
X67806Y804827D01*
X83041Y802288D02*
Y817523D01*
X90659D01*
X93198Y814984D01*
Y809905D01*
X90659Y807366D01*
X83041D01*
X108433Y817523D02*
X103355Y814984D01*
X98276Y809905D01*
Y804827D01*
X100815Y802288D01*
X105894D01*
X108433Y804827D01*
Y807366D01*
X105894Y809905D01*
X98276D01*
X127304Y2367617D02*
Y2357461D01*
X132382Y2352383D01*
X137461Y2357461D01*
Y2367617D01*
X152696Y2352383D02*
X142539D01*
X152696Y2362539D01*
Y2365078D01*
X150157Y2367617D01*
X145078D01*
X142539Y2365078D01*
X839843Y2757617D02*
Y2747461D01*
X844922Y2742383D01*
X850000Y2747461D01*
Y2757617D01*
X855078Y2742383D02*
X860157D01*
X857618D01*
Y2757617D01*
X855078Y2755078D01*
X810756Y2036474D02*
Y2051709D01*
X818373D01*
X820913Y2049170D01*
Y2044091D01*
X818373Y2041552D01*
X810756D01*
X836148Y2036474D02*
X825991D01*
X836148Y2046631D01*
Y2049170D01*
X833609Y2051709D01*
X828530D01*
X825991Y2049170D01*
X866890Y2129946D02*
Y2145181D01*
X874508D01*
X877047Y2142642D01*
Y2137563D01*
X874508Y2135024D01*
X866890D01*
X882125Y2129946D02*
X887203D01*
X884664D01*
Y2145181D01*
X882125Y2142642D01*
D14*
X129000Y1600000D02*
D03*
M02*
