<?xml version="1.0" encoding="UTF-8" standalone="no"?>
<!DOCTYPE svg PUBLIC "-//W3C//DTD SVG 1.1//EN" "http://www.w3.org/Graphics/SVG/1.1/DTD/svg11.dtd">
<svg width="100%" height="100%" viewBox="0 0 1212 202" version="1.1" xmlns="http://www.w3.org/2000/svg" xmlns:xlink="http://www.w3.org/1999/xlink" xml:space="preserve" xmlns:serif="http://www.serif.com/" style="fill-rule:evenodd;clip-rule:evenodd;stroke-linejoin:round;stroke-miterlimit:2;">
    <g id="breiw" transform="matrix(1,0,0,1,391.951,-353.516)">
        <g transform="matrix(0.998043,0,0,1.00549,680.938,264.449)">
            <rect x="0" y="101.173" width="25.431" height="24.947"/>
        </g>
        <g transform="matrix(1,0,0,1,51.7286,352.736)">
            <path d="M201.43,151.5L201.45,0.93L226.95,0.93L226.95,51.018L302.457,51.018L302.457,111.186C302.457,111.186 275.03,138.99 262.52,151.49L201.45,151.49L201.43,151.5ZM276.76,76.5L227.45,76.5L227.45,125.95C235.29,125.95 251.632,125.988 251.632,125.988L276.774,101.069C276.774,101.069 276.76,84.42 276.76,76.5Z" style="fill-rule:nonzero;"/>
        </g>
        <g transform="matrix(1,0,0,1,51.7286,352.736)">
            <path d="M402.75,151.5C402.72,127.13 402.693,76.215 402.693,76.215L428.067,51.018L504.01,51.018L504.01,113.646L440.497,113.646L440.497,88.271L478.357,88.271L478.357,76.215C476.767,76.135 440.497,76.13 440.497,76.13L428.424,88.271L428.424,125.988L504.01,125.988C504.01,125.988 486.77,143.28 478.52,151.49L402.77,151.49L402.75,151.5Z" style="fill-rule:nonzero;"/>
        </g>
        <g transform="matrix(1,0,0,1,51.7286,352.736)">
            <path d="M666.75,151.5L666.75,76.695L692.411,51.018L768,51.018L768,113.646L705.021,113.646L704.97,88.35L742.495,88.271C742.495,88.271 742.38,79.86 742.38,76.22C732.54,76.22 705.021,76.215 705.021,76.215L692.69,88.271C692.69,88.271 692.57,111.15 692.59,121.6C692.59,122.93 692.72,124.26 692.81,125.98L697.54,125.98C721.03,126.03 744.51,125.928 768,125.988L742.495,151.5L666.76,151.52L666.75,151.5Z" style="fill-rule:nonzero;"/>
        </g>
        <g transform="matrix(1,0,0,1,51.7286,352.736)">
            <path d="M516,151.5C515.98,119.04 515.88,50.99 515.88,50.99L541.672,50.99L541.672,114.808C541.672,114.808 558.05,98.34 566.48,89.87C574.99,98.36 591.47,114.81 591.47,114.81L591.47,51.018L617.25,50.99L617.25,151.49L591,151.49L566.83,126.54L541.5,151.49L516,151.49L516,151.5Z" style="fill-rule:nonzero;"/>
        </g>
        <g transform="matrix(1,0,0,1,51.7286,352.736)">
            <path d="M315,151.5C314.88,150.27 314.66,149.04 314.66,147.81C314.64,116.86 314.65,52.5 314.65,50.99L415.706,50.99L390.026,76.215L340.26,76.215L340.26,151.5L314.99,151.5L315,151.5Z" style="fill-rule:nonzero;"/>
        </g>
        <g transform="matrix(1,0,0,1,51.7286,352.736)">
            <path d="M629.209,151.5L629.209,51.018L654.59,50.99L654.59,151.5L629.209,151.5Z" style="fill-rule:nonzero;"/>
        </g>
    </g>
    <g transform="matrix(1.46366,0,0,2.73658,-42.6787,-1137.32)">
        <g transform="matrix(0.683219,0,0,0.36542,29.1589,415.321)">
            <rect x="0" y="101.173" width="25.431" height="24.947"/>
        </g>
        <g transform="matrix(0.683219,0,0,0.36542,29.1589,415.321)">
            <path d="M38.25,151.5C38.19,144.04 38.03,125.988 38.03,125.988C38.03,125.988 96.85,126.2 124.1,126.2C136.1,126.2 164.013,125.988 164.013,125.988L164.013,26.051L63.028,26.051L63.028,63.007L88.42,88.301L88.467,50.998L138.732,51.018L138.735,101.069L38.03,101.069L38.03,0.76L189,0.76L189,151.5L38.25,151.5Z" style="fill-rule:nonzero;"/>
        </g>
    </g>
    <g id="open" transform="matrix(1.46366,0,0,1,588.677,-352.187)">
        <g transform="matrix(0.683219,0,0,-1,-323.209,554.682)">
            <path d="M227.112,151.339L201.437,126.073L201.45,0.93L226.95,0.93L226.95,51.018L277.543,51.018L302.457,76.215L302.457,151.185L227.112,151.339ZM276.76,76.5L227.45,76.5L227.45,113.931L239.764,125.988L276.788,126.073C276.788,126.073 276.76,84.42 276.76,76.5Z" style="fill-rule:nonzero;"/>
        </g>
        <g transform="matrix(0.683219,0,0,1,-563.234,352.479)">
            <path d="M666.75,151.5L666.75,76.695L692.411,51.018L768,51.018L768,113.646L705.021,113.646L704.97,88.35L742.495,88.271C742.495,88.271 742.38,79.86 742.38,76.22C732.54,76.22 705.021,76.215 705.021,76.215L692.69,88.271C692.69,88.271 692.57,111.15 692.59,121.6C692.59,122.93 692.72,124.26 692.81,125.98L697.54,125.98C721.03,126.03 744.51,125.928 768,125.988L742.495,151.5L666.76,151.52L666.75,151.5Z" style="fill-rule:nonzero;"/>
        </g>
        <g transform="matrix(0.683219,0,0,1,-720.056,352.479)">
            <path d="M666.75,151.5L666.75,76.695L692.411,51.018L768,51.018L768,125.988L742.495,125.988C742.495,125.988 742.38,79.86 742.38,76.22C732.54,76.22 705.021,76.215 705.021,76.215L692.69,88.271C692.69,88.271 692.57,111.15 692.59,121.6C692.59,122.93 692.72,124.26 692.81,125.98L697.54,125.98C721.03,126.03 744.51,125.928 768,125.988L742.495,151.5L666.76,151.52L666.75,151.5Z" style="fill-rule:nonzero;"/>
        </g>
        <g transform="matrix(0.683219,0,0,1,-244.902,352.479)">
            <path d="M315,151.5C314.88,150.27 314.66,149.04 314.66,147.81C314.64,116.86 314.65,52.5 314.65,50.99L393.53,50.99L367.85,76.215L340.26,76.215L340.26,151.5L314.99,151.5L315,151.5Z" style="fill-rule:nonzero;"/>
        </g>
        <g transform="matrix(0.683219,0,0,1,-418.069,352.479)">
            <path d="M629.209,151.5L629.209,76.215L654.59,50.99L654.59,151.5L629.209,151.5Z" style="fill-rule:nonzero;"/>
        </g>
    </g>
</svg>
