M48
;Layer_Color=9474304
;FILE_FORMAT=4:4
METRIC,LZ
;TYPE=PLATED
T1F00S00C0.3000
T2F00S00C1.1000
T3F00S00C1.2800
T4F00S00C1.6000
T5F00S00C3.3000
%
T01
X00375Y000225
X0021245Y0022245
Y0042245
X00375Y002225
T02
X0057Y001742
Y001996
Y00225
Y002504
T03
X0024785Y000746
Y001
Y001254
X0024785Y002746
Y003
Y003254
T04
X00305Y001
X00305Y003
T05
X0054Y0006
X001Y001
Y00275
Y0045
M30
