G04*
G04 #@! TF.GenerationSoftware,Altium Limited,Altium Designer,22.4.2 (48)*
G04*
G04 Layer_Physical_Order=2*
G04 Layer_Color=16711680*
%FSLAX44Y44*%
%MOMM*%
G71*
G04*
G04 #@! TF.SameCoordinates,E380B31E-87FB-4700-A3A7-B4C86E81BE80*
G04*
G04*
G04 #@! TF.FilePolarity,Positive*
G04*
G01*
G75*
%ADD18C,2.0000*%
%ADD31C,6.0000*%
%ADD32R,1.9200X1.9200*%
%ADD33C,1.9200*%
%ADD34C,1.6000*%
G04:AMPARAMS|DCode=35|XSize=1.6mm|YSize=1.6mm|CornerRadius=0.4mm|HoleSize=0mm|Usage=FLASHONLY|Rotation=270.000|XOffset=0mm|YOffset=0mm|HoleType=Round|Shape=RoundedRectangle|*
%AMROUNDEDRECTD35*
21,1,1.6000,0.8000,0,0,270.0*
21,1,0.8000,1.6000,0,0,270.0*
1,1,0.8000,-0.4000,-0.4000*
1,1,0.8000,-0.4000,0.4000*
1,1,0.8000,0.4000,0.4000*
1,1,0.8000,0.4000,-0.4000*
%
%ADD35ROUNDEDRECTD35*%
%ADD36C,0.6000*%
G36*
X259365Y310929D02*
X258095Y310403D01*
X256815Y311683D01*
X253485Y313605D01*
X249772Y314600D01*
X245928D01*
X242215Y313605D01*
X238885Y311683D01*
X236567Y309365D01*
X224365D01*
X184365Y269365D01*
Y229365D01*
X142500Y187500D01*
X2039D01*
Y354365D01*
X259365D01*
Y310929D01*
D02*
G37*
G36*
X400000Y545000D02*
Y2039D01*
X195098D01*
Y72888D01*
X227112Y104902D01*
X237202D01*
X239153Y105290D01*
X240807Y106395D01*
X242016Y107604D01*
X244182Y108855D01*
X246599Y109502D01*
X249101D01*
X251518Y108855D01*
X253684Y107604D01*
X254893Y106395D01*
X256547Y105290D01*
X258498Y104902D01*
X260000D01*
X261951Y105290D01*
X263605Y106395D01*
X264710Y108049D01*
X265098Y110000D01*
Y155000D01*
X264710Y156951D01*
X263605Y158605D01*
X261951Y159710D01*
X260000Y160098D01*
X172112D01*
X147210Y185000D01*
X187970Y225760D01*
X189075Y227414D01*
X189463Y229365D01*
Y267253D01*
X226477Y304267D01*
X236567D01*
X238518Y304655D01*
X240172Y305760D01*
X242016Y307604D01*
X244182Y308855D01*
X246599Y309502D01*
X249101D01*
X251518Y308855D01*
X253684Y307604D01*
X254490Y306798D01*
X254490Y306798D01*
X256144Y305693D01*
X258095Y305305D01*
X260046Y305693D01*
X261316Y306219D01*
X262970Y307324D01*
X264075Y308978D01*
X264463Y310929D01*
Y354365D01*
X264075Y356316D01*
X262970Y357970D01*
X261316Y359075D01*
X259365Y359463D01*
X2039D01*
Y547961D01*
X398773D01*
X400000Y545000D01*
D02*
G37*
G36*
X170000Y155000D02*
X260000D01*
Y110000D01*
X258498D01*
X256815Y111683D01*
X253485Y113605D01*
X249772Y114600D01*
X245928D01*
X242215Y113605D01*
X238885Y111683D01*
X237202Y110000D01*
X225000D01*
X190000Y75000D01*
Y2039D01*
X2039D01*
Y182402D01*
X142500D01*
X142582Y182418D01*
X170000Y155000D01*
D02*
G37*
G36*
X597961Y2039D02*
X435000D01*
Y547961D01*
X597961D01*
Y2039D01*
D02*
G37*
%LPC*%
G36*
X249772Y289200D02*
X245928D01*
X242215Y288205D01*
X238885Y286283D01*
X236167Y283565D01*
X234245Y280235D01*
X233250Y276522D01*
Y272678D01*
X234245Y268965D01*
X236167Y265635D01*
X238885Y262917D01*
X242215Y260995D01*
X245928Y260000D01*
X249772D01*
X253485Y260995D01*
X256815Y262917D01*
X259533Y265635D01*
X261455Y268965D01*
X262450Y272678D01*
Y276522D01*
X261455Y280235D01*
X259533Y283565D01*
X256815Y286283D01*
X253485Y288205D01*
X249772Y289200D01*
D02*
G37*
G36*
X249772Y89200D02*
X245928D01*
X242215Y88205D01*
X238885Y86283D01*
X236167Y83565D01*
X234245Y80235D01*
X233250Y76522D01*
Y72678D01*
X234245Y68965D01*
X236167Y65635D01*
X238885Y62917D01*
X242215Y60995D01*
X245928Y60000D01*
X249772D01*
X253485Y60995D01*
X256815Y62917D01*
X259533Y65635D01*
X261455Y68965D01*
X262450Y72678D01*
Y76522D01*
X261455Y80235D01*
X259533Y83565D01*
X256815Y86283D01*
X253485Y88205D01*
X249772Y89200D01*
D02*
G37*
G36*
X574000Y259773D02*
X566000D01*
X563944Y259364D01*
X562201Y258200D01*
X561036Y256456D01*
X560627Y254400D01*
Y246400D01*
X561036Y244344D01*
X562201Y242601D01*
X563944Y241436D01*
X566000Y241027D01*
X574000D01*
X576056Y241436D01*
X577799Y242601D01*
X578964Y244344D01*
X579373Y246400D01*
Y254400D01*
X578964Y256456D01*
X577799Y258200D01*
X576056Y259364D01*
X574000Y259773D01*
D02*
G37*
G36*
X571220Y234270D02*
X568780D01*
X566422Y233638D01*
X564308Y232418D01*
X562582Y230692D01*
X561362Y228578D01*
X560730Y226220D01*
Y223780D01*
X561362Y221422D01*
X562582Y219308D01*
X564308Y217582D01*
X566422Y216362D01*
X568780Y215730D01*
X571220D01*
X573578Y216362D01*
X575692Y217582D01*
X577418Y219308D01*
X578638Y221422D01*
X579270Y223780D01*
Y226220D01*
X578638Y228578D01*
X577418Y230692D01*
X575692Y232418D01*
X573578Y233638D01*
X571220Y234270D01*
D02*
G37*
G36*
Y208870D02*
X568780D01*
X566422Y208238D01*
X564308Y207018D01*
X562582Y205292D01*
X561362Y203178D01*
X560730Y200820D01*
Y198380D01*
X561362Y196022D01*
X562582Y193908D01*
X564308Y192182D01*
X566422Y190962D01*
X568780Y190330D01*
X571220D01*
X573578Y190962D01*
X575692Y192182D01*
X577418Y193908D01*
X578638Y196022D01*
X579270Y198380D01*
Y200820D01*
X578638Y203178D01*
X577418Y205292D01*
X575692Y207018D01*
X573578Y208238D01*
X571220Y208870D01*
D02*
G37*
G36*
X571316Y184200D02*
X571270D01*
Y175470D01*
X580000D01*
Y175516D01*
X579319Y178060D01*
X578002Y180340D01*
X576140Y182202D01*
X573860Y183519D01*
X571316Y184200D01*
D02*
G37*
G36*
X568730D02*
X568684D01*
X566140Y183519D01*
X563860Y182202D01*
X561998Y180340D01*
X560681Y178060D01*
X560000Y175516D01*
Y175470D01*
X568730D01*
Y184200D01*
D02*
G37*
G36*
X580000Y172930D02*
X571270D01*
Y164200D01*
X571316D01*
X573860Y164881D01*
X576140Y166198D01*
X578002Y168060D01*
X579319Y170340D01*
X580000Y172883D01*
Y172930D01*
D02*
G37*
G36*
X568730D02*
X560000D01*
Y172883D01*
X560681Y170340D01*
X561998Y168060D01*
X563860Y166198D01*
X566140Y164881D01*
X568684Y164200D01*
X568730D01*
Y172930D01*
D02*
G37*
%LPD*%
D18*
X305000Y100000D02*
D03*
X305000Y300000D02*
D03*
D31*
X540000Y60000D02*
D03*
X100000Y450000D02*
D03*
Y275000D02*
D03*
Y100000D02*
D03*
D32*
X247850Y325400D02*
D03*
X247850Y125400D02*
D03*
D33*
X247850Y300000D02*
D03*
Y274600D02*
D03*
X247850Y100000D02*
D03*
Y74600D02*
D03*
D34*
X570000Y174200D02*
D03*
Y199600D02*
D03*
Y225000D02*
D03*
D35*
Y250400D02*
D03*
D36*
X212450Y422450D02*
D03*
Y222450D02*
D03*
X375000Y22500D02*
D03*
Y222500D02*
D03*
M02*
