G04*
G04 #@! TF.GenerationSoftware,Altium Limited,Altium Designer,22.4.2 (48)*
G04*
G04 Layer_Color=16711935*
%FSLAX44Y44*%
%MOMM*%
G71*
G04*
G04 #@! TF.SameCoordinates,E380B31E-87FB-4700-A3A7-B4C86E81BE80*
G04*
G04*
G04 #@! TF.FilePolarity,Negative*
G04*
G01*
G75*
%ADD18C,2.0000*%
%ADD19C,10.0000*%
%ADD20R,2.0700X2.0700*%
%ADD21C,2.0700*%
%ADD22C,1.7500*%
G04:AMPARAMS|DCode=23|XSize=1.75mm|YSize=1.75mm|CornerRadius=0.475mm|HoleSize=0mm|Usage=FLASHONLY|Rotation=270.000|XOffset=0mm|YOffset=0mm|HoleType=Round|Shape=RoundedRectangle|*
%AMROUNDEDRECTD23*
21,1,1.7500,0.8000,0,0,270.0*
21,1,0.8000,1.7500,0,0,270.0*
1,1,0.9500,-0.4000,-0.4000*
1,1,0.9500,-0.4000,0.4000*
1,1,0.9500,0.4000,0.4000*
1,1,0.9500,0.4000,-0.4000*
%
%ADD23ROUNDEDRECTD23*%
%ADD24C,0.7500*%
D18*
X305000Y100000D02*
D03*
X305000Y300000D02*
D03*
D19*
X540000Y60000D02*
D03*
X100000Y450000D02*
D03*
Y275000D02*
D03*
Y100000D02*
D03*
D20*
X247850Y325400D02*
D03*
X247850Y125400D02*
D03*
D21*
X247850Y300000D02*
D03*
Y274600D02*
D03*
X247850Y100000D02*
D03*
Y74600D02*
D03*
D22*
X570000Y174200D02*
D03*
Y199600D02*
D03*
Y225000D02*
D03*
D23*
Y250400D02*
D03*
D24*
X212450Y422450D02*
D03*
Y222450D02*
D03*
X375000Y22500D02*
D03*
Y222500D02*
D03*
M02*
