G04*
G04 #@! TF.GenerationSoftware,Altium Limited,Altium Designer,22.4.2 (48)*
G04*
G04 Layer_Physical_Order=1*
G04 Layer_Color=255*
%FSLAX44Y44*%
%MOMM*%
G71*
G04*
G04 #@! TF.SameCoordinates,E380B31E-87FB-4700-A3A7-B4C86E81BE80*
G04*
G04*
G04 #@! TF.FilePolarity,Positive*
G04*
G01*
G75*
%ADD18C,2.0000*%
G04:AMPARAMS|DCode=25|XSize=1.8mm|YSize=1.05mm|CornerRadius=0.063mm|HoleSize=0mm|Usage=FLASHONLY|Rotation=90.000|XOffset=0mm|YOffset=0mm|HoleType=Round|Shape=RoundedRectangle|*
%AMROUNDEDRECTD25*
21,1,1.8000,0.9240,0,0,90.0*
21,1,1.6740,1.0500,0,0,90.0*
1,1,0.1260,0.4620,0.8370*
1,1,0.1260,0.4620,-0.8370*
1,1,0.1260,-0.4620,-0.8370*
1,1,0.1260,-0.4620,0.8370*
%
%ADD25ROUNDEDRECTD25*%
%ADD26R,2.7200X1.0200*%
G04:AMPARAMS|DCode=27|XSize=1.8mm|YSize=1.05mm|CornerRadius=0.063mm|HoleSize=0mm|Usage=FLASHONLY|Rotation=180.000|XOffset=0mm|YOffset=0mm|HoleType=Round|Shape=RoundedRectangle|*
%AMROUNDEDRECTD27*
21,1,1.8000,0.9240,0,0,180.0*
21,1,1.6740,1.0500,0,0,180.0*
1,1,0.1260,-0.8370,0.4620*
1,1,0.1260,0.8370,0.4620*
1,1,0.1260,0.8370,-0.4620*
1,1,0.1260,-0.8370,-0.4620*
%
%ADD27ROUNDEDRECTD27*%
%ADD28R,1.8500X1.8500*%
G04:AMPARAMS|DCode=29|XSize=0.95mm|YSize=0.9mm|CornerRadius=0.063mm|HoleSize=0mm|Usage=FLASHONLY|Rotation=90.000|XOffset=0mm|YOffset=0mm|HoleType=Round|Shape=RoundedRectangle|*
%AMROUNDEDRECTD29*
21,1,0.9500,0.7740,0,0,90.0*
21,1,0.8240,0.9000,0,0,90.0*
1,1,0.1260,0.3870,0.4120*
1,1,0.1260,0.3870,-0.4120*
1,1,0.1260,-0.3870,-0.4120*
1,1,0.1260,-0.3870,0.4120*
%
%ADD29ROUNDEDRECTD29*%
%ADD30C,0.5000*%
%ADD31C,6.0000*%
%ADD32R,1.9200X1.9200*%
%ADD33C,1.9200*%
%ADD34C,1.6000*%
G04:AMPARAMS|DCode=35|XSize=1.6mm|YSize=1.6mm|CornerRadius=0.4mm|HoleSize=0mm|Usage=FLASHONLY|Rotation=270.000|XOffset=0mm|YOffset=0mm|HoleType=Round|Shape=RoundedRectangle|*
%AMROUNDEDRECTD35*
21,1,1.6000,0.8000,0,0,270.0*
21,1,0.8000,1.6000,0,0,270.0*
1,1,0.8000,-0.4000,-0.4000*
1,1,0.8000,-0.4000,0.4000*
1,1,0.8000,0.4000,0.4000*
1,1,0.8000,0.4000,-0.4000*
%
%ADD35ROUNDEDRECTD35*%
%ADD36C,0.6000*%
G36*
X215000Y370000D02*
X185000D01*
Y397500D01*
X215000D01*
Y370000D01*
D02*
G37*
G36*
X260000Y310000D02*
X258498D01*
X256815Y311683D01*
X253485Y313605D01*
X249772Y314600D01*
X245928D01*
X242215Y313605D01*
X238885Y311683D01*
X237202Y310000D01*
X225000D01*
X185747Y270747D01*
X185596Y270847D01*
X184570Y271052D01*
X181220D01*
Y260000D01*
Y248948D01*
X184570D01*
X185000Y248596D01*
Y230000D01*
X145000Y190000D01*
X2039D01*
Y355000D01*
X184400D01*
Y349770D01*
X200000D01*
X215600D01*
Y355000D01*
X260000D01*
Y310000D01*
D02*
G37*
G36*
X597961Y2039D02*
X300000D01*
Y84583D01*
X301270Y85448D01*
X303523Y85000D01*
X306477D01*
X309375Y85576D01*
X312105Y86707D01*
X314562Y88349D01*
X316651Y90438D01*
X318293Y92895D01*
X319424Y95625D01*
X320000Y98523D01*
Y101477D01*
X319424Y104375D01*
X318293Y107105D01*
X316651Y109562D01*
X314562Y111651D01*
X312105Y113293D01*
X309375Y114424D01*
X306477Y115000D01*
X303523D01*
X301270Y114552D01*
X300000Y115417D01*
Y141802D01*
X301033Y142835D01*
X361750D01*
Y136150D01*
X364471D01*
X365480Y135520D01*
X365480Y134880D01*
Y115120D01*
X365480Y114480D01*
X364471Y113850D01*
X361750D01*
Y85350D01*
X367435D01*
Y75310D01*
X366630D01*
X364433Y74873D01*
X362571Y73629D01*
X361327Y71767D01*
X360890Y69570D01*
Y60330D01*
X361327Y58133D01*
X362571Y56271D01*
X364433Y55027D01*
X366630Y54590D01*
X383370D01*
X385567Y55027D01*
X387429Y56271D01*
X388673Y58133D01*
X389110Y60330D01*
Y69570D01*
X388673Y71767D01*
X387429Y73629D01*
X385567Y74873D01*
X383370Y75310D01*
X382565D01*
Y85350D01*
X390250D01*
Y113850D01*
X387529D01*
X386520Y114480D01*
X386520Y115120D01*
Y134880D01*
X386520Y135520D01*
X387529Y136150D01*
X390250D01*
Y164650D01*
X361750D01*
Y157965D01*
X300000D01*
Y284583D01*
X301270Y285448D01*
X303523Y285000D01*
X306477D01*
X309375Y285576D01*
X312105Y286707D01*
X314562Y288349D01*
X316651Y290438D01*
X318293Y292895D01*
X319424Y295625D01*
X320000Y298523D01*
Y301477D01*
X319424Y304375D01*
X318293Y307105D01*
X316651Y309562D01*
X314562Y311651D01*
X312105Y313293D01*
X309375Y314424D01*
X306477Y315000D01*
X303523D01*
X301270Y314552D01*
X300000Y315417D01*
Y337835D01*
X361750D01*
Y331150D01*
X364471D01*
X365480Y330520D01*
X365480Y329880D01*
Y310120D01*
X365480Y309480D01*
X364471Y308850D01*
X361750D01*
Y280350D01*
X367435D01*
Y275310D01*
X366630D01*
X364433Y274873D01*
X362571Y273629D01*
X361327Y271767D01*
X360890Y269570D01*
Y260330D01*
X361327Y258133D01*
X362571Y256271D01*
X364433Y255027D01*
X366630Y254590D01*
X383370D01*
X385567Y255027D01*
X387429Y256271D01*
X388673Y258133D01*
X389110Y260330D01*
Y269570D01*
X388673Y271767D01*
X387429Y273629D01*
X385567Y274873D01*
X383370Y275310D01*
X382565D01*
Y280350D01*
X390250D01*
Y308850D01*
X387529D01*
X386520Y309480D01*
X386520Y310120D01*
Y329880D01*
X386520Y330520D01*
X387529Y331150D01*
X390250D01*
Y359650D01*
X361750D01*
Y352965D01*
X300000D01*
Y547961D01*
X597961D01*
Y2039D01*
D02*
G37*
G36*
X215000Y170000D02*
X185000D01*
Y197500D01*
X215000D01*
Y170000D01*
D02*
G37*
G36*
X170000Y155000D02*
X184400D01*
Y149770D01*
X200000D01*
X215600D01*
Y155000D01*
X260000D01*
Y110000D01*
X258498D01*
X256815Y111683D01*
X253485Y113605D01*
X249772Y114600D01*
X245928D01*
X242215Y113605D01*
X238885Y111683D01*
X237202Y110000D01*
X225000D01*
X190000Y75000D01*
Y71404D01*
X189570Y71052D01*
X186220D01*
Y60000D01*
Y48948D01*
X189570D01*
X190000Y48596D01*
Y2039D01*
X2039D01*
Y180000D01*
X145000D01*
X170000Y155000D01*
D02*
G37*
%LPC*%
G36*
X215600Y347230D02*
X201270D01*
Y341400D01*
X215600D01*
Y347230D01*
D02*
G37*
G36*
X198730D02*
X184400D01*
Y341400D01*
X198730D01*
Y347230D01*
D02*
G37*
G36*
X178680Y271052D02*
X175330D01*
X174304Y270847D01*
X173434Y270266D01*
X172853Y269396D01*
X172648Y268370D01*
Y261270D01*
X178680D01*
Y271052D01*
D02*
G37*
G36*
Y258730D02*
X172648D01*
Y251630D01*
X172853Y250604D01*
X173434Y249734D01*
X174304Y249153D01*
X175330Y248948D01*
X178680D01*
Y258730D01*
D02*
G37*
G36*
X474520Y355920D02*
X453480D01*
Y334880D01*
X474520D01*
Y355920D01*
D02*
G37*
G36*
X574000Y259773D02*
X566000D01*
X563944Y259364D01*
X562201Y258200D01*
X561036Y256456D01*
X560627Y254400D01*
Y254244D01*
X540400D01*
X538929Y253951D01*
X537682Y253118D01*
X537682Y253118D01*
X533408Y248844D01*
X488807D01*
Y249120D01*
X488660Y249861D01*
X488240Y250490D01*
X487611Y250910D01*
X486870Y251057D01*
X479130D01*
X478389Y250910D01*
X477760Y250490D01*
X477340Y249861D01*
X477193Y249120D01*
Y240880D01*
X477340Y240139D01*
X477760Y239510D01*
X478389Y239090D01*
X479130Y238943D01*
X479156D01*
Y216057D01*
X479130D01*
X478389Y215910D01*
X477760Y215490D01*
X477340Y214861D01*
X477193Y214120D01*
Y205880D01*
X477340Y205139D01*
X477760Y204510D01*
X478389Y204090D01*
X479130Y203943D01*
X486870D01*
X487611Y204090D01*
X488240Y204510D01*
X488660Y205139D01*
X488807Y205880D01*
Y214120D01*
X488660Y214861D01*
X488240Y215490D01*
X487611Y215910D01*
X486870Y216057D01*
X486844D01*
Y238943D01*
X486870D01*
X487611Y239090D01*
X488240Y239510D01*
X488660Y240139D01*
X488807Y240880D01*
Y241156D01*
X535000D01*
X535000Y241156D01*
X536471Y241449D01*
X537718Y242282D01*
X541992Y246556D01*
X560627D01*
Y246400D01*
X561036Y244344D01*
X562201Y242601D01*
X563944Y241436D01*
X566000Y241027D01*
X574000D01*
X576056Y241436D01*
X577799Y242601D01*
X578964Y244344D01*
X579373Y246400D01*
Y254400D01*
X578964Y256456D01*
X577799Y258200D01*
X576056Y259364D01*
X574000Y259773D01*
D02*
G37*
G36*
X474520Y305120D02*
X453480D01*
Y284080D01*
X460156D01*
Y276000D01*
X460156Y276000D01*
X460449Y274529D01*
X461282Y273282D01*
X463156Y271408D01*
Y251057D01*
X463130D01*
X462389Y250910D01*
X461760Y250490D01*
X461340Y249861D01*
X461193Y249120D01*
Y240880D01*
X461340Y240139D01*
X461760Y239510D01*
X462389Y239090D01*
X463130Y238943D01*
X470870D01*
X471611Y239090D01*
X472240Y239510D01*
X472660Y240139D01*
X472807Y240880D01*
Y249120D01*
X472660Y249861D01*
X472240Y250490D01*
X471611Y250910D01*
X470870Y251057D01*
X470844D01*
Y273000D01*
X470844Y273000D01*
X470551Y274471D01*
X469718Y275718D01*
X469718Y275718D01*
X467844Y277592D01*
Y284080D01*
X474520D01*
Y305120D01*
D02*
G37*
G36*
Y330520D02*
X453480D01*
Y309480D01*
X474520D01*
Y316156D01*
X548408D01*
X581156Y283408D01*
Y241592D01*
X573282Y233718D01*
X571220Y234270D01*
X568780D01*
X566422Y233638D01*
X564308Y232418D01*
X562582Y230692D01*
X561362Y228578D01*
X560730Y226220D01*
Y223780D01*
X561362Y221422D01*
X562582Y219308D01*
X564308Y217582D01*
X566422Y216362D01*
X568780Y215730D01*
X571220D01*
X573578Y216362D01*
X575692Y217582D01*
X577418Y219308D01*
X578638Y221422D01*
X579270Y223780D01*
Y226220D01*
X578718Y228282D01*
X587718Y237282D01*
X587718Y237282D01*
X588551Y238529D01*
X588844Y240000D01*
Y285000D01*
X588844Y285000D01*
X588551Y286471D01*
X587718Y287718D01*
X587718Y287718D01*
X552718Y322718D01*
X551471Y323551D01*
X550000Y323844D01*
X550000Y323844D01*
X474520D01*
Y330520D01*
D02*
G37*
G36*
X383370Y245310D02*
X366630D01*
X364433Y244873D01*
X362571Y243629D01*
X361327Y241767D01*
X360890Y239570D01*
Y230330D01*
X361327Y228133D01*
X362571Y226271D01*
X364433Y225027D01*
X365997Y224716D01*
X367000Y223553D01*
Y221447D01*
X367545Y219412D01*
X368598Y217588D01*
X370088Y216098D01*
X371912Y215045D01*
X373947Y214500D01*
X376053D01*
X378088Y215045D01*
X379912Y216098D01*
X381402Y217588D01*
X382455Y219412D01*
X383000Y221447D01*
Y223553D01*
X384003Y224716D01*
X385567Y225027D01*
X387429Y226271D01*
X388673Y228133D01*
X389110Y230330D01*
Y239570D01*
X388673Y241767D01*
X387429Y243629D01*
X385567Y244873D01*
X383370Y245310D01*
D02*
G37*
G36*
X470870Y216057D02*
X463130D01*
X462389Y215910D01*
X461760Y215490D01*
X461340Y214861D01*
X461193Y214120D01*
Y205880D01*
X461340Y205139D01*
X461760Y204510D01*
X462389Y204090D01*
X463130Y203943D01*
X463156D01*
Y193592D01*
X437282Y167718D01*
X436449Y166471D01*
X436156Y165000D01*
X436156Y165000D01*
Y123600D01*
X436156Y123600D01*
X436449Y122129D01*
X437282Y120882D01*
X453480Y104684D01*
Y89080D01*
X474520D01*
Y110120D01*
X458916D01*
X455729Y113307D01*
X456215Y114480D01*
X474520D01*
Y121156D01*
X482500D01*
X482500Y121156D01*
X483971Y121449D01*
X485218Y122282D01*
X558692Y195756D01*
X561515D01*
X562582Y193908D01*
X564308Y192182D01*
X566422Y190962D01*
X568780Y190330D01*
X571220D01*
X573578Y190962D01*
X575692Y192182D01*
X577418Y193908D01*
X578638Y196022D01*
X579270Y198380D01*
Y200820D01*
X578638Y203178D01*
X577418Y205292D01*
X575692Y207018D01*
X573578Y208238D01*
X571220Y208870D01*
X568780D01*
X566422Y208238D01*
X564308Y207018D01*
X562582Y205292D01*
X561515Y203444D01*
X557100D01*
X557100Y203444D01*
X555629Y203151D01*
X554382Y202318D01*
X554382Y202318D01*
X480908Y128844D01*
X474520D01*
Y135520D01*
X453480D01*
Y117215D01*
X452307Y116729D01*
X443844Y125192D01*
Y163408D01*
X469718Y189282D01*
X469718Y189282D01*
X470551Y190529D01*
X470844Y192000D01*
Y203943D01*
X470870D01*
X471611Y204090D01*
X472240Y204510D01*
X472660Y205139D01*
X472807Y205880D01*
Y214120D01*
X472660Y214861D01*
X472240Y215490D01*
X471611Y215910D01*
X470870Y216057D01*
D02*
G37*
G36*
X571316Y184200D02*
X571270D01*
Y175470D01*
X580000D01*
Y175516D01*
X579319Y178060D01*
X578002Y180340D01*
X576140Y182202D01*
X573860Y183519D01*
X571316Y184200D01*
D02*
G37*
G36*
X568730D02*
X568684D01*
X566140Y183519D01*
X563860Y182202D01*
X561998Y180340D01*
X560681Y178060D01*
X560000Y175516D01*
Y175470D01*
X568730D01*
Y184200D01*
D02*
G37*
G36*
X580000Y172930D02*
X571270D01*
Y164200D01*
X571316D01*
X573860Y164881D01*
X576140Y166198D01*
X578002Y168060D01*
X579319Y170340D01*
X580000Y172883D01*
Y172930D01*
D02*
G37*
G36*
X568730D02*
X560000D01*
Y172883D01*
X560681Y170340D01*
X561998Y168060D01*
X563860Y166198D01*
X566140Y164881D01*
X568684Y164200D01*
X568730D01*
Y172930D01*
D02*
G37*
G36*
X474520Y160920D02*
X453480D01*
Y139880D01*
X474520D01*
Y160920D01*
D02*
G37*
G36*
X383370Y45310D02*
X366630D01*
X364433Y44873D01*
X362571Y43629D01*
X361327Y41767D01*
X360890Y39570D01*
Y30330D01*
X361327Y28133D01*
X362571Y26271D01*
X364433Y25027D01*
X365997Y24716D01*
X367000Y23553D01*
Y21447D01*
X367545Y19412D01*
X368598Y17588D01*
X370088Y16098D01*
X371912Y15045D01*
X373947Y14500D01*
X376053D01*
X378088Y15045D01*
X379912Y16098D01*
X381402Y17588D01*
X382455Y19412D01*
X383000Y21447D01*
Y23553D01*
X384003Y24716D01*
X385567Y25027D01*
X387429Y26271D01*
X388673Y28133D01*
X389110Y30330D01*
Y39570D01*
X388673Y41767D01*
X387429Y43629D01*
X385567Y44873D01*
X383370Y45310D01*
D02*
G37*
G36*
X215600Y147230D02*
X201270D01*
Y141400D01*
X215600D01*
Y147230D01*
D02*
G37*
G36*
X198730D02*
X184400D01*
Y141400D01*
X198730D01*
Y147230D01*
D02*
G37*
G36*
X183680Y71052D02*
X180330D01*
X179304Y70847D01*
X178434Y70266D01*
X177853Y69396D01*
X177649Y68370D01*
Y61270D01*
X183680D01*
Y71052D01*
D02*
G37*
G36*
Y58730D02*
X177649D01*
Y51630D01*
X177853Y50604D01*
X178434Y49734D01*
X179304Y49153D01*
X180330Y48948D01*
X183680D01*
Y58730D01*
D02*
G37*
%LPD*%
D18*
X305000Y100000D02*
D03*
X305000Y300000D02*
D03*
D25*
X184950Y60000D02*
D03*
X214950D02*
D03*
X179950Y260000D02*
D03*
X209950D02*
D03*
D26*
X200000Y148500D02*
D03*
Y176500D02*
D03*
Y348500D02*
D03*
Y376500D02*
D03*
D27*
Y192450D02*
D03*
Y222450D02*
D03*
Y392450D02*
D03*
Y422450D02*
D03*
X375000Y234950D02*
D03*
Y264950D02*
D03*
Y34950D02*
D03*
Y64950D02*
D03*
D28*
X376000Y294600D02*
D03*
Y320000D02*
D03*
Y345400D02*
D03*
X464000D02*
D03*
Y320000D02*
D03*
Y294600D02*
D03*
X376000Y99600D02*
D03*
Y125000D02*
D03*
Y150400D02*
D03*
X464000D02*
D03*
Y125000D02*
D03*
Y99600D02*
D03*
D29*
X467000Y245000D02*
D03*
X483000D02*
D03*
X467000Y210000D02*
D03*
X483000D02*
D03*
D30*
X247850Y74600D02*
X249600D01*
X272500Y97500D01*
Y125000D01*
X297900Y150400D01*
X376000D01*
X262100Y274600D02*
X275000Y287500D01*
Y327500D01*
X220800Y274600D02*
X262100D01*
X292900Y345400D02*
X376000D01*
X275000Y327500D02*
X292900Y345400D01*
X482500Y125000D02*
X557100Y199600D01*
X464000Y125000D02*
X482500D01*
X557100Y199600D02*
X570000D01*
X464000Y320000D02*
X550000D01*
X585000Y285000D01*
X200000Y422450D02*
X212450D01*
X200000Y222450D02*
X212450D01*
X375000Y22500D02*
Y34950D01*
Y222500D02*
Y234950D01*
Y98600D02*
X376000Y99600D01*
X375000Y64950D02*
Y98600D01*
Y293600D02*
X376000Y294600D01*
X375000Y264950D02*
Y293600D01*
X209950Y263750D02*
X220800Y274600D01*
X209950Y260000D02*
Y263750D01*
X225800Y74600D02*
X247850D01*
X214950Y63750D02*
X225800Y74600D01*
X214950Y60000D02*
Y63750D01*
X440000Y123600D02*
X464000Y99600D01*
X440000Y123600D02*
Y165000D01*
X467000Y192000D01*
Y210000D01*
X464000Y276000D02*
X467000Y273000D01*
X464000Y276000D02*
Y294600D01*
X467000Y245000D02*
Y273000D01*
X483000Y210000D02*
Y245000D01*
X535000D01*
X540400Y250400D01*
X570000D01*
Y225000D02*
X585000Y240000D01*
Y285000D01*
D31*
X540000Y60000D02*
D03*
X100000Y450000D02*
D03*
Y275000D02*
D03*
Y100000D02*
D03*
D32*
X247850Y325400D02*
D03*
X247850Y125400D02*
D03*
D33*
X247850Y300000D02*
D03*
Y274600D02*
D03*
X247850Y100000D02*
D03*
Y74600D02*
D03*
D34*
X570000Y174200D02*
D03*
Y199600D02*
D03*
Y225000D02*
D03*
D35*
Y250400D02*
D03*
D36*
X212450Y422450D02*
D03*
Y222450D02*
D03*
X375000Y22500D02*
D03*
Y222500D02*
D03*
M02*
