G04*
G04 #@! TF.GenerationSoftware,Altium Limited,Altium Designer,22.4.2 (48)*
G04*
G04 Layer_Color=8388736*
%FSLAX44Y44*%
%MOMM*%
G71*
G04*
G04 #@! TF.SameCoordinates,E380B31E-87FB-4700-A3A7-B4C86E81BE80*
G04*
G04*
G04 #@! TF.FilePolarity,Negative*
G04*
G01*
G75*
%ADD12C,1.0000*%
G04:AMPARAMS|DCode=13|XSize=2mm|YSize=1.25mm|CornerRadius=0.163mm|HoleSize=0mm|Usage=FLASHONLY|Rotation=90.000|XOffset=0mm|YOffset=0mm|HoleType=Round|Shape=RoundedRectangle|*
%AMROUNDEDRECTD13*
21,1,2.0000,0.9240,0,0,90.0*
21,1,1.6740,1.2500,0,0,90.0*
1,1,0.3260,0.4620,0.8370*
1,1,0.3260,0.4620,-0.8370*
1,1,0.3260,-0.4620,-0.8370*
1,1,0.3260,-0.4620,0.8370*
%
%ADD13ROUNDEDRECTD13*%
%ADD14R,2.8700X1.1700*%
G04:AMPARAMS|DCode=15|XSize=2mm|YSize=1.25mm|CornerRadius=0.163mm|HoleSize=0mm|Usage=FLASHONLY|Rotation=180.000|XOffset=0mm|YOffset=0mm|HoleType=Round|Shape=RoundedRectangle|*
%AMROUNDEDRECTD15*
21,1,2.0000,0.9240,0,0,180.0*
21,1,1.6740,1.2500,0,0,180.0*
1,1,0.3260,-0.8370,0.4620*
1,1,0.3260,0.8370,0.4620*
1,1,0.3260,0.8370,-0.4620*
1,1,0.3260,-0.8370,-0.4620*
%
%ADD15ROUNDEDRECTD15*%
%ADD16R,2.0000X2.0000*%
G04:AMPARAMS|DCode=17|XSize=1.15mm|YSize=1.1mm|CornerRadius=0.163mm|HoleSize=0mm|Usage=FLASHONLY|Rotation=90.000|XOffset=0mm|YOffset=0mm|HoleType=Round|Shape=RoundedRectangle|*
%AMROUNDEDRECTD17*
21,1,1.1500,0.7740,0,0,90.0*
21,1,0.8240,1.1000,0,0,90.0*
1,1,0.3260,0.3870,0.4120*
1,1,0.3260,0.3870,-0.4120*
1,1,0.3260,-0.3870,-0.4120*
1,1,0.3260,-0.3870,0.4120*
%
%ADD17ROUNDEDRECTD17*%
%ADD18C,2.0000*%
%ADD19C,10.0000*%
%ADD20R,2.0700X2.0700*%
%ADD21C,2.0700*%
%ADD22C,1.7500*%
G04:AMPARAMS|DCode=23|XSize=1.75mm|YSize=1.75mm|CornerRadius=0.475mm|HoleSize=0mm|Usage=FLASHONLY|Rotation=270.000|XOffset=0mm|YOffset=0mm|HoleType=Round|Shape=RoundedRectangle|*
%AMROUNDEDRECTD23*
21,1,1.7500,0.8000,0,0,270.0*
21,1,0.8000,1.7500,0,0,270.0*
1,1,0.9500,-0.4000,-0.4000*
1,1,0.9500,-0.4000,0.4000*
1,1,0.9500,0.4000,0.4000*
1,1,0.9500,0.4000,-0.4000*
%
%ADD23ROUNDEDRECTD23*%
%ADD24C,0.7500*%
D12*
X356658Y483323D02*
X349994Y489987D01*
X336665D01*
X330000Y483323D01*
Y476658D01*
X336665Y469994D01*
X349994D01*
X356658Y463329D01*
Y456665D01*
X349994Y450000D01*
X336665D01*
X330000Y456665D01*
X396645Y483323D02*
X389981Y489987D01*
X376651D01*
X369987Y483323D01*
Y476658D01*
X376651Y469994D01*
X389981D01*
X396645Y463329D01*
Y456665D01*
X389981Y450000D01*
X376651D01*
X369987Y456665D01*
X409974Y450000D02*
Y489987D01*
X429968D01*
X436632Y483323D01*
Y469994D01*
X429968Y463329D01*
X409974D01*
X423303D02*
X436632Y450000D01*
X449961Y476658D02*
X476619Y450000D01*
X463290Y463329D01*
X476619Y476658D01*
X449961Y450000D01*
X516606D02*
X489948D01*
X516606Y476658D01*
Y483323D01*
X509942Y489987D01*
X496613D01*
X489948Y483323D01*
D13*
X184950Y60000D02*
D03*
X214950D02*
D03*
X179950Y260000D02*
D03*
X209950D02*
D03*
D14*
X200000Y148500D02*
D03*
Y176500D02*
D03*
Y348500D02*
D03*
Y376500D02*
D03*
D15*
Y192450D02*
D03*
Y222450D02*
D03*
Y392450D02*
D03*
Y422450D02*
D03*
X375000Y234950D02*
D03*
Y264950D02*
D03*
Y34950D02*
D03*
Y64950D02*
D03*
D16*
X376000Y294600D02*
D03*
Y320000D02*
D03*
Y345400D02*
D03*
X464000D02*
D03*
Y320000D02*
D03*
Y294600D02*
D03*
X376000Y99600D02*
D03*
Y125000D02*
D03*
Y150400D02*
D03*
X464000D02*
D03*
Y125000D02*
D03*
Y99600D02*
D03*
D17*
X467000Y245000D02*
D03*
X483000D02*
D03*
X467000Y210000D02*
D03*
X483000D02*
D03*
D18*
X305000Y100000D02*
D03*
X305000Y300000D02*
D03*
D19*
X540000Y60000D02*
D03*
X100000Y450000D02*
D03*
Y275000D02*
D03*
Y100000D02*
D03*
D20*
X247850Y325400D02*
D03*
X247850Y125400D02*
D03*
D21*
X247850Y300000D02*
D03*
Y274600D02*
D03*
X247850Y100000D02*
D03*
Y74600D02*
D03*
D22*
X570000Y174200D02*
D03*
Y199600D02*
D03*
Y225000D02*
D03*
D23*
Y250400D02*
D03*
D24*
X212450Y422450D02*
D03*
Y222450D02*
D03*
X375000Y22500D02*
D03*
Y222500D02*
D03*
M02*
