M48
;Layer_Color=9474304
;FILE_FORMAT=4:4
METRIC,LZ
;TYPE=PLATED
T1F00S00C1.0000
T2F00S00C1.0300
%
T01
X00153Y000571
Y000825
Y001079
X00253
Y000825
Y000571
X00353
Y000825
Y001079
X00453
Y000825
Y000571
T02
X000161Y000317
Y000571
Y000825
Y001079
X000415
Y001333
X000161
X000415Y000825
Y000571
Y000317
M30
