G04*
G04 #@! TF.GenerationSoftware,Altium Limited,Altium Designer,22.4.2 (48)*
G04*
G04 Layer_Color=16711935*
%FSLAX44Y44*%
%MOMM*%
G71*
G04*
G04 #@! TF.SameCoordinates,B20A0790-DF17-45FB-B65C-B6E2A976101D*
G04*
G04*
G04 #@! TF.FilePolarity,Negative*
G04*
G01*
G75*
%ADD14C,1.7032*%
G04:AMPARAMS|DCode=15|XSize=1.7032mm|YSize=1.7032mm|CornerRadius=0.4766mm|HoleSize=0mm|Usage=FLASHONLY|Rotation=270.000|XOffset=0mm|YOffset=0mm|HoleType=Round|Shape=RoundedRectangle|*
%AMROUNDEDRECTD15*
21,1,1.7032,0.7500,0,0,270.0*
21,1,0.7500,1.7032,0,0,270.0*
1,1,0.9532,-0.3750,-0.3750*
1,1,0.9532,-0.3750,0.3750*
1,1,0.9532,0.3750,0.3750*
1,1,0.9532,0.3750,-0.3750*
%
%ADD15ROUNDEDRECTD15*%
%ADD16R,1.7032X1.7032*%
D14*
X41500Y107900D02*
D03*
X16100D02*
D03*
X41500Y133300D02*
D03*
X16100Y82500D02*
D03*
X41500D02*
D03*
X16100Y57100D02*
D03*
Y31700D02*
D03*
X41500Y57100D02*
D03*
Y31700D02*
D03*
X153000Y82500D02*
D03*
Y107900D02*
D03*
X253000Y82500D02*
D03*
Y107900D02*
D03*
X453000Y82500D02*
D03*
Y107900D02*
D03*
X353000Y82500D02*
D03*
Y107900D02*
D03*
D15*
X16100Y133300D02*
D03*
D16*
X153000Y57100D02*
D03*
X253000D02*
D03*
X453000D02*
D03*
X353000D02*
D03*
M02*
