G04*
G04 #@! TF.GenerationSoftware,Altium Limited,Altium Designer,22.4.2 (48)*
G04*
G04 Layer_Physical_Order=1*
G04 Layer_Color=255*
%FSLAX44Y44*%
%MOMM*%
G71*
G04*
G04 #@! TF.SameCoordinates,B20A0790-DF17-45FB-B65C-B6E2A976101D*
G04*
G04*
G04 #@! TF.FilePolarity,Positive*
G04*
G01*
G75*
%ADD12C,0.2540*%
%ADD17C,1.5000*%
G04:AMPARAMS|DCode=18|XSize=1.5mm|YSize=1.5mm|CornerRadius=0.375mm|HoleSize=0mm|Usage=FLASHONLY|Rotation=270.000|XOffset=0mm|YOffset=0mm|HoleType=Round|Shape=RoundedRectangle|*
%AMROUNDEDRECTD18*
21,1,1.5000,0.7500,0,0,270.0*
21,1,0.7500,1.5000,0,0,270.0*
1,1,0.7500,-0.3750,-0.3750*
1,1,0.7500,-0.3750,0.3750*
1,1,0.7500,0.3750,0.3750*
1,1,0.7500,0.3750,-0.3750*
%
%ADD18ROUNDEDRECTD18*%
%ADD19R,1.5000X1.5000*%
D12*
X28600Y70000D02*
X215100D01*
X16100Y82500D02*
X28600Y70000D01*
X87900Y57100D02*
X115000Y30000D01*
X41500Y57100D02*
X87900D01*
X54000Y95000D02*
X187500D01*
X41500Y82500D02*
X54000Y95000D01*
X41500Y107900D02*
X153000D01*
X115000Y30000D02*
X375100D01*
X453000Y107900D01*
X328400Y132500D02*
X353000Y107900D01*
X225000Y132500D02*
X328400D01*
X215100Y70000D02*
X253000Y107900D01*
X187500Y95000D02*
X225000Y132500D01*
D17*
X41500Y107900D02*
D03*
X16100D02*
D03*
X41500Y133300D02*
D03*
X16100Y82500D02*
D03*
X41500D02*
D03*
X16100Y57100D02*
D03*
Y31700D02*
D03*
X41500Y57100D02*
D03*
Y31700D02*
D03*
X153000Y82500D02*
D03*
Y107900D02*
D03*
X253000Y82500D02*
D03*
Y107900D02*
D03*
X453000Y82500D02*
D03*
Y107900D02*
D03*
X353000Y82500D02*
D03*
Y107900D02*
D03*
D18*
X16100Y133300D02*
D03*
D19*
X153000Y57100D02*
D03*
X253000D02*
D03*
X453000D02*
D03*
X353000D02*
D03*
M02*
